<?xml version="1.0" encoding="utf-8"?>
<!-- Generator: Adobe Illustrator 15.1.0, SVG Export Plug-In . SVG Version: 6.00 Build 0)  -->
<!DOCTYPE svg PUBLIC "-//W3C//DTD SVG 1.1//EN" "http://www.w3.org/Graphics/SVG/1.1/DTD/svg11.dtd">
<svg version="1.1" id="Calque_1" xmlns="http://www.w3.org/2000/svg" xmlns:xlink="http://www.w3.org/1999/xlink" x="0px" y="0px"
	 width="400px" height="150px" viewBox="0 0 400 150" enable-background="new 0 0 400 150" xml:space="preserve">
<rect fill-rule="evenodd" clip-rule="evenodd" fill="#56E6F3" width="400" height="150"/>
<polygon fill-rule="evenodd" clip-rule="evenodd" fill="#4ADEEB" points="-1,85.931 400,28.012 400,150 -1,150 "/>
<g>
	<defs>
		<rect id="SVGID_1_" x="-5" y="15" width="92" height="118"/>
	</defs>
	<clipPath id="SVGID_2_">
		<use xlink:href="#SVGID_1_"  overflow="visible"/>
	</clipPath>
	<g clip-path="url(#SVGID_2_)">
		<path fill-rule="evenodd" clip-rule="evenodd" fill="#B2F5FF" d="M54.927,167.917L-81.368,163.7l2.526-125.614
			c16.017-8.711,25.012,6.182,25.012,6.182c0-3.373,4.216-9.557,13.49-10.398s14.332,12.085,14.332,12.085
			s14.053-14.331,24.729,0.843c10.681,15.174-5.62,25.574-5.62,25.574s12.364-7.025,19.393-0.844
			c7.024,6.183,2.807,16.86,2.807,16.86c1.97-1.969,18.269-8.148,25.012-1.125c6.748,7.025,0.844,17.143,0.844,17.143
			c18.268-0.281,15.454,16.58,15.454,16.58L54.927,167.917z"/>
		<path fill-rule="evenodd" clip-rule="evenodd" fill="none" stroke="#FFFFFF" stroke-width="0.25" stroke-miterlimit="10" d="
			M-76.649,35.98c16.02-8.711,25.012,6.182,25.012,6.182c0-3.371,4.212-9.554,13.488-10.397
			c9.272-0.843,14.334,12.085,14.334,12.085s14.05-14.332,24.729,0.842c10.681,15.176-5.617,25.574-5.617,25.574
			s12.361-7.025,19.387-0.843c7.024,6.182,2.812,16.859,2.812,16.859c1.968-1.967,18.267-8.148,25.01-1.123
			c6.744,7.025,0.844,17.141,0.844,17.141c18.268-0.279,15.455,16.584,15.455,16.584l-1.687,46.93l-136.295-4.215"/>
	</g>
</g>
<rect y="127" fill-rule="evenodd" clip-rule="evenodd" fill="#649C46" width="400" height="23"/>
<rect y="130" fill-rule="evenodd" clip-rule="evenodd" fill="#7DC256" width="400" height="20"/>
<path fill-rule="evenodd" clip-rule="evenodd" fill="#7DC256" stroke="#649C46" stroke-width="0.25" stroke-miterlimit="10" d="
	M171.221,132.234c0,0-2.961-4.144-1.48-4.736c1.48-0.592,3.256,0.593,3.256,2.368c0,0-1.184-3.552,0.592-4.144
	s1.775,4.144,1.775,4.144s0.889-2.072,2.072-2.072c1.185,0-0.592,4.736-0.592,4.736"/>
<path fill-rule="evenodd" clip-rule="evenodd" fill="#7DC256" stroke="#649C46" stroke-width="0.25" stroke-miterlimit="10" d="
	M14.785,145.013c0,0-2.961-4.144-1.48-4.736c1.48-0.592,3.256,0.593,3.256,2.368c0,0-1.184-3.552,0.592-4.144
	s1.775,4.144,1.775,4.144s0.889-2.072,2.072-2.072c1.185,0-0.592,4.736-0.592,4.736"/>
<g>
	<path opacity="0.56" fill-rule="evenodd" clip-rule="evenodd" fill="#FEFA7C" d="M166.578,5.838
		c8.918,0,16.146,7.229,16.146,16.146c0,8.918-7.229,16.146-16.146,16.146c-8.917,0-16.146-7.229-16.146-16.146
		C150.432,13.067,157.661,5.838,166.578,5.838z"/>
	<path fill-rule="evenodd" clip-rule="evenodd" fill="#FEFA7C" d="M166.578,9.613c6.833,0,12.372,5.539,12.372,12.371
		c0,6.833-5.539,12.372-12.372,12.372s-12.372-5.539-12.372-12.372C154.206,15.152,159.745,9.613,166.578,9.613z"/>
</g>
<path fill-rule="evenodd" clip-rule="evenodd" fill="#649C46" d="M209.721,128.499c0,0-5.145-26.121-2.675-26.739
	c2.471-0.617,7,21.617,7,21.617s-3.705-28.41,0.824-29.852s3.705,29.44,3.705,29.44s0.617-28.411,2.882-28.617
	c2.265-0.205,1.854,29.234,1.854,29.234s1.646-23.675,4.323-23.675c2.676,0-0.825,28.005-0.825,28.005L209.721,128.499z"/>
<path fill-rule="evenodd" clip-rule="evenodd" fill="#649C46" d="M233.292,128.219c0,0-3.647-19.316-2.396-19.354
	c1.252-0.037,3.25,11.245,3.25,11.245s0.347-13.249,1.627-13.491c1.278-0.241,0.524,12.952,0.524,12.952s1.749-8.279,2.769-8.142
	c1.021,0.139-1.553,16.789-1.553,16.789"/>
<path fill-rule="evenodd" clip-rule="evenodd" fill="#7DC256" stroke="#649C46" stroke-width="0.25" stroke-miterlimit="10" d="
	M244.553,144.056c0,0-2.961-4.144-1.48-4.736c1.48-0.592,3.256,0.593,3.256,2.368c0,0-1.184-3.552,0.592-4.144
	s1.775,4.144,1.775,4.144s0.889-2.072,2.072-2.072c1.185,0-0.592,4.736-0.592,4.736"/>
<path fill-rule="evenodd" clip-rule="evenodd" fill="#7DC256" stroke="#649C46" stroke-width="0.25" stroke-miterlimit="10" d="
	M383.519,133.134c0,0-2.961-4.144-1.48-4.736c1.48-0.592,3.256,0.593,3.256,2.368c0,0-1.184-3.552,0.592-4.144
	s1.775,4.144,1.775,4.144s0.889-2.072,2.072-2.072c1.185,0-0.592,4.736-0.592,4.736"/>
<g>
	<defs>
		<rect id="SVGID_3_" x="309" y="-21" width="92" height="118"/>
	</defs>
	<clipPath id="SVGID_4_">
		<use xlink:href="#SVGID_3_"  overflow="visible"/>
	</clipPath>
	<g clip-path="url(#SVGID_4_)">
		<path fill-rule="evenodd" clip-rule="evenodd" fill="#B2F5FF" d="M341.073-55.917L477.368-51.7l-2.526,125.614
			c-16.017,8.711-25.012-6.182-25.012-6.182c0,3.373-4.216,9.557-13.49,10.398s-14.332-12.085-14.332-12.085
			s-14.053,14.331-24.729-0.843c-10.681-15.174,5.62-25.574,5.62-25.574s-12.364,7.025-19.393,0.844
			c-7.024-6.183-2.807-16.86-2.807-16.86c-1.97,1.969-18.269,8.148-25.012,1.125c-6.748-7.025-0.844-17.143-0.844-17.143
			c-18.268,0.281-15.454-16.58-15.454-16.58L341.073-55.917z"/>
		<path fill-rule="evenodd" clip-rule="evenodd" fill="none" stroke="#FFFFFF" stroke-width="0.25" stroke-miterlimit="10" d="
			M472.649,76.02c-16.02,8.711-25.012-6.182-25.012-6.182c0,3.371-4.212,9.554-13.488,10.397
			c-9.272,0.843-14.334-12.085-14.334-12.085s-14.05,14.332-24.729-0.842c-10.681-15.176,5.617-25.574,5.617-25.574
			s-12.361,7.025-19.387,0.843c-7.024-6.182-2.812-16.859-2.812-16.859c-1.968,1.967-18.267,8.148-25.01,1.123
			c-6.744-7.025-0.844-17.141-0.844-17.141c-18.268,0.279-15.455-16.584-15.455-16.584l1.687-46.93l136.295,4.215"/>
	</g>
</g>
<g>
	<polygon fill-rule="evenodd" clip-rule="evenodd" fill="#333332" points="621.912,71.832 609.081,78.118 595.405,75.887 
		595.744,80.643 609.925,82.669 621.066,77.71 	"/>
	<path fill-rule="evenodd" clip-rule="evenodd" fill="#FFCBA6" d="M568.79,106.118l7.777,34.651h1.137l1.814-26.799h3.3
		l7.426,27.486h0.826c0.161-2.22,3.608-29.762,2.476-35.339H568.79z"/>
	<path opacity="0.102" fill-rule="evenodd" clip-rule="evenodd" d="M590.242,114.223v25.225l0.838,2.922
		c0.906-4.134,1.702-21.762,2.581-28.833L590.242,114.223z"/>
	<path fill-rule="evenodd" clip-rule="evenodd" fill="#D0202C" d="M571.108,70.726c-4.062,3.6-2.176,13.419-2.345,20.81
		c-0.169,7.389-0.373,19.664,1.333,23.527l24.271-0.697l2.477-11.664c0.026-7.573,1.069-28.479-4.061-33.11
		C588.486,68.172,572.016,67.833,571.108,70.726z"/>
	<path fill-rule="evenodd" clip-rule="evenodd" fill="#FFFFFF" d="M574.755,69.201l4.484,12.845l0.322,6.159l0.555,0.024
		c-0.014-1.963-0.028-4.043-0.042-6.006l7.26-13.546C586.732,68.006,579.472,67.106,574.755,69.201z"/>
	<polygon fill-rule="evenodd" clip-rule="evenodd" fill="#FFCBA6" points="575.954,70.005 579.018,74.017 579.833,78.85 
		580.72,73.878 585.444,69.74 582.488,69.245 581.903,65.688 578.28,65.741 578.053,69.311 	"/>
	<path fill-rule="evenodd" clip-rule="evenodd" fill="#7B5EA2" d="M588.876,141.061c-0.725,0.383-3.672,1.306-4.207,1.929
		c-0.532,0.618,0.262,1.674,0.998,1.792c0.739,0.119,2.476-1.105,3.43-1.075c0.953,0.03,1.768,1.279,2.295,1.261
		c0.526-0.017,0.653-0.901,0.872-1.368c0.218-0.467,0.597-1.01,0.435-1.434c-0.162-0.423-0.558-1.021-1.409-1.104H588.876z"/>
	<path fill-rule="evenodd" clip-rule="evenodd" fill="#7B5EA2" d="M576.041,140.173c-0.532,0.381-4.127,1.972-4.791,2.634
		c-0.666,0.666-0.045,1.356,0.793,1.352c0.841-0.006,3.303-1.312,4.241-1.39s1.062,1.083,1.399,0.916
		c0.338-0.164,0.702-1.326,0.629-1.909c-0.072-0.586-0.69-1.333-1.068-1.6L576.041,140.173z"/>
	<polygon fill-rule="evenodd" clip-rule="evenodd" fill="#AB5C31" points="560.098,43.36 560.081,62.175 561.016,58.327 
		560.646,62.312 597.243,70.972 601.185,54.368 	"/>
	<path fill-rule="evenodd" clip-rule="evenodd" fill="#FFCBA6" d="M559.447,47.008c-1.539,7.379,0.179,12.838,6.788,17.543
		c13.811,6.714,27.577,4.104,33.47,1.916c9.344-4.138,13.416-19.098,12.058-30.605c-11.501-6.27-18.394-14.733-34.505-18.814
		c-8.59,1.937-13.336,8.962-16.339,16.413C558.95,38.566,559.971,42.781,559.447,47.008z"/>
	<path fill-rule="evenodd" clip-rule="evenodd" fill="#FFCBA6" d="M568.176,53.684c1.188-0.938,2.215-4.087,2.54-3.06
		c0.214,1.758,3.878,2.837,2.114,4.279L568.176,53.684z"/>
	<circle fill-rule="evenodd" clip-rule="evenodd" fill="#E0AE8E" cx="564.065" cy="50.454" r="0.109"/>
	<circle fill-rule="evenodd" clip-rule="evenodd" fill="#E0AE8E" cx="564.756" cy="51.544" r="0.255"/>
	<circle fill-rule="evenodd" clip-rule="evenodd" fill="#E0AE8E" cx="561.229" cy="52.636" r="0.254"/>
	
		<ellipse transform="matrix(-0.9711 -0.2386 0.2386 -0.9711 1098.551 240.1645)" fill-rule="evenodd" clip-rule="evenodd" fill="#E0AE8E" cx="563.81" cy="53.599" rx="0.145" ry="0.163"/>
	<circle fill-rule="evenodd" clip-rule="evenodd" fill="#E0AE8E" cx="576.537" cy="55.071" r="0.11"/>
	<circle fill-rule="evenodd" clip-rule="evenodd" fill="#E0AE8E" cx="577.262" cy="54.053" r="0.254"/>
	<circle fill-rule="evenodd" clip-rule="evenodd" fill="#E0AE8E" cx="579.59" cy="56.889" r="0.256"/>
	
		<ellipse transform="matrix(0.145 0.9894 -0.9894 0.145 549.0488 -527.0975)" fill-rule="evenodd" clip-rule="evenodd" fill="#E0AE8E" cx="579.499" cy="54.126" rx="0.145" ry="0.163"/>
	<path fill-rule="evenodd" clip-rule="evenodd" fill="#F5D8E6" d="M582.071,51.001c-0.142-0.098-0.634,0.416-0.589,0.633
		c0.047,0.216,0.766,0.767,0.863,0.667C582.027,51.825,582.065,51.505,582.071,51.001z"/>
	
		<ellipse transform="matrix(-0.9717 -0.236 0.236 -0.9717 1149.0198 245.5697)" opacity="0.102" fill-rule="evenodd" clip-rule="evenodd" fill="#FFFFFF" cx="589.207" cy="54.017" rx="1.799" ry="1.781"/>
	<path fill-rule="evenodd" clip-rule="evenodd" fill="#F2A37D" d="M568.071,53.787c-0.583,0.026,0.773,1.238,1.585,1.433
		c0.811,0.197,3.179,0.3,3.278-0.253C571.137,54.286,568.271,53.425,568.071,53.787z"/>
	<path fill-rule="evenodd" clip-rule="evenodd" fill="#864827" d="M584.136,43.822c2.611-1.333,11.504,2.651,15.204,2.545
		C597.759,45.824,583.218,39.488,584.136,43.822z"/>
	<path fill-rule="evenodd" clip-rule="evenodd" fill="#FFBF93" d="M582.296,52.599c3.226,5.124,9.235,5.143,11.529,4.292
		C591.376,56.843,586.203,56.333,582.296,52.599z"/>
	<path fill-rule="evenodd" clip-rule="evenodd" fill="#F5D8E6" d="M568.295,47.406c0.126-0.028,0.248,0.585,0.135,0.748
		c-0.111,0.162-0.781,0.346-0.806,0.227C568.01,48.105,568.105,47.826,568.295,47.406z"/>
	
		<ellipse transform="matrix(-0.9719 -0.2352 0.2352 -0.9719 1116.1384 241.3499)" opacity="0.2" fill-rule="evenodd" clip-rule="evenodd" fill="#FFFFFF" cx="572.463" cy="54.108" rx="0.581" ry="0.382"/>
	<path fill-rule="evenodd" clip-rule="evenodd" fill="#864827" d="M568.813,41.042c-0.952-1.879-8.075-0.702-10.236-1.781
		C559.769,39.197,571.334,37.432,568.813,41.042z"/>
	<path fill-rule="evenodd" clip-rule="evenodd" fill="#E3A7A5" d="M568.515,58.182c2.648,1.494,5.627,1.398,7.243,1.137
		C574.095,60.791,570.521,61.04,568.515,58.182z"/>
	<path fill-rule="evenodd" clip-rule="evenodd" fill="#FFBF93" d="M559.366,47.768c3.263,1.96,5.269,1.646,7.704,1.246
		C566.292,50.021,561.901,50.828,559.366,47.768z"/>
	<path opacity="0.102" fill-rule="evenodd" clip-rule="evenodd" d="M559.891,37.107c2.055-2.759,3.354-5.02,7.084-7.064
		c3.367,7.257,19.182,12.773,26.147,15.363c2.169,2.579,7.104,5.325,6.51,7.738l-3.349,14.429l2.206-0.85l4.302-18.356
		l-14.907-15.626l-21.062-5.805l-6.481,7.356L559.891,37.107z"/>
	<path fill-rule="evenodd" clip-rule="evenodd" fill="#ED8039" d="M558.969,38.368c0.742-2.629,5.075-8.948,8.75-8.895
		c2.09,6.36,20.015,13.3,23.089,14.077c-1.52-1.941-2.253-4.271-2.479-6.612c2.558,5.166,8.314,11.843,12.682,14.257l-4.075,19.868
		l12.823,3.116c5.226-6.118,11.42-16.584,12.646-26.082c1.225-9.498,1.768-24.11-5.29-30.902
		c-7.061-6.792-27.772-15.019-37.063-9.847C565.769,8.919,557.062,28.413,558.969,38.368z"/>
	<path fill-rule="evenodd" clip-rule="evenodd" fill="#FFCBA6" d="M612.123,47.179l-3.129,12.89
		c0.957,0.699,7.609-1.138,8.973-6.752C618.879,49.565,616.913,45.658,612.123,47.179z"/>
	
		<ellipse transform="matrix(-0.9718 -0.236 0.236 -0.9718 1192.9832 259.1902)" fill-rule="evenodd" clip-rule="evenodd" fill="#D0202C" cx="612.003" cy="58.198" rx="1.145" ry="1.127"/>
	<path opacity="0.502" fill-rule="evenodd" clip-rule="evenodd" fill="#E0AE8E" d="M611.819,48.353
		c2.965-0.901,5.118,0.851,5.171,2.634c0.142,1.748-1.692,3.678-2.405,4.167c-0.713,0.49-1.074-1.465-1.867-1.232
		c-0.793,0.234-2.573,3.404-2.89,2.636C610.457,54.053,611.189,50.857,611.819,48.353z"/>
	<path fill-rule="evenodd" clip-rule="evenodd" fill="#FCA565" d="M590.738,43.511c-8.477-3.196-19.226-10.503-16.551-21.527
		C572.914,32.21,583.3,39.855,590.738,43.511z"/>
	<path fill-rule="evenodd" clip-rule="evenodd" fill="#E3A7A5" d="M582.085,50.769c2.858-2.731,7.457-3.839,11.951-4.041
		C593.879,46.245,586.32,44.269,582.085,50.769z"/>
	<path fill-rule="evenodd" clip-rule="evenodd" fill="#E3A7A5" d="M568.398,47.184c-1.043-2.896-3.452-5.539-6.739-4.956
		C564.476,42.888,567.261,44.708,568.398,47.184z"/>
	<path fill-rule="evenodd" clip-rule="evenodd" fill="#FFCBA6" d="M585.831,93.393c-0.168-0.953,0.28-2.217,1.136-3.312
		c0.02-1.093,0.041-2.817-0.477-3.07c-0.518-0.249-2.77-0.671-3.706-0.238c-0.399,0.099-1.036,0.923-1.673,1.865
		c-0.14,0.552,0.289,1.626,0.837,2.407c0.309,0.593,0.668,0.291,1.134,0.661c0.469,0.372,1.105,1.336,1.674,1.566L585.831,93.393z"
		/>
	<path fill-rule="evenodd" clip-rule="evenodd" fill="#E53732" d="M594.993,71.557c2.111,3.061,8.592,17.456,7.1,20.92
		c-1.494,3.461-13.499,0.635-16.067-0.142l0.656-4.519c2.258,0.611,10.947,3.656,11.804,1.271
		c0.855-2.386-5.301-13.155-6.668-15.579C591.27,70.308,594.117,69.25,594.993,71.557z"/>
	<g>
		<polygon fill-rule="evenodd" clip-rule="evenodd" fill="#FFFFFF" points="599.583,93.502 603.665,94.043 605.513,100.51 
			604.209,102.793 601.433,102.956 591.587,101.379 591.262,99.261 593.709,93.283 		"/>
		<polygon opacity="0.102" fill-rule="evenodd" clip-rule="evenodd" points="602.282,94.139 601.504,100.122 602.204,102.842 
			604.152,102.919 605.478,100.51 603.764,94.061 598.62,93.517 594.024,93.283 		"/>
		<path fill-rule="evenodd" clip-rule="evenodd" fill="#FFFFFF" d="M596.97,89.082c1.299,1.572,1.732,3.632,1.624,5.529l0.813,0.054
			c0.144-1.79,0.018-3.901-1.519-5.744C597.583,88.901,597.33,88.775,596.97,89.082z"/>
	</g>
	<polygon fill-rule="evenodd" clip-rule="evenodd" fill="#525252" points="619.366,104.046 626.231,139.662 628.414,139.662 
		632.633,119.899 635.979,120.58 644.27,141.931 646.597,141.25 652.124,105.137 	"/>
	<polygon fill-rule="evenodd" clip-rule="evenodd" fill="#333332" points="628.296,139.46 625.443,139.239 618.201,140.986 
		619.739,142.949 630.27,142.73 630.709,140.767 	"/>
	<polygon fill-rule="evenodd" clip-rule="evenodd" fill="#333332" points="647.306,140.417 644.537,139.896 637.219,143.551 
		639.592,145.639 648.691,144.856 648.889,141.721 	"/>
	<path fill-rule="evenodd" clip-rule="evenodd" fill="#333332" d="M619.207,73.729c-2.605,4.835,0.224,17.12-0.01,22.78
		c-0.233,5.658-0.813,8.83-1.39,11.178c1.929,2.296,7.214,5.245,13.035,5.146l0.983-4.25l0.984,4.25
		c3.496-0.272,17.291,0.993,19.63-6.011c-0.353-4.924-1.955-6.646-1.959-12.056c-0.002-5.407,2.771-16.769,1.227-23.861
		c-2.896-2.462-11.464-3.872-16.881-3.399C629.41,67.978,621.812,68.896,619.207,73.729z"/>
	<path fill-rule="evenodd" clip-rule="evenodd" fill="#FFFFFF" d="M627.511,70.873l2.448,20.774l9.003-22.26
		C636.894,68.046,630.243,67.033,627.511,70.873z"/>
	<path fill-rule="evenodd" clip-rule="evenodd" fill="#FFCBA6" d="M629.983,64.897l0.67,6.977l1.335,3.666l4.689-4.146
		c0.03-2.009-0.022-4.497,0.008-6.505L629.983,64.897z"/>
	<polygon fill-rule="evenodd" clip-rule="evenodd" fill="#CC4192" points="630.795,73.361 633.685,73.361 634.454,75.117 
		632.441,77.641 634.563,80.517 630.303,89.757 628.637,80.893 630.85,77.505 630.217,75.579 	"/>
	<path fill-rule="evenodd" clip-rule="evenodd" fill="#525252" d="M628.433,70.644l2.074,18.058l7.374-18.528l-1.226-1.519v-1.548
		c1.897,0.242,4.525,0.159,5.688,0.725l-0.192,6.004l-4.497,0.464l3.476,1.614l-11.611,18.682l-4.483-17.578l3.108-1.951
		l-3.433,0.31l0.549-5.94c1.925-0.993,3.198-1.334,4.878-1.514l0.327,1.466L628.433,70.644z"/>
	<path opacity="0.102" fill-rule="evenodd" clip-rule="evenodd" d="M644.562,112.278l0.824,28.345l1.648-1.182l4.944-30.705
		C649.937,110.947,646.664,111.574,644.562,112.278z"/>
	<path fill-rule="evenodd" clip-rule="evenodd" fill="#FFCBA6" d="M606.907,50.309c1.286,12.904,5.745,16.021,8.485,16.657
		c15.005,3.267,28.941-1.339,35.214-3.45c4.093-1.452,5.239-6.848,5.7-9.091c10.966-3.479,11.814-18.037,2.835-14.182
		c-0.181-4.582,3.603-8.709-3.272-12.437l-37.975-10.146c-8.3,0.837-5.326,2.78-7.472,7.165c-7.526,3.656-6.158,16.275-5.892,19.301
		C606.022,47.227,605.546,48.696,606.907,50.309z"/>
	<path fill-rule="evenodd" clip-rule="evenodd" fill="#7A4B47" d="M598.398,14.725c-6.046,6.535-0.067,17.811,6.797,17.173
		c1.584-3.882,7.639-3.487,12.607-0.9c5.342-3.294,23.54-5.396,29.169-2.506c7.85,3.436,6.446,13.09,6.735,16.968
		c-1.15,4.209-0.663,8.418-3.449,12.629l5.664-4.527l3.338-13.013l2.913,6.361c2.656-1.262,4.35-8.476,1.465-20.12
		c-0.396-6.906-4.933-11.535-21.475-14.778c-8.618-3.557-15.225-7.625-22.519-7.173C612.349,5.292,600.4,10.587,598.398,14.725z"/>
	<path fill-rule="evenodd" clip-rule="evenodd" fill="#FFCBA6" d="M617.729,55.384c0.932-1.19,1.187-4.492,1.745-3.572
		c0.624,1.658,4.437,1.843,3.064,3.659L617.729,55.384z"/>
	<circle fill-rule="evenodd" clip-rule="evenodd" fill="#ED8039" cx="613.003" cy="53.29" r="0.11"/>
	<circle fill-rule="evenodd" clip-rule="evenodd" fill="#ED8039" cx="613.913" cy="54.198" r="0.255"/>
	<circle fill-rule="evenodd" clip-rule="evenodd" fill="#ED8039" cx="610.75" cy="56.09" r="0.254"/>
	<ellipse fill-rule="evenodd" clip-rule="evenodd" fill="#ED8039" cx="613.476" cy="56.399" rx="0.145" ry="0.165"/>
	<circle fill-rule="evenodd" clip-rule="evenodd" fill="#ED8039" cx="625.656" cy="53.071" r="0.109"/>
	<circle fill-rule="evenodd" clip-rule="evenodd" fill="#ED8039" cx="626.748" cy="52.308" r="0.254"/>
	<circle fill-rule="evenodd" clip-rule="evenodd" fill="#ED8039" cx="627.947" cy="55.799" r="0.255"/>
	
		<ellipse transform="matrix(-0.2077 0.9782 -0.9782 -0.2077 811.458 -550.8187)" fill-rule="evenodd" clip-rule="evenodd" fill="#ED8039" cx="628.801" cy="53.217" rx="0.146" ry="0.163"/>
	<path fill-rule="evenodd" clip-rule="evenodd" fill="#F2A37D" d="M617.637,55.541c-0.562,0.165,1.044,1.021,1.878,1.021
		c0.835,0,3.16-0.46,3.128-1.021C620.734,55.304,617.746,55.145,617.637,55.541z"/>
	<path fill-rule="evenodd" clip-rule="evenodd" fill="#864827" d="M632.757,39.181c2.479-1.564,14.031,0.778,15.362,1.154
		C650.691,37.756,631.562,33.421,632.757,39.181z"/>
	<path fill-rule="evenodd" clip-rule="evenodd" fill="#FFBF93" d="M631.183,50.999c4.344,4.219,10.188,2.819,12.216,1.451
		C641.007,52.981,635.86,53.705,631.183,50.999z"/>
	<ellipse opacity="0.2" fill-rule="evenodd" clip-rule="evenodd" fill="#FFFFFF" cx="621.983" cy="54.799" rx="0.581" ry="0.38"/>
	<path fill-rule="evenodd" clip-rule="evenodd" fill="#864827" d="M614.688,41.18c-1.548-1.431-8.184,0.826-10.207,1.895
		C601.938,40.232,615.791,36.917,614.688,41.18z"/>
	<path fill-rule="evenodd" clip-rule="evenodd" fill="#FFCBA6" d="M658.695,40.522l-4.28,16.969
		c1.096,0.453,11.416-6.598,11.416-12.379C665.831,41.248,662.995,37.91,658.695,40.522z"/>
	<path fill-rule="evenodd" clip-rule="evenodd" fill="#FFFFFF" d="M630.97,49.792c-0.199-0.416-0.864-0.717-0.87-1.107
		c-0.01-0.391,0.806-0.827,0.827-1.237c0.623-7.025,14.853-7.392,15.126-0.57C644.801,54.708,632.985,53.811,630.97,49.792z"/>
	<ellipse fill-rule="evenodd" clip-rule="evenodd" fill="#7A3331" cx="634.962" cy="47.691" rx="3.672" ry="3.418"/>
	<path fill-rule="evenodd" clip-rule="evenodd" fill="#F5D8E6" d="M630.316,48.299c-0.159-0.062-0.516,0.554-0.42,0.754
		c0.096,0.2,0.926,0.565,0.995,0.444C630.471,49.11,630.431,48.79,630.316,48.299z"/>
	
		<ellipse opacity="0.102" fill-rule="evenodd" clip-rule="evenodd" fill="#FFFFFF" cx="634.345" cy="47.673" rx="2.545" ry="2.563"/>
	<ellipse opacity="0.102" fill-rule="evenodd" clip-rule="evenodd" fill="#FFFFFF" cx="635.673" cy="48.272" rx="1.8" ry="1.782"/>
	<path opacity="0.2" fill-rule="evenodd" clip-rule="evenodd" fill="#FFFFFF" d="M635.727,46.546c0-0.653,0.528-1.182,1.184-1.182
		c0.651,0,1.179,0.529,1.179,1.182c0,0.651-0.527,1.181-1.179,1.181C636.255,47.727,635.727,47.197,635.727,46.546z"/>
	<circle fill-rule="evenodd" clip-rule="evenodd" cx="634.092" cy="47.145" r="1.236"/>
	<path fill-rule="evenodd" clip-rule="evenodd" fill="#7A3331" d="M630.964,46.863c1.361-7.499,11.839-4.909,13.107-4.447
		c2.514,1.034,2.745,2.902,2.705,3.424c-0.449,3.142-2.933,7.812-8.872,7.079c4.957-0.328,7.971-3.27,7.878-7.166
		C645.017,41.665,632.377,39.789,630.964,46.863z"/>
	<path fill-rule="evenodd" clip-rule="evenodd" fill="#FFFFFF" d="M615.848,50.022c-2.241,4.503-10.661,3.117-10.586-2.123
		c0.141-5.625,9.7-4.062,10.743,1.07C616.256,49.277,616.566,50.036,615.848,50.022z"/>
	<path fill-rule="evenodd" clip-rule="evenodd" fill="#F5D8E6" d="M616.261,49.13c0.116-0.057,0.38,0.51,0.309,0.695
		c-0.07,0.183-0.68,0.52-0.729,0.409C616.148,49.876,616.176,49.582,616.261,49.13z"/>
	<ellipse fill-rule="evenodd" clip-rule="evenodd" fill="#7A3331" cx="609.367" cy="48.346" rx="3.163" ry="2.945"/>
	<circle opacity="0.102" fill-rule="evenodd" clip-rule="evenodd" fill="#FFFFFF" cx="609.277" cy="48.327" r="1.727"/>
	<circle opacity="0.102" fill-rule="evenodd" clip-rule="evenodd" fill="#FFFFFF" cx="610.185" cy="48.728" r="1.218"/>
	<ellipse opacity="0.2" fill-rule="evenodd" clip-rule="evenodd" fill="#FFFFFF" cx="611.021" cy="47.563" rx="0.818" ry="0.782"/>
	<circle fill-rule="evenodd" clip-rule="evenodd" cx="608.767" cy="48.218" r="1.037"/>
	<path fill-rule="evenodd" clip-rule="evenodd" fill="#7A3331" d="M614.82,46.632c-2.741-2.648-6.755-2.454-8.379-0.748
		c-2.221,2.602,0.666,6.357,3.667,6.933c-3.47-0.579-4.601-3.194-5.03-4.76C604.096,43.878,611.271,42.601,614.82,46.632z"/>
	<path fill-rule="evenodd" clip-rule="evenodd" fill="#FFBF93" d="M607.585,52.115c3.634,1.134,5.509,0.355,7.782-0.607
		C614.848,52.669,610.771,54.49,607.585,52.115z"/>
	<circle opacity="0.6" fill-rule="evenodd" clip-rule="evenodd" fill="#FFFFFF" cx="609.095" cy="47.854" r="0.527"/>
	<circle opacity="0.6" fill-rule="evenodd" clip-rule="evenodd" fill="#FFFFFF" cx="634.582" cy="46.727" r="0.527"/>
	<path opacity="0.102" fill-rule="evenodd" clip-rule="evenodd" d="M605.004,31.948c2.745-3.828,9.468-1.941,12.812-0.218
		c8.776-3.683,28.403-5.46,33.036-0.381c-2.471-8.054-22.933-5.768-32.601-1.36C615.309,27.648,605.877,27.213,605.004,31.948z"/>
	<path fill-rule="evenodd" clip-rule="evenodd" fill="#FFFFFF" d="M617.955,60.301c4.189,0.887,5.478,0.564,8.942-0.485
		c1.935-0.563,2.176,2.261,1.09,3.268c-2.74,1.331-6.931,2.06-9.911,0.365C616.385,62.197,616.021,59.858,617.955,60.301z"/>
	<path fill-rule="evenodd" clip-rule="evenodd" fill="#AB4B47" d="M617.467,60.208l0.408,1.636l-0.09,1.371
		C616.167,61.899,616.205,59.979,617.467,60.208z"/>
	<path opacity="0.102" fill-rule="evenodd" clip-rule="evenodd" d="M617.366,60.235l0.422,1.513
		c-0.013,0.519-0.025,1.036-0.038,1.554l0.461,0.35l0.152-1.396l1.112-0.039l-1.188-0.428L617.366,60.235z"/>
	<polygon opacity="0.102" fill-rule="evenodd" clip-rule="evenodd" points="637.327,9.842 641.854,12.032 646.053,12.907 
		641.745,12.797 636.89,14.823 641.145,12.086 	"/>
	<path fill-rule="evenodd" clip-rule="evenodd" fill="#CAC9CA" d="M617.512,29.221c-5.782-5.225-4.078-14.23-0.943-16.326
		C614.409,15.447,613.813,24.389,617.512,29.221z"/>
	<path fill-rule="evenodd" clip-rule="evenodd" fill="#333332" d="M652.846,72.413l4.188,23.345l-5.229,13.116
		c-0.996,1.197-2.665,1.498-4.333,0.678l5.723-14.135l-5.12-20.152C648.693,72.519,651.458,69.217,652.846,72.413z"/>
	<g>
		<g>
			<g>
				<path fill-rule="evenodd" clip-rule="evenodd" fill="#231F20" d="M594.047,50.084c0.731-1.929,3.163-2.584,3.731-2.687
					c-0.05,0.543-0.037,0.788-0.112,1.241l1.677-0.38c-0.11,1.168-0.234,1.396-0.353,1.855l1.606-0.242
					c-0.352,1.884-1.498,3.927-2.85,4.341c0.796-0.467-1.168-3.078-1.347-4.28C596.13,49.271,595.194,48.255,594.047,50.084z"/>
				<path fill-rule="evenodd" clip-rule="evenodd" fill="#231F20" d="M595.521,51.247c1.259-1.635,0.539-4.049,0.329-4.584
					c-0.438,0.326-0.64,0.658-0.997,0.745l-0.559-1.626c-0.337,0.625-0.68,0.979-1.2,1.385l-0.291-1.461
					c-0.235,0.528-1.681,1.242-1.323,2.61c-0.02-0.921,1.816,1.329,2.935,0.85C595.12,49.046,596.477,49.311,595.521,51.247z"/>
			</g>
			<path fill="#231F20" d="M590.901,56.334c2.552,1.091,12.318-2.709,6.868-7.41c0,0-10.078-6.749-16.06,2.546
				C581.71,51.471,590.793,56.357,590.901,56.334z"/>
			<path fill-rule="evenodd" clip-rule="evenodd" fill="#FFFFFF" d="M581.71,51.471c4.929-6.313,17.072-4.06,16.452,0.872
				C595.605,58.559,586.115,57.002,581.71,51.471z"/>
			<g>
				<defs>
					<path id="SVGID_5_" d="M581.71,51.471c4.929-6.313,17.072-4.06,16.452,0.872C595.605,58.559,586.115,57.002,581.71,51.471z"/>
				</defs>
				<clipPath id="SVGID_6_">
					<use xlink:href="#SVGID_5_"  overflow="visible"/>
				</clipPath>
				<g clip-path="url(#SVGID_6_)">
					<path fill-rule="evenodd" clip-rule="evenodd" fill="#A7C378" d="M585.446,54.99c-0.923-1.365-0.571-3.223,0.787-4.15
						c1.354-0.931,3.197-0.583,4.122,0.775c0.924,1.364,0.571,3.221-0.786,4.148c-0.161,0.113-0.328,0.208-0.513,0.284
						L585.446,54.99z"/>
					<path opacity="0.102" fill-rule="evenodd" clip-rule="evenodd" fill="#FFFFFF" d="M585.775,52.663
						c0.256-1.251,1.471-2.058,2.71-1.803c1.234,0.253,2.031,1.474,1.775,2.725c-0.257,1.252-1.471,2.057-2.705,1.803
						C586.314,55.133,585.519,53.914,585.775,52.663z"/>
					<path opacity="0.102" fill-rule="evenodd" clip-rule="evenodd" fill="#FFFFFF" d="M587.501,53.564
						c0.18-0.873,1.032-1.432,1.901-1.253c0.873,0.179,1.438,1.029,1.258,1.903c-0.179,0.874-1.035,1.437-1.907,1.258
						C587.884,55.294,587.32,54.438,587.501,53.564z"/>
					<path opacity="0.2" fill-rule="evenodd" clip-rule="evenodd" fill="#FFFFFF" d="M588.129,52.111
						c0.117-0.571,0.68-0.94,1.261-0.82c0.585,0.12,0.958,0.68,0.841,1.251c-0.118,0.57-0.681,0.938-1.264,0.818
						C588.382,53.241,588.012,52.681,588.129,52.111z"/>
					<path fill-rule="evenodd" clip-rule="evenodd" d="M586.43,53.446c0.138-0.668,0.786-1.1,1.453-0.963
						c0.67,0.139,1.1,0.791,0.962,1.458c-0.136,0.668-0.789,1.1-1.459,0.961C586.72,54.766,586.292,54.113,586.43,53.446z"/>
					<path opacity="0.6" fill-rule="evenodd" clip-rule="evenodd" fill="#FFFFFF" d="M587.373,53.211
						c0.066-0.33,0.404-0.542,0.744-0.472c0.343,0.071,0.568,0.396,0.5,0.729c-0.069,0.336-0.404,0.549-0.746,0.479
						C587.527,53.875,587.304,53.55,587.373,53.211z"/>
				</g>
			</g>
		</g>
		<g>
			<g>
				<path fill-rule="evenodd" clip-rule="evenodd" fill="#231F20" d="M562.245,44.479c0.219-1.364-0.977-2.556-1.271-2.802
					c-0.152,0.331-0.242,0.469-0.349,0.757l-0.85-0.78c-0.323,0.716-0.329,0.89-0.413,1.196l-0.851-0.675
					c-0.425,1.212-0.439,2.781,0.208,3.471c-0.306-0.536,1.705-1.399,2.21-2.038C561.307,43.313,562.188,43.035,562.245,44.479z"/>
				<path fill-rule="evenodd" clip-rule="evenodd" fill="#231F20" d="M561.003,44.665c-0.188-1.368,1.035-2.533,1.336-2.773
					c0.144,0.335,0.151,0.595,0.331,0.766l0.866-0.761c-0.014,0.476,0.068,0.796,0.236,1.206l0.656-0.753
					c-0.04,0.385,0.562,1.282-0.101,1.958c0.317-0.53-1.499,0.167-1.989-0.484C561.97,43.521,561.092,43.222,561.003,44.665z"/>
			</g>
			<path fill="#231F20" d="M560.499,42.346c0,0,8.168,0.18,8.034,7.04l-0.676,0.463l-6.471-0.793
				C561.387,49.056,555.289,44.66,560.499,42.346z"/>
			<path fill-rule="evenodd" clip-rule="evenodd" fill="#FFFFFF" d="M568.533,49.386c-3.274,2.858-11.235-1.013-8.772-5.427
				C561.381,41.494,568.371,45.096,568.533,49.386z"/>
			<g>
				<defs>
					<path id="SVGID_7_" d="M568.533,49.386c-3.274,2.858-11.235-1.013-8.772-5.427C561.381,41.494,568.371,45.096,568.533,49.386z"
						/>
				</defs>
				<clipPath id="SVGID_8_">
					<use xlink:href="#SVGID_7_"  overflow="visible"/>
				</clipPath>
				<g clip-path="url(#SVGID_8_)">
					<path fill-rule="evenodd" clip-rule="evenodd" fill="#A7C378" d="M562.247,49.934c-0.775-1.201-0.436-2.813,0.764-3.604
						c1.199-0.79,2.804-0.455,3.584,0.749c0.722,1.115,0.482,2.603-0.544,3.449L562.247,49.934z"/>
					<path opacity="0.102" fill-rule="evenodd" clip-rule="evenodd" fill="#FFFFFF" d="M562.511,47.441
						c0.267-0.812,1.147-1.255,1.976-0.983c0.823,0.271,1.278,1.153,1.011,1.966c-0.267,0.813-1.157,1.253-1.979,0.983
						C562.688,49.134,562.242,48.255,562.511,47.441z"/>
					<path opacity="0.102" fill-rule="evenodd" clip-rule="evenodd" fill="#FFFFFF" d="M563.611,48.16
						c0.188-0.577,0.81-0.891,1.384-0.7c0.576,0.189,0.888,0.808,0.698,1.385c-0.188,0.572-0.808,0.889-1.384,0.7
						C563.733,49.355,563.423,48.73,563.611,48.16z"/>
					
						<ellipse transform="matrix(-0.9501 -0.312 0.312 -0.9501 1088.2805 269.6577)" opacity="0.2" fill-rule="evenodd" clip-rule="evenodd" fill="#FFFFFF" cx="565.715" cy="47.759" rx="0.717" ry="0.694"/>
					<path fill-rule="evenodd" clip-rule="evenodd" d="M563.48,48.302c0.178-0.544,0.763-0.837,1.308-0.658
						c0.545,0.178,0.835,0.761,0.658,1.305c-0.181,0.547-0.761,0.842-1.304,0.663C563.597,49.433,563.3,48.85,563.48,48.302z"/>
					<path opacity="0.6" fill-rule="evenodd" clip-rule="evenodd" fill="#FFFFFF" d="M564.378,48.517
						c0.096-0.295,0.409-0.456,0.699-0.36c0.297,0.097,0.457,0.415,0.36,0.709c-0.097,0.293-0.412,0.447-0.708,0.35
						C564.439,49.12,564.281,48.811,564.378,48.517z"/>
				</g>
			</g>
		</g>
		<path fill="#231F20" d="M591.025,56.342"/>
	</g>
	<path opacity="0.502" fill-rule="evenodd" clip-rule="evenodd" fill="#E0AE8E" d="M658.689,41.74
		c2.67-1.575,5.175-0.381,5.649,1.338c0.548,1.667-0.779,3.975-1.355,4.618c-0.577,0.645-1.391-1.17-2.105-0.756
		c-0.717,0.415-1.699,3.914-2.188,3.243C658.71,47.6,658.669,44.321,658.689,41.74z"/>
</g>
<rect y="-123" fill-rule="evenodd" clip-rule="evenodd" fill="#7DC256" width="200" height="30"/>
<g>
	<path fill-rule="evenodd" clip-rule="evenodd" fill="#649C46" d="M318.455,118.714c0,0-0.92-33.688,1.492-33.688
		c2.413,0,3.86,19.783,3.86,19.783s2.413-30.881,5.308-29.916c2.896,0.965-0.482,31.846-0.482,31.846s8.203-25.573,11.098-25.09
		c2.896,0.482-10.414,37.729-10.414,37.729"/>
	<path fill-rule="evenodd" clip-rule="evenodd" fill="#FFCBA6" d="M261.119,106.389l5.57,34.465h1.129l3.323-26.653h1.766
		l7.386,27.34h0.821c0.159-2.208,3.59-29.605,2.462-35.151H261.119z"/>
	<path opacity="0.102" fill-rule="evenodd" clip-rule="evenodd" d="M280.292,114.448v25.091l0.834,2.905
		c0.899-4.109,1.69-21.644,2.565-28.678L280.292,114.448z"/>
	<path fill-rule="evenodd" clip-rule="evenodd" fill="#D0202C" d="M283.691,98.433c-4.055-15.798,4.5-26.217-0.872-28.378
		c-4.177-1.678-20.658-1.747-21.561,1.129c-1.736,3.437,2.683,17.851,0.779,24.952c-1.948,7.265-1.697,15.307,0,19.149l22.357-0.694
		C284.396,114.591,285.521,105.562,283.691,98.433z"/>
	<path fill-rule="evenodd" clip-rule="evenodd" fill="#FFFFFF" d="M264.886,69.669l4.461,12.774l0.32,6.127l0.552,0.025
		c-0.014-1.951-0.028-4.023-0.043-5.974l7.223-13.475C276.801,68.478,269.577,67.584,264.886,69.669z"/>
	<polygon fill-rule="evenodd" clip-rule="evenodd" fill="#FFCBA6" points="266.079,70.468 269.127,74.459 269.938,79.266 
		270.818,74.319 275.518,70.205 272.579,69.711 271.997,66.174 268.393,66.227 268.166,69.776 	"/>
	<path fill-rule="evenodd" clip-rule="evenodd" fill="#7B5EA2" d="M278.932,141.143c-0.72,0.382-3.652,1.301-4.184,1.918
		c-0.532,0.616,0.26,1.665,0.993,1.785c0.733,0.119,2.461-1.101,3.409-1.07c0.949,0.032,1.759,1.272,2.283,1.256
		c0.525-0.019,0.65-0.897,0.868-1.362c0.216-0.464,0.594-1.004,0.432-1.425c-0.16-0.422-0.554-1.018-1.401-1.102H278.932z"/>
	<path fill-rule="evenodd" clip-rule="evenodd" fill="#7B5EA2" d="M266.166,140.262c-0.53,0.38-4.105,1.961-4.767,2.62
		c-0.663,0.662-0.045,1.351,0.791,1.344c0.834-0.007,3.282-1.304,4.216-1.382c0.936-0.078,1.056,1.077,1.393,0.912
		c0.337-0.164,0.699-1.319,0.626-1.9c-0.072-0.582-0.685-1.327-1.062-1.592L266.166,140.262z"/>
	<path fill-rule="evenodd" clip-rule="evenodd" fill="#FFCBA6" d="M275.946,92.819c-0.162-0.82,0.268-1.908,1.087-2.85
		c0.02-0.941,0.038-2.428-0.457-2.644s-2.651-0.578-3.547-0.207c-0.382,0.087-0.992,0.795-1.603,1.606
		c-0.133,0.476,0.276,1.399,0.801,2.073c0.296,0.51,0.64,0.251,1.088,0.57s1.059,1.148,1.602,1.347L275.946,92.819z"/>
	<path fill-rule="evenodd" clip-rule="evenodd" fill="#E53732" d="M285.016,72.011c2.102,3.043,8.549,17.363,7.062,20.808
		c-1.486,3.445-13.426,0.631-15.98-0.141l0.651-4.494c2.248,0.609,10.891,3.637,11.742,1.265s-5.274-13.086-6.633-15.496
		C281.313,70.769,284.146,69.718,285.016,72.011z"/>
	<polygon fill-rule="evenodd" clip-rule="evenodd" fill="#FFFFFF" points="289.583,93.839 293.641,94.379 295.481,100.811 
		294.182,103.079 291.423,103.242 281.629,101.675 281.305,99.567 283.739,93.623 	"/>
	<polygon opacity="0.102" fill-rule="evenodd" clip-rule="evenodd" points="292.268,94.473 291.492,100.424 292.19,103.128 
		294.127,103.206 295.444,100.811 293.74,94.395 288.625,93.854 284.053,93.623 	"/>
	<path fill-rule="evenodd" clip-rule="evenodd" fill="#FFFFFF" d="M286.982,89.444c1.293,1.562,1.723,3.612,1.616,5.499l0.808,0.054
		c0.144-1.779,0.018-3.883-1.509-5.715C287.593,89.265,287.341,89.138,286.982,89.444z"/>
	<g>
		<path fill-rule="evenodd" clip-rule="evenodd" fill="#AB5C31" d="M252.9,67.933l-0.408-3.96l-0.171,3.936l-3.711-20.291
			l51.34,2.75l-3.448,20.301C296.502,70.668,282.392,59.281,252.9,67.933z"/>
		<path fill-rule="evenodd" clip-rule="evenodd" fill="#FFCBA6" d="M248.68,51.302c-0.08,7.498,2.648,12.493,10.005,15.811
			c14.769,3.889,27.7-1.311,33.029-4.582c8.319-5.835,9.411-21.221,5.867-32.186c-12.432-3.904-20.787-10.833-37.296-11.71
			c-8.008,3.544-11.287,11.316-12.781,19.164C246.566,43.162,248.375,47.078,248.68,51.302z"/>
		<path fill-rule="evenodd" clip-rule="evenodd" fill="#FFCBA6" d="M258.484,56.135c0.976-1.144,1.37-4.415,1.888-3.476
			c0.547,1.675,4.328,2.022,2.887,3.769L258.484,56.135z"/>
		<circle fill-rule="evenodd" clip-rule="evenodd" fill="#E0AE8E" cx="253.85" cy="53.776" r="0.108"/>
		<circle fill-rule="evenodd" clip-rule="evenodd" fill="#E0AE8E" cx="254.733" cy="54.707" r="0.253"/>
		<circle fill-rule="evenodd" clip-rule="evenodd" fill="#E0AE8E" cx="251.503" cy="56.451" r="0.253"/>
		
			<ellipse transform="matrix(-0.999 -0.0456 0.0456 -0.999 505.558 125.3104)" fill-rule="evenodd" clip-rule="evenodd" fill="#E0AE8E" cx="254.207" cy="56.894" rx="0.145" ry="0.163"/>
		<circle fill-rule="evenodd" clip-rule="evenodd" fill="#E0AE8E" cx="266.909" cy="55.878" r="0.108"/>
		<circle fill-rule="evenodd" clip-rule="evenodd" fill="#E0AE8E" cx="267.421" cy="54.745" r="0.253"/>
		<circle fill-rule="evenodd" clip-rule="evenodd" fill="#E0AE8E" cx="270.239" cy="57.063" r="0.253"/>
		
			<ellipse transform="matrix(0.3369 0.9416 -0.9416 0.3369 229.9977 -217.7953)" fill-rule="evenodd" clip-rule="evenodd" fill="#E0AE8E" cx="269.618" cy="54.385" rx="0.145" ry="0.163"/>
		<path fill-rule="evenodd" clip-rule="evenodd" fill="#F5D8E6" d="M271.524,50.84c-0.156-0.069-0.537,0.527-0.45,0.73
			c0.085,0.203,0.895,0.602,0.969,0.485C271.642,51.652,271.617,51.333,271.524,50.84z"/>
		
			<ellipse transform="matrix(-0.9991 -0.043 0.043 -0.9991 555.6307 116.7548)" opacity="0.102" fill-rule="evenodd" clip-rule="evenodd" fill="#FFFFFF" cx="279.07" cy="52.407" rx="1.79" ry="1.772"/>
		<path fill-rule="evenodd" clip-rule="evenodd" fill="#F2A37D" d="M258.4,56.256c-0.564,0.138,0.994,1.058,1.824,1.094
			c0.828,0.036,3.158-0.32,3.149-0.88C261.488,56.151,258.527,55.865,258.4,56.256z"/>
		<path fill-rule="evenodd" clip-rule="evenodd" fill="#864827" d="M272.155,43.437c2.292-1.804,11.737,0.371,15.329-0.447
			C285.837,42.764,270.426,39.383,272.155,43.437z"/>
		<path fill-rule="evenodd" clip-rule="evenodd" fill="#FFBF93" d="M272.052,52.355c4.136,4.378,10.004,3.239,12.079,1.966
			C281.73,54.747,276.584,55.245,272.052,52.355z"/>
		<path fill-rule="evenodd" clip-rule="evenodd" fill="#F5D8E6" d="M257.389,49.987c0.118-0.053,0.355,0.522,0.277,0.702
			s-0.697,0.488-0.743,0.376C257.245,50.724,257.285,50.433,257.389,49.987z"/>
		
			<ellipse transform="matrix(-0.9991 -0.0435 0.0435 -0.9991 522.8284 122.811)" opacity="0.2" fill-rule="evenodd" clip-rule="evenodd" fill="#FFFFFF" cx="262.749" cy="55.723" rx="0.579" ry="0.38"/>
		<path fill-rule="evenodd" clip-rule="evenodd" fill="#864827" d="M256.67,43.677c-1.292-1.651-8.016,0.87-10.332,0.234
			C247.488,43.62,258.433,39.668,256.67,43.677z"/>
		<path fill-rule="evenodd" clip-rule="evenodd" fill="#E3A7A5" d="M259.68,60.459c2.873,0.947,5.761,0.278,7.287-0.285
			C265.629,61.93,262.188,62.862,259.68,60.459z"/>
		<path fill-rule="evenodd" clip-rule="evenodd" fill="#FFBF93" d="M248.746,52.06c3.562,1.283,5.458,0.591,7.759-0.269
			C255.94,52.923,251.81,54.557,248.746,52.06z"/>
		<path opacity="0.102" fill-rule="evenodd" clip-rule="evenodd" d="M247.202,41.557c1.475-3.089,2.321-5.53,5.553-8.26
			c-2.14,1.808,9.72,11.127,30.63,7.07c3.291-0.639,11.544,15.377,11.544,15.377l1.352-2.676l-4.864-10.191L273.68,31.901
			l-21.672-1.607l-4.905,8.428L247.202,41.557z"/>
		<path fill-rule="evenodd" clip-rule="evenodd" fill="#ED8039" d="M298.024,46.691"/>
		<path fill-rule="evenodd" clip-rule="evenodd" fill="#ED8039" d="M285.842,40.022c-5.351-2.393-24.88,4.481-32.47-7.424
			c-1.965-3.083-6.607,7.658-6.826,10.367c-3.777-9.347,0.962-30.047,14.595-34.332c8.069-6.837,31.819-5.014,38.062,2.466
			c9.095,18.934,9.499,34.268,6.357,44.768l-9.184,15.915c0,0,1.353-11.534,0.75-14.785"/>
		<path fill-rule="evenodd" clip-rule="evenodd" fill="#FCA565" d="M281.211,37.192c-8.761,2.101-21.69,2.088-25.643-8.481
			C260.229,37.84,273.046,38.335,281.211,37.192z"/>
		<path fill-rule="evenodd" clip-rule="evenodd" fill="#E3A7A5" d="M271.494,50.61c2.263-3.216,6.537-5.184,10.884-6.246
			C282.13,43.924,274.375,43.451,271.494,50.61z"/>
		<path fill-rule="evenodd" clip-rule="evenodd" fill="#E3A7A5" d="M257.448,49.75c-1.576-2.626-4.437-4.74-7.531-3.538
			C252.792,46.314,255.859,47.553,257.448,49.75z"/>
		<g>
			<g>
				<g>
					<path fill-rule="evenodd" clip-rule="evenodd" fill="#231F20" d="M283.035,47.636c0.34-2.023,2.589-3.131,3.122-3.34
						c0.057,0.539,0.116,0.775,0.131,1.231l1.562-0.692c0.117,1.16,0.042,1.406,0.015,1.877l1.52-0.546
						c0.021,1.907-0.705,4.121-1.942,4.786c0.686-0.61-1.734-2.778-2.141-3.916C284.911,46.441,283.803,45.631,283.035,47.636z"/>
					<path fill-rule="evenodd" clip-rule="evenodd" fill="#231F20" d="M284.698,48.487c0.912-1.837-0.255-4.054-0.563-4.536
						c-0.363,0.402-0.497,0.765-0.829,0.918l-0.858-1.479c-0.208,0.675-0.475,1.087-0.904,1.583l-0.566-1.37
						c-0.126,0.561-1.398,1.537-0.789,2.802c-0.193-0.896,2.031,0.946,3.029,0.264C283.882,46.417,285.255,46.414,284.698,48.487z"
						/>
				</g>
				<path fill="#231F20" d="M281.17,54.341c2.701,0.573,11.498-5.017,5.273-8.553c0,0-11.135-4.645-15.181,5.58
					C271.263,51.368,281.071,54.384,281.17,54.341z"/>
				<path fill-rule="evenodd" clip-rule="evenodd" fill="#FFFFFF" d="M271.263,51.368c3.593-7.112,15.877-7.253,16.224-2.32
					C286.188,55.606,276.628,55.916,271.263,51.368z"/>
				<g>
					<defs>
						<path id="SVGID_9_" d="M271.263,51.368c3.593-7.112,15.877-7.253,16.224-2.32C286.188,55.606,276.628,55.916,271.263,51.368z"
							/>
					</defs>
					<clipPath id="SVGID_10_">
						<use xlink:href="#SVGID_9_"  overflow="visible"/>
					</clipPath>
					<g clip-path="url(#SVGID_10_)">
						<circle fill="#A7C378" cx="277.551" cy="50.538" r="2.919"/>
						<path opacity="0.102" fill-rule="evenodd" clip-rule="evenodd" fill="#FFFFFF" d="M275.382,50.302
							c0.009-1.27,1.04-2.292,2.298-2.282c1.254,0.009,2.266,1.047,2.257,2.316c-0.01,1.271-1.039,2.291-2.292,2.281
							C276.387,52.609,275.372,51.573,275.382,50.302z"/>
						<path opacity="0.102" fill-rule="evenodd" clip-rule="evenodd" fill="#FFFFFF" d="M277.239,50.85
							c0.008-0.887,0.733-1.597,1.614-1.591c0.888,0.007,1.602,0.728,1.596,1.615c-0.007,0.887-0.732,1.602-1.619,1.595
							C277.948,52.463,277.233,51.737,277.239,50.85z"/>
						<path opacity="0.2" fill-rule="evenodd" clip-rule="evenodd" fill="#FFFFFF" d="M277.574,49.31
							c0.004-0.581,0.482-1.048,1.071-1.044c0.594,0.005,1.066,0.48,1.062,1.059c-0.005,0.58-0.483,1.048-1.078,1.043
							C278.039,50.364,277.569,49.889,277.574,49.31z"/>
						<path fill-rule="evenodd" clip-rule="evenodd" d="M275.69,50.965c0.004-0.679,0.556-1.224,1.232-1.218
							c0.681,0.005,1.226,0.559,1.221,1.237c-0.005,0.678-0.558,1.225-1.24,1.219C276.228,52.198,275.685,51.643,275.69,50.965z"/>
						<path opacity="0.6" fill-rule="evenodd" clip-rule="evenodd" fill="#FFFFFF" d="M276.566,50.555
							c0.002-0.335,0.288-0.607,0.635-0.604c0.348,0.002,0.63,0.278,0.628,0.615c-0.002,0.342-0.288,0.613-0.637,0.61
							S276.563,50.898,276.566,50.555z"/>
					</g>
				</g>
			</g>
			<g>
				<g>
					<path fill-rule="evenodd" clip-rule="evenodd" fill="#231F20" d="M250.923,48.297c-0.05-1.374-1.446-2.306-1.782-2.491
						c-0.085,0.353-0.146,0.504-0.193,0.808l-0.979-0.598c-0.179,0.761-0.149,0.931-0.173,1.247l-0.96-0.496
						c-0.182,1.265,0.108,2.799,0.872,3.348c-0.402-0.464,1.395-1.694,1.763-2.416C249.781,47.34,250.587,46.898,250.923,48.297z"/>
					<path fill-rule="evenodd" clip-rule="evenodd" fill="#231F20" d="M249.745,48.718c-0.446-1.3,0.522-2.672,0.769-2.965
						c0.205,0.298,0.263,0.551,0.471,0.683l0.699-0.909c0.079,0.467,0.22,0.763,0.462,1.131l0.496-0.861
						c0.035,0.383,0.796,1.142,0.28,1.931c0.207-0.579-1.432,0.451-2.036-0.09C250.467,47.414,249.555,47.291,249.745,48.718z"/>
				</g>
				<path fill="#231F20" d="M248.807,46.551c0,0,8.005-1.398,9.197,5.321l-0.57,0.583l-6.468,0.472
					C250.966,52.927,244.17,49.813,248.807,46.551z"/>
				<path fill-rule="evenodd" clip-rule="evenodd" fill="#FFFFFF" d="M258.004,51.872c-2.646,3.422-11.16,1.177-9.606-3.604
					C249.504,45.55,257.02,47.717,258.004,51.872z"/>
				<g>
					<defs>
						<path id="SVGID_11_" d="M258.004,51.872c-2.646,3.422-11.16,1.177-9.606-3.604C249.504,45.55,257.02,47.717,258.004,51.872z"
							/>
					</defs>
					<clipPath id="SVGID_12_">
						<use xlink:href="#SVGID_11_"  overflow="visible"/>
					</clipPath>
					<g clip-path="url(#SVGID_12_)">
						<circle fill-rule="evenodd" clip-rule="evenodd" fill="#A7C378" cx="252.358" cy="50.474" r="2.595"/>
						<path opacity="0.102" fill-rule="evenodd" clip-rule="evenodd" fill="#FFFFFF" d="M250.231,49.833
							c0.105-0.844,0.879-1.447,1.739-1.34c0.856,0.104,1.469,0.878,1.365,1.723c-0.104,0.846-0.887,1.446-1.743,1.34
							C250.732,51.449,250.128,50.678,250.231,49.833z"/>
						<path opacity="0.102" fill-rule="evenodd" clip-rule="evenodd" fill="#FFFFFF" d="M251.444,50.321
							c0.073-0.599,0.618-1.023,1.218-0.949c0.599,0.073,1.021,0.618,0.946,1.217c-0.072,0.593-0.616,1.023-1.215,0.95
							S251.37,50.914,251.444,50.321z"/>
						<path opacity="0.2" fill-rule="evenodd" clip-rule="evenodd" fill="#FFFFFF" d="M252.711,49.438
							c0.048-0.381,0.402-0.647,0.795-0.598c0.389,0.048,0.67,0.392,0.623,0.773c-0.047,0.378-0.402,0.65-0.793,0.603
							C252.943,50.166,252.665,49.815,252.711,49.438z"/>
						<g>
							<path fill-rule="evenodd" clip-rule="evenodd" d="M250.435,50.715c0.069-0.564,0.584-0.963,1.149-0.894
								c0.565,0.071,0.963,0.582,0.894,1.146c-0.07,0.569-0.58,0.968-1.144,0.898C250.768,51.795,250.365,51.284,250.435,50.715z"/>
							<path opacity="0.6" fill-rule="evenodd" clip-rule="evenodd" fill="#FFFFFF" d="M251.177,50.548
								c0.038-0.306,0.312-0.524,0.615-0.487c0.306,0.038,0.524,0.317,0.485,0.623c-0.036,0.305-0.315,0.515-0.621,0.477
								C251.354,51.123,251.14,50.853,251.177,50.548z"/>
						</g>
					</g>
				</g>
			</g>
			<path fill="#231F20" d="M281.293,54.326"/>
		</g>
	</g>
	<g>
		<path fill-rule="evenodd" clip-rule="evenodd" fill="#FFCBA6" d="M309.008,45.954l-3.661,12.675
			c0.921,0.734,7.611-0.806,9.205-6.326C315.617,48.614,313.832,44.646,309.008,45.954z"/>
		
			<ellipse transform="matrix(-0.9606 -0.2778 0.2778 -0.9606 588.8904 197.2287)" fill-rule="evenodd" clip-rule="evenodd" fill="#D0202C" cx="308.417" cy="56.898" rx="1.139" ry="1.121"/>
		<path opacity="0.502" fill-rule="evenodd" clip-rule="evenodd" fill="#E0AE8E" d="M308.655,47.106
			c2.984-0.768,5.049,1.064,5.027,2.838c0.064,1.744-1.841,3.583-2.57,4.039c-0.728,0.456-1.004-1.502-1.802-1.305
			c-0.799,0.199-2.704,3.273-2.985,2.495C307.057,52.713,307.923,49.567,308.655,47.106z"/>
		<polygon fill-rule="evenodd" clip-rule="evenodd" fill="#525252" points="315.206,103.329 322.035,138.752 324.206,138.752 
			328.402,119.098 331.729,119.776 339.977,141.012 342.292,140.335 347.79,104.413 		"/>
		<polygon fill-rule="evenodd" clip-rule="evenodd" fill="#333332" points="324.089,138.553 321.251,138.337 314.049,140.072 
			315.576,142.025 326.053,141.809 326.489,139.855 		"/>
		<polygon fill-rule="evenodd" clip-rule="evenodd" fill="#333332" points="342.998,139.507 340.242,138.986 332.963,142.623 
			335.324,144.701 344.375,143.922 344.571,140.806 		"/>
		<path fill-rule="evenodd" clip-rule="evenodd" fill="#333332" d="M315.048,73.176c-2.591,4.809,0.222,17.027-0.011,22.657
			c-0.232,5.629-0.808,8.783-1.382,11.119c1.918,2.285,7.175,5.215,12.967,5.118l0.979-4.228l0.979,4.228
			c3.478-0.272,17.199,0.987,19.524-5.978c-0.35-4.896-1.944-6.613-1.947-11.993c-0.003-5.379,2.755-16.68,1.22-23.736
			c-2.88-2.447-11.403-3.85-16.791-3.381C325.196,67.451,317.64,68.367,315.048,73.176z"/>
		<path fill-rule="evenodd" clip-rule="evenodd" fill="#FFFFFF" d="M323.307,70.333l2.437,20.664l8.955-22.141
			C332.642,67.521,326.025,66.514,323.307,70.333z"/>
		<path fill-rule="evenodd" clip-rule="evenodd" fill="#FFCBA6" d="M325.766,64.39l0.669,6.939l1.326,3.647l4.664-4.125
			c0.032-1.998-0.022-4.473,0.009-6.471L325.766,64.39z"/>
		<polygon fill-rule="evenodd" clip-rule="evenodd" fill="#CC4192" points="326.574,72.806 329.447,72.806 330.214,74.554 
			328.212,77.062 330.323,79.925 326.084,89.116 324.428,80.3 326.629,76.931 325.998,75.014 		"/>
		<path fill-rule="evenodd" clip-rule="evenodd" fill="#525252" d="M324.224,70.105l2.064,17.959l7.334-18.428l-1.219-1.512v-1.539
			c1.886,0.241,4.502,0.157,5.659,0.722l-0.192,5.974l-4.475,0.459l3.457,1.606l-11.547,18.58l-4.461-17.482l3.092-1.94
			l-3.414,0.309l0.546-5.909c1.915-0.989,3.182-1.329,4.853-1.507l0.325,1.458L324.224,70.105z"/>
		<path opacity="0.102" fill-rule="evenodd" clip-rule="evenodd" d="M340.269,111.519l0.819,28.192l1.64-1.175l4.917-30.542
			C345.612,110.195,342.359,110.817,340.269,111.519z"/>
		<path fill-rule="evenodd" clip-rule="evenodd" fill="#FFCBA6" d="M303.691,48.841c0.725,12.877,5.021,16.165,7.718,16.916
			c14.771,3.889,28.817-0.095,35.142-1.921c4.129-1.27,5.501-6.583,6.054-8.791c11.047-2.988,12.514-17.419,3.425-13.973
			c0.015-4.561,3.952-8.501-2.72-12.499l-37.302-11.708c-8.286,0.476-5.414,2.534-7.734,6.799c-7.635,3.311-6.814,15.91-6.68,18.93
			C302.943,45.74,302.407,47.18,303.691,48.841z"/>
		<path fill-rule="evenodd" clip-rule="evenodd" fill="#7A4B47" d="M296.759,13.114c-6.289,6.236-0.831,17.697,6.019,17.358
			c1.74-3.791,7.74-3.138,12.567-0.356c5.45-3.044,23.622-4.355,29.094-1.241c7.653,3.75,5.846,13.284,5.967,17.149
			c-1.323,4.134-1.02,8.339-3.968,12.403l5.822-4.255l3.874-12.789l2.621,6.446c2.694-1.141,4.687-8.238,2.318-19.933
			c-0.1-6.88-4.41-11.675-20.708-15.604c-8.413-3.903-14.805-8.229-22.072-8.091C311.025,4.338,298.924,9.089,296.759,13.114z"/>
		<path fill-rule="evenodd" clip-rule="evenodd" fill="#FFCBA6" d="M314.228,54.347c0.976-1.144,1.371-4.415,1.888-3.476
			c0.547,1.674,4.329,2.021,2.887,3.768L314.228,54.347z"/>
		<circle fill-rule="evenodd" clip-rule="evenodd" fill="#ED8039" cx="309.621" cy="52.064" r="0.108"/>
		<circle fill-rule="evenodd" clip-rule="evenodd" fill="#ED8039" cx="310.485" cy="53.006" r="0.253"/>
		<circle fill-rule="evenodd" clip-rule="evenodd" fill="#ED8039" cx="307.261" cy="54.749" r="0.253"/>
		
			<ellipse transform="matrix(-0.9991 -0.0422 0.0422 -0.9991 617.3102 123.3748)" fill-rule="evenodd" clip-rule="evenodd" fill="#ED8039" cx="309.957" cy="55.173" rx="0.145" ry="0.163"/>
		<circle fill-rule="evenodd" clip-rule="evenodd" fill="#ED8039" cx="322.204" cy="52.388" r="0.109"/>
		<circle fill-rule="evenodd" clip-rule="evenodd" fill="#ED8039" cx="323.32" cy="51.677" r="0.253"/>
		<circle fill-rule="evenodd" clip-rule="evenodd" fill="#ED8039" cx="324.363" cy="55.197" r="0.253"/>
		
			<ellipse transform="matrix(-0.2528 0.9675 -0.9675 -0.2528 458.5316 -248.7694)" fill-rule="evenodd" clip-rule="evenodd" fill="#ED8039" cx="325.323" cy="52.667" rx="0.145" ry="0.163"/>
		<path fill-rule="evenodd" clip-rule="evenodd" fill="#F2A37D" d="M314.129,54.5c-0.565,0.139,0.994,1.059,1.823,1.094
			c0.828,0.036,3.159-0.32,3.149-0.88C317.216,54.396,314.255,54.109,314.129,54.5z"/>
		<path fill-rule="evenodd" clip-rule="evenodd" fill="#864827" d="M329.855,38.889c2.529-1.449,13.909,1.374,15.215,1.805
			C347.737,38.24,328.912,33.114,329.855,38.889z"/>
		<path fill-rule="evenodd" clip-rule="evenodd" fill="#FFBF93" d="M327.784,50.565c4.136,4.377,10.003,3.237,12.078,1.964
			C337.463,52.955,332.316,53.456,327.784,50.565z"/>
		
			<ellipse transform="matrix(-0.9991 -0.0426 0.0426 -0.9991 634.3727 121.4175)" opacity="0.2" fill-rule="evenodd" clip-rule="evenodd" fill="#FFFFFF" cx="318.48" cy="53.948" rx="0.579" ry="0.38"/>
		<path fill-rule="evenodd" clip-rule="evenodd" fill="#864827" d="M311.812,40.101c-1.476-1.487-8.167,0.471-10.224,1.447
			C299.185,38.615,313.092,35.913,311.812,40.101z"/>
		<path fill-rule="evenodd" clip-rule="evenodd" fill="#FFCBA6" d="M355.572,41.331l-4.979,16.681
			c1.069,0.497,11.628-6.068,11.875-11.814C362.635,42.358,359.96,38.92,355.572,41.331z"/>
		<path fill-rule="evenodd" clip-rule="evenodd" fill="#FFFFFF" d="M327.624,49.357c-0.179-0.421-0.827-0.749-0.817-1.138
			s0.836-0.788,0.874-1.193c0.921-6.955,15.078-6.711,15.057,0.081C341.159,54.833,329.455,53.436,327.624,49.357z"/>
		
			<ellipse transform="matrix(-0.9991 -0.043 0.043 -0.9991 661.0165 109.1134)" fill-rule="evenodd" clip-rule="evenodd" fill="#7A3331" cx="331.683" cy="47.439" rx="3.652" ry="3.399"/>
		<path fill-rule="evenodd" clip-rule="evenodd" fill="#F5D8E6" d="M327.04,47.845c-0.156-0.069-0.537,0.529-0.451,0.731
			c0.087,0.203,0.896,0.601,0.971,0.485C327.157,48.657,327.134,48.338,327.04,47.845z"/>
		
			<ellipse transform="matrix(-0.9991 -0.0431 0.0431 -0.9991 659.7894 109.0141)" opacity="0.102" fill-rule="evenodd" clip-rule="evenodd" fill="#FFFFFF" cx="331.07" cy="47.395" rx="2.532" ry="2.55"/>
		
			<ellipse transform="matrix(-0.9991 -0.0431 0.0431 -0.9991 662.3462 110.3739)" opacity="0.102" fill-rule="evenodd" clip-rule="evenodd" fill="#FFFFFF" cx="332.363" cy="48.048" rx="1.79" ry="1.772"/>
		<circle opacity="0.2" fill-rule="evenodd" clip-rule="evenodd" fill="#FFFFFF" cx="333.666" cy="46.385" r="1.175"/>
		<circle fill-rule="evenodd" clip-rule="evenodd" cx="330.84" cy="46.86" r="1.23"/>
		<path fill-rule="evenodd" clip-rule="evenodd" fill="#7A3331" d="M327.744,46.446c1.674-7.394,11.975-4.373,13.215-3.859
			c2.454,1.135,2.604,3.002,2.543,3.52c-0.581,3.103-3.25,7.639-9.12,6.655c4.939-0.113,8.061-2.91,8.136-6.785
			C341.933,41.881,329.452,39.476,327.744,46.446z"/>
		<path fill-rule="evenodd" clip-rule="evenodd" fill="#FFFFFF" d="M312.589,48.938c-2.421,4.379-10.73,2.642-10.43-2.563
			c0.379-5.584,9.813-3.621,10.628,1.523C313.023,48.215,313.301,48.98,312.589,48.938z"/>
		<path fill-rule="evenodd" clip-rule="evenodd" fill="#F5D8E6" d="M313.035,48.07c0.119-0.053,0.354,0.522,0.277,0.702
			c-0.078,0.18-0.696,0.489-0.743,0.377C312.892,48.807,312.932,48.515,313.035,48.07z"/>
		
			<ellipse transform="matrix(-0.9991 -0.043 0.043 -0.9991 610.135 107.11)" fill-rule="evenodd" clip-rule="evenodd" fill="#7A3331" cx="306.219" cy="46.994" rx="3.146" ry="2.929"/>
		<circle opacity="0.102" fill-rule="evenodd" clip-rule="evenodd" fill="#FFFFFF" cx="306.13" cy="46.973" r="1.717"/>
		<circle opacity="0.102" fill-rule="evenodd" clip-rule="evenodd" fill="#FFFFFF" cx="307.016" cy="47.409" r="1.212"/>
		
			<ellipse transform="matrix(-0.9991 -0.0429 0.0429 -0.9991 613.525 105.736)" opacity="0.2" fill-rule="evenodd" clip-rule="evenodd" fill="#FFFFFF" cx="307.896" cy="46.288" rx="0.814" ry="0.777"/>
		<circle fill-rule="evenodd" clip-rule="evenodd" cx="305.628" cy="46.842" r="1.031"/>
		<path fill-rule="evenodd" clip-rule="evenodd" fill="#7A3331" d="M311.712,45.525c-2.61-2.748-6.608-2.728-8.295-1.103
			c-2.317,2.491,0.39,6.345,3.348,7.047c-3.424-0.724-4.437-3.371-4.797-4.946C301.172,42.328,308.357,41.367,311.712,45.525z"/>
		<path fill-rule="evenodd" clip-rule="evenodd" fill="#FFBF93" d="M304.287,50.664c3.562,1.283,5.459,0.591,7.759-0.269
			C311.481,51.526,307.352,53.161,304.287,50.664z"/>
		<circle opacity="0.6" fill-rule="evenodd" clip-rule="evenodd" fill="#FFFFFF" cx="305.969" cy="46.494" r="0.524"/>
		<circle opacity="0.6" fill-rule="evenodd" clip-rule="evenodd" fill="#FFFFFF" cx="331.345" cy="46.466" r="0.524"/>
		<path opacity="0.102" fill-rule="evenodd" clip-rule="evenodd" d="M302.585,30.512c2.892-3.686,9.492-1.523,12.741,0.333
			c8.879-3.284,28.458-4.21,32.846,1.035c-2.111-8.11-22.543-6.715-32.338-2.747C313.009,26.681,303.654,25.845,302.585,30.512z"/>
		<path fill-rule="evenodd" clip-rule="evenodd" fill="#FFFFFF" d="M314.241,59.243c4.125,1.062,4.817,0.677,8.908-0.098
			c1.968-0.373,1.443,0.971,0.424,2.039c-1.479,1.547-7.722,3.106-9.889,0.474C312.027,59.644,312.338,58.72,314.241,59.243z"/>
		<polygon opacity="0.102" fill-rule="evenodd" clip-rule="evenodd" points="335.652,9.928 340.057,12.298 344.191,13.348 
			339.915,13.055 335.006,14.859 339.349,12.322 		"/>
		<path fill-rule="evenodd" clip-rule="evenodd" fill="#CAC9CA" d="M315.131,28.338c-5.521-5.439-3.443-14.316-0.239-16.263
			C312.638,14.517,311.662,23.377,315.131,28.338z"/>
		<path fill-rule="evenodd" clip-rule="evenodd" fill="#333332" d="M348.508,71.865l4.165,23.22l-5.202,13.046
			c-0.99,1.192-2.65,1.491-4.31,0.674l5.691-14.059l-5.093-20.045C344.377,71.972,347.127,68.685,348.508,71.865z"/>
		<path fill-rule="evenodd" clip-rule="evenodd" fill="#333332" d="M314.947,73.007l-5.479,19.411l5.053,14.527
			c0.99,1.191,2.65,1.49,4.31,0.674l-5.497-14.135l6.36-17.642C319.078,73.113,316.327,69.826,314.947,73.007z"/>
		<path opacity="0.502" fill-rule="evenodd" clip-rule="evenodd" fill="#E0AE8E" d="M355.516,42.541
			c2.72-1.452,5.159-0.157,5.556,1.571c0.474,1.68-0.943,3.917-1.545,4.531c-0.601,0.615-1.33-1.223-2.059-0.842
			c-0.729,0.381-1.856,3.817-2.313,3.129C355.286,48.366,355.385,45.105,355.516,42.541z"/>
	</g>
	<path fill-rule="evenodd" clip-rule="evenodd" fill="#FFCBA6" d="M238.957,69.148c0.361,0.715,0.482,1.348,0.706,1.56
		c0.444,0.426,3.038-0.575,4.127-1.005c0.775-1.269,0.286-0.647,0.839-1.898c0,0,0.633-1.696-0.569-1.374
		c-0.4,0.182-0.32,0.762-0.32,0.762c-0.425-0.171-0.647-2.128-1.91-2.578c-3.036-1.085-2.548-0.685-3.296,0.732
		c-0.567,1.076-0.337,1.459-0.288,1.896C238.204,67.791,238.595,68.433,238.957,69.148"/>
	<path fill-rule="evenodd" clip-rule="evenodd" fill="#E53732" d="M260.951,75.965c-2.898,2.294-10.287,7.929-13.821,6.67
		L239.642,70.2l4.36-0.521c0,0,2.066,7.742,5.547,8.805c2.411,0.734,9.394-5.787,11.71-7.3"/>
	<g>
		<path fill-rule="evenodd" clip-rule="evenodd" fill="#FFCBA6" d="M295.961,45.918l-0.713,12.16
			c0.809,0.166,6.945-6.001,6.191-9.954C300.935,45.484,298.562,43.572,295.961,45.918z"/>
		<path opacity="0.502" fill-rule="evenodd" clip-rule="evenodd" fill="#E0AE8E" d="M296.116,46.751
			c1.619-1.425,3.488-0.936,4.036,0.178c0.592,1.068-0.013,2.819-0.325,3.334c-0.309,0.515-1.103-0.619-1.537-0.242
			c-0.435,0.376-0.65,2.898-1.072,2.502C296.896,50.756,296.439,48.519,296.116,46.751z"/>
	</g>
</g>
<g>
	<path fill="#774594" d="M72.582,83.739c2.183-2.296,4.201-4.146,4.533-4.815l0.298-5.861c-0.784,0.091-4.139,3.368-7.603,7.377
		C70.786,80.899,72.128,81.857,72.582,83.739z"/>
	<path fill-rule="evenodd" clip-rule="evenodd" fill="#AA7B55" d="M103.794,72.363l0.593-3.658l0.58,3.667l3.732-16.854
		l-39.418,0.295l-0.337,15.785C68.943,71.598,79.339,69.059,103.794,72.363z"/>
	<circle fill-rule="evenodd" clip-rule="evenodd" fill="#DDAD8C" cx="107.125" cy="63.377" r="0.24"/>
	<g>
		<path fill-rule="evenodd" clip-rule="evenodd" fill="#3296A9" d="M73.649,105.831"/>
		<path fill-rule="evenodd" clip-rule="evenodd" fill="#3296A9" d="M71.702,106.803l5.213,0.081l14.453,0.521l8.833-3.153
			c1.196,5.564,2.418,6.702-0.119,18.599c-2.934,14.885-3.892,17.485-3.979,18.597l-1.656-0.057l-7.255-20.407l0.309,0.884
			l-3.908,17.903h-1.032l-9.936-32.229"/>
	</g>
	<g>
		<path fill-rule="evenodd" clip-rule="evenodd" fill="#3EACBB" d="M84.183,107.073L84.183,107.073l16.016-2.896
			c1.196,5.566,2.418,6.703-0.119,18.6c-2.934,14.886-3.893,17.485-3.979,18.599l-1.656-0.059l-7.255-20.408l0.31,0.887
			l-4.99-13.278"/>
	</g>
	<g>
		<path opacity="0.102" fill-rule="evenodd" clip-rule="evenodd" d="M88.679,123.118"/>
		<path opacity="0.102" fill-rule="evenodd" clip-rule="evenodd" d="M96.157,106.389l3.986-2.138
			c1.106,5.564,2.104,7.374-0.11,18.599c-2.717,14.885-3.604,17.485-3.684,18.597l-1.535-0.057
			C94.814,141.39,97.869,132.204,96.157,106.389z"/>
	</g>
	<path fill-rule="evenodd" clip-rule="evenodd" fill="#755B9F" d="M99.159,75.333c-0.716-2.059-18.974-4.188-21.93-2.242
		l-1.465,15.387l-2.789,27.084c7.078,6.622,25.238,3.213,31.389,0.313c0,0-1.167-8.402-2.308-15.194L99.159,75.333z"/>
	<path fill-rule="evenodd" clip-rule="evenodd" fill="#774594" d="M84.674,72.375c-0.907-0.146-4.29,0.017-4.29,0.017
		c0.872,5.308,4.434,8.356,4.434,8.356c5.857-1.801,8.629-7.41,8.629-7.41s-3.062-0.633-3.429-0.591"/>
	<path fill-rule="evenodd" clip-rule="evenodd" fill="#9D88BB" d="M90.674,69.79"/>
	<path fill-rule="evenodd" clip-rule="evenodd" fill="#535352" d="M94.161,143.732"/>
	<path fill-rule="evenodd" clip-rule="evenodd" fill="#535352" d="M89.225,144.48"/>
	<path fill-rule="evenodd" clip-rule="evenodd" fill="#535352" d="M89.039,145.087c0.688-0.62,4.167-2.146,5.123-2.654l-3.193-8.456
		l7.894-0.569l-1.412,8.808c0,0,0.445,1.189,0.098,3.021c-0.084,0.447-3.387,0.346-3.387,0.346
		c-1.353,0.586-3.961,0.905-4.937,0.747C89.225,146.329,88.43,145.636,89.039,145.087z"/>
	<path fill-rule="evenodd" clip-rule="evenodd" fill="#535352" d="M76.847,144.43c0.914,0.088,3.333,0.128,4.59-0.418
		c0,0,3.072,0.095,3.15-0.32c0.323-1.705-0.09-2.81-0.09-2.81l1.211-8.493l-5.891,0.563l1.62,8.131
		c-0.888,0.473-3.881,1.754-4.59,2.242C76.847,143.325,76.185,144.366,76.847,144.43z"/>
	<path fill-rule="evenodd" clip-rule="evenodd" fill="#FFCBA5" d="M110.203,56.848c-0.35,7.161-3.234,11.773-10.444,14.525
		c-14.317,2.873-26.365-2.821-31.266-6.244c-7.614-6.041-7.784-20.785-3.782-31.052c12.088-3.02,20.456-9.161,36.263-9.064
		c7.445,3.837,10.133,11.438,11.116,19.013C112.681,49.198,110.732,52.833,110.203,56.848z"/>
	<circle fill-rule="evenodd" clip-rule="evenodd" fill="#DDAD8C" cx="105.067" cy="58.931" r="0.108"/>
	<circle fill-rule="evenodd" clip-rule="evenodd" fill="#DDAD8C" cx="104.183" cy="59.785" r="0.24"/>
	<ellipse fill-rule="evenodd" clip-rule="evenodd" fill="#DDAD8C" cx="104.563" cy="61.88" rx="0.13" ry="0.153"/>
	<circle fill-rule="evenodd" clip-rule="evenodd" fill="#DDAD8C" cx="92.482" cy="59.988" r="0.107"/>
	
		<ellipse transform="matrix(-0.3917 0.9201 -0.9201 -0.3917 182.3089 -2.8253)" fill-rule="evenodd" clip-rule="evenodd" fill="#DDAD8C" cx="92.088" cy="58.852" rx="0.239" ry="0.26"/>
	<path fill-rule="evenodd" clip-rule="evenodd" fill="#DDAD8C" d="M89.103,61.197c0.122,0.055,0.267-0.012,0.323-0.146
		c0.057-0.131,0.004-0.282-0.117-0.333c-0.122-0.053-0.266,0.012-0.323,0.145C88.93,60.997,88.982,61.146,89.103,61.197z"/>
	
		<ellipse transform="matrix(-0.3878 0.9217 -0.9217 -0.3878 178.6745 -1.6891)" fill-rule="evenodd" clip-rule="evenodd" fill="#DDAD8C" cx="89.898" cy="58.491" rx="0.13" ry="0.152"/>
	<path fill-rule="evenodd" clip-rule="evenodd" fill="#F1A37D" d="M100.609,61.041c0.529,0.165-1.004,0.956-1.794,0.943
		c-0.792-0.014-2.986-0.486-2.946-1.018C97.679,60.767,100.51,60.662,100.609,61.041z"/>
	
		<ellipse transform="matrix(0.9999 0.0157 -0.0157 0.9999 0.959 -1.5093)" opacity="0.2" fill-rule="evenodd" clip-rule="evenodd" fill="#FFFFFF" cx="96.522" cy="60.271" rx="0.544" ry="0.369"/>
	<path fill-rule="evenodd" clip-rule="evenodd" fill="#F1A37D" d="M99.426,64.912l-0.655,0.958c-1.296,0.348-9.685,1.65-10.81-1.845
		C89.644,65.864,97.803,65.337,99.426,64.912z"/>
	<path opacity="0.102" fill-rule="evenodd" clip-rule="evenodd" d="M112.929,47.628c-1.232-3.032-1.889-5.422-4.832-8.197
		c-4.836,5.875-20.713,7.169-27.742,7.886c-2.615,1.855-10.038,2.404-10.066,4.768l-0.728,21.571
		c-1.753-1.412-1.497-0.788-3.069-2.631L66.19,49.658l22.013-12.743l20.776-0.307l4.206,8.32L112.929,47.628z"/>
	<path fill="#231F1F" d="M79.287,58.098"/>
	<path fill-rule="evenodd" clip-rule="evenodd" fill="#FFCBA5" d="M99.105,75.38l10.678,13.889c7.767,1.7,15.411,3.97,23.426,4.708
		l0.188,3.414c-2.69-0.07-22.62-3.997-25.503-5.352c-2.885-1.354-8.074-8.531-10.342-12.271
		C95.641,76.865,98.396,74.323,99.105,75.38z"/>
	<path fill="#774594" d="M104.354,81.869l-5.346-6.796c-0.75-1.094-3.771,1.462-1.753,4.465c0.855,1.381,2.063,3.654,3.462,5.512
		C101.222,83.986,102.295,82.253,104.354,81.869z"/>
	<g>
		<path fill-rule="evenodd" clip-rule="evenodd" fill="#6F3A1E" d="M89.072,48.165c-2.084-1.843-11.209-0.315-14.587-1.299
			C76.071,46.744,90.942,44.407,89.072,48.165z"/>
		<path fill-rule="evenodd" clip-rule="evenodd" fill="#6F3A1E" d="M103.826,49.308c1.324-1.505,7.601,1.294,9.851,0.812
			C112.591,49.776,102.367,45.373,103.826,49.308z"/>
	</g>
	<path fill-rule="evenodd" clip-rule="evenodd" fill="#FCF8DA" d="M111.845,49.384c-0.058-2.607-2.548-9.5-5.963-10.337
		c-3.463,5.385-21.729,7.495-24.764,7.479c1.875-1.432,3.114-3.415,3.885-5.527c-3.608,4.167-10.545,8.964-15.17,10.146
		l-0.565,23.049c-6.537-2.39-7.836-10.039-8.66-12.781c-9.204,15.569-30.158,9.244-29.149-2.605
		c11.915,11.699,18.48-15.1,17.585-29.195C48.679,20.95,58.91,9.837,67.696,7.251c8.783-2.583,24.192,0.029,26.539,7.362
		l7.984,5.483C115.062,24.98,116.001,40.63,111.845,49.384z"/>
	<path fill-rule="evenodd" clip-rule="evenodd" fill="#E74F69" d="M100.952,19.672c-14.087-1.267-37.675,5.069-39.645,19.183
		c-3.643-12.818,13.846-26.672,32.928-24.243c2.484,0.317,9.214,4.274,8.354,5.756L100.952,19.672z"/>
	<path fill-rule="evenodd" clip-rule="evenodd" fill="#ECE1B1" d="M84.058,45.62c10.7-0.89,25.232-5.036,25.408-15.917
		C107.909,39.5,93.7,44.05,84.058,45.62z"/>
	<path fill-rule="evenodd" clip-rule="evenodd" fill="#ECE1B1" d="M84.444,45.431c8.629-0.923,20.36-5.115,20.536-15.997
		C103.695,39.236,92.225,43.83,84.444,45.431z"/>
	<path fill-rule="evenodd" clip-rule="evenodd" fill="#FFCBA5" d="M61.813,46.127l-0.204,12.609c-1.05,0.414-6.738-2.869-6.65-8.36
		C55.019,46.708,57.764,43.581,61.813,46.127z"/>
	
		<ellipse transform="matrix(0.9999 0.0163 -0.0163 0.9999 0.9247 -0.9582)" fill-rule="evenodd" clip-rule="evenodd" fill="#3296A9" cx="59.278" cy="56.281" rx="1.109" ry="1.065"/>
	<path opacity="0.502" fill-rule="evenodd" clip-rule="evenodd" fill="#DDAD8C" d="M61.816,47.276
		c-2.531-1.54-4.95-0.442-5.431,1.186c-0.55,1.578,0.685,3.794,1.229,4.416c0.542,0.622,1.349-1.093,2.027-0.687
		c0.679,0.404,1.567,3.751,2.046,3.118C61.707,52.854,61.797,49.734,61.816,47.276z"/>
	<path fill-rule="evenodd" clip-rule="evenodd" d="M71.136,71.573"/>
	<g>
		<polygon fill-rule="evenodd" clip-rule="evenodd" fill="#20608C" points="120.104,128.177 123.965,140.986 125.191,140.986 
			127.562,133.879 129.445,134.125 134.108,141.803 135.417,141.558 138.525,128.569 		"/>
		<path fill-rule="evenodd" clip-rule="evenodd" fill="#3397AA" d="M119.598,115.592c0-0.71,0.453-1.522,0.938-2.006
			c0.481-0.485,1.253-0.9,1.96-0.9h17.278c0.705,0,1.47,0.574,2.039,1.134c0.567,0.563,1.133,1.62,1.367,2.242l0.312,3.931
			l-0.433,0.275l0.121,5.878c0,0.71-0.28,1.387-0.779,1.887s-1.177,0.782-1.882,0.782h-18.73c-0.706,0-1.381-0.282-1.881-0.782
			s-0.779-1.177-0.779-1.887L119.598,115.592z"/>
		<path fill-rule="evenodd" clip-rule="evenodd" fill="#FFCBA5" d="M121.951,116.709c-1.626,3.287-2.964,7.439-4.045,10.646
			c-0.622,0.706-1.878,0.355-1.528-0.748c1.162-3.549,2.665-7.869,4.123-10.559L121.951,116.709z"/>
		<path fill-rule="evenodd" clip-rule="evenodd" fill="#0F7D46" d="M121.597,118.106c-0.527-0.907-1.37-1.3-1.742-1.052
			c0.32-0.771,0.639-1.393,1.281-2.04c0.36-0.477,1.911-0.081,1.305,1.233L121.597,118.106z"/>
		<path fill-rule="evenodd" clip-rule="evenodd" fill="#7CC157" d="M121.684,114.922c-1.123,1.148-1.514,7.817-1.579,13.528
			c3.394,2.486,15.948,1.922,19.19-0.347c0.674-3.42,0.008-12.023-2.357-13.841C136.01,112.917,124.489,112.558,121.684,114.922z"/>
		<path opacity="0.102" fill-rule="evenodd" clip-rule="evenodd" d="M132.655,116.252v14.387l6.507-1.23
			c0.244-4.638,0.339-4.656-0.145-10.151l-1.54-4.678c-0.868-1.411-6.755-1.638-11.758-1.101c-2.223,0.095-3.754,1.025-4.386,1.707
			C126.354,114.592,131.786,115.851,132.655,116.252z"/>
		<path fill-rule="evenodd" clip-rule="evenodd" fill="#FFCBA5" d="M126.344,112.899l0.33,1.752l0.656,0.92l2.308-1.041
			c0.016-0.504-0.011-1.129,0.004-1.633L126.344,112.899z"/>
		<path fill-rule="evenodd" clip-rule="evenodd" fill="#FFCBA5" d="M136.316,116.229c0.796,3.619,1.482,8.037,1.729,11.44
			l1.667-0.442c-0.237-3.758-0.913-8.274-1.699-11.271L136.316,116.229z"/>
		<path fill-rule="evenodd" clip-rule="evenodd" fill="#0F7D46" d="M136.347,117.78c0.78-0.753,1.74-0.923,2.051-0.583
			c-0.121-0.835-0.275-1.527-0.755-2.329c-0.24-0.559-1.92-0.57-1.655,0.872L136.347,117.78z"/>
		<path fill-rule="evenodd" clip-rule="evenodd" fill="#164D57" d="M136.404,113.769c-0.252-0.446-1.726-0.659-2.294-0.049
			l0.825,7.146l0.484,1.65l2.37,6.892l0.607-0.317l-1.828-6.736l-1.348-8.235C135.157,113.715,136.195,113.702,136.404,113.769z"/>
		<path fill-rule="evenodd" clip-rule="evenodd" fill="#FFCBA5" d="M139.832,127.509l-1.587-5.345l0.122-1.224l-0.65-1.473
			l-1.588-0.16l-1.382,1.959l0.04,0.938l0.57,1.675l1.423-0.084l1.426,5.427c0.486,1.067,1.125,1.332,1.504,0.979
			C140.089,129.847,140.266,128.964,139.832,127.509z"/>
		<polygon fill-rule="evenodd" clip-rule="evenodd" fill="#333332" points="125.195,140.994 124.14,140.911 121.461,141.571 
			122.031,142.312 125.926,142.23 126.089,141.489 		"/>
		<polygon fill-rule="evenodd" clip-rule="evenodd" fill="#333332" points="134.263,141.545 135.422,141.378 138.482,142.541 
			137.489,143.203 133.685,142.953 133.602,141.959 		"/>
		<path fill-rule="evenodd" clip-rule="evenodd" fill="#164D57" d="M122.264,114.448c0.131-0.418,0.737-0.366,1.065-0.353
			c-0.104-0.392-0.961,2.389-1.578,3.682c-0.013,1.098-0.027,2.192-0.04,3.292l-1.697,6.853l-0.079-2.114l1.262-5.092
			c0.015-1.096-0.366-1.763-0.354-2.859C121.316,116.721,122.104,114.763,122.264,114.448z"/>
		<path fill-rule="evenodd" clip-rule="evenodd" fill="#FFCBA5" d="M118.527,127.128l2.527-5.414c0.252-0.15,1.013-0.237,1.261-0.67
			c0.251-0.434,0.245-1.473,0.236-1.923l-0.293-0.782l0.057-0.654l-0.669-0.372c-0.395,0.1-1.582,0.611-1.704,0.97
			c-0.123,0.356,0.373,1.195-0.195,2.588l-3.452,5.729c-0.225,0.222,0.232,1.699,0.604,1.787
			C117.271,128.476,117.96,128.259,118.527,127.128z"/>
		<path fill-rule="evenodd" clip-rule="evenodd" fill="#FFCBA5" d="M111.627,96.556c-3.876,6.357-0.292,9.811,4.017,12.523
			c8.834,5.086,18.469,5.444,20.967,4.628c2.5-0.812,4.933-2.597,5.675-3.929c7.637,0.002,10.867-9.736,4.41-9.099
			c0.809-2.939,4.032-4.793,0.437-8.537l-21.98-14.062c-5.42-1.138-3.93,0.691-6.17,3.037c-5.497,0.802-7.172,9.073-7.612,11.043
			C111.688,94.426,111.091,95.26,111.627,96.556z"/>
		<path fill-rule="evenodd" clip-rule="evenodd" fill="#D26335" d="M123.769,64.065c-5.662,1.108-14.151,15.782-9.496,20.468
			c1.784-2.144,5.744-0.495,8.368,2.145c3.071-0.104,15.725,1.044,18.705,4.007c4.276,3.758,1.491,9.684,0.893,12.2l-1.125,1.76
			l1.707,1.644l3.921-5.398l-4.226,9.084c8.754-6.445,11.346-14.208,12.301-19.557c0.956-5.347-0.85-11.117-6.565-12.527
			C143.78,71.538,122.385,73.372,123.769,64.065z"/>
		<path fill-rule="evenodd" clip-rule="evenodd" fill="#EC803A" d="M114.828,99.643c0.013-0.041,0.055-0.062,0.093-0.05
			c0.037,0.013,0.059,0.052,0.047,0.091c-0.014,0.037-0.055,0.061-0.091,0.049C114.836,99.718,114.816,99.678,114.828,99.643z"/>
		<circle fill-rule="evenodd" clip-rule="evenodd" fill="#EC803A" cx="115.29" cy="100.421" r="0.169"/>
		<path fill-rule="evenodd" clip-rule="evenodd" fill="#EC803A" d="M112.747,100.931c0.028-0.089,0.121-0.137,0.21-0.11
			c0.092,0.026,0.139,0.124,0.111,0.212c-0.028,0.089-0.123,0.138-0.212,0.109C112.768,101.114,112.718,101.02,112.747,100.931z"/>
		<path fill-rule="evenodd" clip-rule="evenodd" fill="#EC803A" d="M114.479,101.697c0.018-0.06,0.074-0.09,0.125-0.074
			c0.051,0.015,0.078,0.075,0.058,0.13c-0.018,0.061-0.072,0.093-0.123,0.076C114.487,101.813,114.461,101.753,114.479,101.697z"/>
		<circle fill-rule="evenodd" clip-rule="evenodd" fill="#EC803A" cx="122.951" cy="102.07" r="0.072"/>
		<circle fill-rule="evenodd" clip-rule="evenodd" fill="#EC803A" cx="123.796" cy="101.806" r="0.169"/>
		<path fill-rule="evenodd" clip-rule="evenodd" fill="#EC803A" d="M123.768,104.403c-0.08-0.046-0.109-0.15-0.062-0.231
			c0.044-0.08,0.149-0.108,0.228-0.062c0.083,0.048,0.111,0.148,0.065,0.229C123.952,104.422,123.85,104.451,123.768,104.403z"/>
		
			<ellipse transform="matrix(-0.4929 0.8701 -0.8701 -0.4929 275.9195 44.7736)" fill-rule="evenodd" clip-rule="evenodd" fill="#EC803A" cx="124.912" cy="102.793" rx="0.097" ry="0.11"/>
		<path fill-rule="evenodd" clip-rule="evenodd" fill="#F2A37D" d="M117.346,101.991c-0.392-0.006,0.45,0.879,0.98,1.05
			c0.53,0.166,2.104,0.336,2.2-0.038C119.363,102.46,117.497,101.753,117.346,101.991z"/>
		
			<ellipse transform="matrix(-0.9527 -0.3039 0.3039 -0.9527 203.6472 236.5244)" opacity="0.2" fill-rule="evenodd" clip-rule="evenodd" fill="#FFFFFF" cx="120.231" cy="102.413" rx="0.382" ry="0.255"/>
		<path fill-rule="evenodd" clip-rule="evenodd" fill="#FFCBA5" d="M146.361,100.702c-1.397,0.392-2.844,5.979-4.267,8.969
			c0.6,0.508,6.667-0.937,7.837-4.616C150.713,102.594,149.601,99.905,146.361,100.702z"/>
		<path opacity="0.502" fill-rule="evenodd" clip-rule="evenodd" fill="#DEAD8D" d="M146.056,101.471
			c2.001-0.461,3.342,0.796,3.297,1.979c0.011,1.161-1.289,2.354-1.784,2.646c-0.493,0.292-0.643-1.02-1.176-0.901
			c-0.536,0.12-1.859,2.136-2.032,1.611C144.892,105.178,145.525,103.098,146.056,101.471z"/>
		<path fill-rule="evenodd" clip-rule="evenodd" fill="#FFFFFF" d="M115.531,104.211c3.5,1.984,4.747,2.062,8.147,2.112
			c1.892,0.047,1.308,2.637,0.045,3.228c-2.828,0.408-6.788-0.136-8.977-2.497C113.586,105.455,113.925,103.262,115.531,104.211z"/>
		<path opacity="0.2" fill-rule="evenodd" clip-rule="evenodd" fill="#FFFFFF" d="M122.374,86.539
			c-8.454-8.717-4.654-16.88,0.964-22.81C117.964,71.506,118.059,82.283,122.374,86.539z"/>
		<path fill-rule="evenodd" clip-rule="evenodd" fill="#864927" d="M129.508,93.561c2.275-0.599,10.522,4.011,11.447,4.622
			C141.531,96.831,129.543,89.992,129.508,93.561z"/>
		<path fill-rule="evenodd" clip-rule="evenodd" fill="#FFFFFF" d="M125.581,101.241c-0.049-0.366-0.485-0.759-0.396-1.058
			c0.09-0.303,0.815-0.438,0.933-0.747c2.182-5.22,13.128-2.051,11.678,3.231C134.937,108.354,126.143,104.803,125.581,101.241z"/>
		
			<ellipse transform="matrix(-0.9531 -0.3025 0.3025 -0.9531 222.2263 235.3021)" fill-rule="evenodd" clip-rule="evenodd" fill="#859F56" cx="129.336" cy="100.44" rx="3.247" ry="3.037"/>
		<path fill-rule="evenodd" clip-rule="evenodd" fill="#F3D7E6" d="M125.37,99.976c-0.103-0.084-0.517,0.299-0.492,0.475
			c0.021,0.174,0.547,0.648,0.628,0.575C125.288,100.63,125.337,100.377,125.37,99.976z"/>
		
			<ellipse transform="matrix(-0.9529 -0.3032 0.3032 -0.9529 220.6747 235.1816)" opacity="0.102" fill-rule="evenodd" clip-rule="evenodd" fill="#FFFFFF" cx="128.593" cy="100.461" rx="2.037" ry="2.081"/>
		
			<ellipse transform="matrix(-0.953 -0.3029 0.3029 -0.953 222.2169 236.957)" opacity="0.102" fill-rule="evenodd" clip-rule="evenodd" fill="#FFFFFF" cx="129.483" cy="101.247" rx="1.443" ry="1.422"/>
		<circle opacity="0.2" fill-rule="evenodd" clip-rule="evenodd" fill="#FFFFFF" cx="130.822" cy="100.229" r="0.956"/>
		<circle fill-rule="evenodd" clip-rule="evenodd" cx="128.53" cy="99.973" r="0.997"/>
		<path fill-rule="evenodd" clip-rule="evenodd" fill="#864927" d="M126.3,99.021c2.861-5.401,9.89-1.248,11.08-0.222
			c1.668,1.402,1.392,2.884,1.234,3.276c-1.107,2.291-4.136,5.259-8.49,3.26c3.862,0.95,6.876-0.569,7.753-3.569
			C138.286,98.455,129.098,93.956,126.3,99.021z"/>
		<path fill-rule="evenodd" clip-rule="evenodd" fill="#864927" d="M118.859,90.449c-0.765-1.346-5.787-0.61-7.397-0.089
			C111.123,88.577,120.505,87.312,118.859,90.449z"/>
		<path fill-rule="evenodd" clip-rule="evenodd" fill="#FFFFFF" d="M117.479,97.935c-2.676,2.948-8.264,0.004-6.934-3.993
			c1.467-4.279,7.816-0.941,7.299,3.222C117.945,97.453,117.98,98.104,117.479,97.935z"/>
		<path fill-rule="evenodd" clip-rule="evenodd" fill="#F3D7E6" d="M117.961,97.431c0.096-0.013,0.15,0.461,0.058,0.579
			c-0.093,0.117-0.602,0.227-0.612,0.135C117.708,97.952,117.796,97.744,117.961,97.431z"/>
		<circle fill-rule="evenodd" clip-rule="evenodd" fill="#859F56" cx="112.824" cy="94.922" r="2.355"/>
		
			<ellipse transform="matrix(-0.953 -0.3028 0.3028 -0.953 191.444 219.2299)" opacity="0.102" fill-rule="evenodd" clip-rule="evenodd" fill="#FFFFFF" cx="112.719" cy="94.772" rx="1.316" ry="1.401"/>
		
			<ellipse transform="matrix(-0.9529 -0.3032 0.3032 -0.9529 192.2852 220.3746)" opacity="0.102" fill-rule="evenodd" clip-rule="evenodd" fill="#FFFFFF" cx="113.249" cy="95.262" rx="0.912" ry="0.998"/>
		<path opacity="0.2" fill-rule="evenodd" clip-rule="evenodd" fill="#FFFFFF" d="M113.595,94.401
			c0.104-0.322,0.439-0.506,0.753-0.405c0.312,0.1,0.482,0.442,0.38,0.767c-0.104,0.324-0.438,0.507-0.753,0.404
			C113.662,95.071,113.491,94.728,113.595,94.401z"/>
		
			<ellipse transform="matrix(-0.9531 -0.3028 0.3028 -0.9531 190.8193 218.9166)" fill-rule="evenodd" clip-rule="evenodd" cx="112.379" cy="94.667" rx="0.764" ry="0.828"/>
		<path fill-rule="evenodd" clip-rule="evenodd" fill="#864927" d="M117.546,95.138c-1.302-2.642-4.193-3.397-5.758-2.459
			c-2.207,1.487-1.073,5.007,0.915,6.123c-2.319-1.224-2.487-3.476-2.411-4.77C110.61,90.616,116.008,91.258,117.546,95.138z"/>
	</g>
	<path fill-rule="evenodd" clip-rule="evenodd" fill="#755B9F" d="M77.299,75.333c0.216,2.116-3.493,7.143-1.306,11.86"/>
	<g>
		<path fill-rule="evenodd" clip-rule="evenodd" fill="#407AB5" d="M84.623,57.519c1.259-1.189,1.324-3.178,0.138-4.443
			c-1.177-1.264-3.15-1.327-4.41-0.144c-1.261,1.19-1.322,3.177-0.139,4.441c0.139,0.151,0.29,0.288,0.46,0.407L84.623,57.519z"/>
		<path fill-rule="evenodd" clip-rule="evenodd" fill="#EACCE0" d="M88.899,54.218c0.155-0.059,0.49,0.542,0.395,0.736
			c-0.098,0.195-0.899,0.531-0.963,0.413C88.74,55,88.783,54.687,88.899,54.218z"/>
		<path opacity="0.102" fill-rule="evenodd" clip-rule="evenodd" fill="#FFFFFF" d="M84.816,55.054
			c0.021-1.344-1.041-2.449-2.372-2.47c-1.327-0.021-2.424,1.049-2.446,2.392c-0.021,1.345,1.04,2.449,2.367,2.471
			C83.697,57.468,84.795,56.399,84.816,55.054z"/>
		<path opacity="0.102" fill-rule="evenodd" clip-rule="evenodd" fill="#FFFFFF" d="M82.838,55.586
			c0.015-0.938-0.735-1.706-1.667-1.72c-0.939-0.015-1.713,0.728-1.728,1.667c-0.014,0.939,0.734,1.713,1.674,1.729
			C82.049,57.275,82.822,56.526,82.838,55.586z"/>
		<path opacity="0.2" fill-rule="evenodd" clip-rule="evenodd" fill="#FFFFFF" d="M82.525,53.949c0.01-0.613-0.485-1.12-1.109-1.129
			c-0.628-0.011-1.138,0.479-1.148,1.092c-0.009,0.614,0.485,1.121,1.112,1.13C82.004,55.052,82.516,54.563,82.525,53.949z"/>
		<path fill-rule="evenodd" clip-rule="evenodd" fill="#F7B27B" d="M88.427,55.72c-4.102,4.028-9.638,2.704-11.563,1.401
			C79.128,57.626,84.005,58.306,88.427,55.72z"/>
		
			<ellipse transform="matrix(0.9999 0.0162 -0.0162 0.9999 0.9103 -1.726)" opacity="0.102" fill-rule="evenodd" clip-rule="evenodd" fill="#FFFFFF" cx="106.751" cy="55.199" rx="1.654" ry="1.633"/>
		<path opacity="0.102" fill-rule="evenodd" clip-rule="evenodd" fill="#FFFFFF" d="M107.063,55.559
			c0.011-0.638-0.497-1.163-1.136-1.174c-0.639-0.01-1.161,0.499-1.171,1.137c-0.012,0.632,0.495,1.163,1.133,1.174
			C106.529,56.706,107.054,56.191,107.063,55.559z"/>
		
			<ellipse transform="matrix(0.9999 0.0162 -0.0162 0.9999 0.8939 -1.6924)" opacity="0.2" fill-rule="evenodd" clip-rule="evenodd" fill="#FFFFFF" cx="105.109" cy="54.436" rx="0.755" ry="0.731"/>
		<path fill-rule="evenodd" clip-rule="evenodd" d="M107.145,55.746c0.011-0.601-0.472-1.096-1.073-1.105
			c-0.604-0.009-1.095,0.47-1.104,1.071c-0.008,0.606,0.467,1.1,1.068,1.109C106.638,56.83,107.135,56.352,107.145,55.746z"/>
		<path fill-rule="evenodd" clip-rule="evenodd" d="M83.965,55.709c0.011-0.718-0.556-1.31-1.273-1.321
			c-0.721-0.012-1.31,0.561-1.322,1.279c-0.011,0.718,0.561,1.31,1.28,1.321C83.367,56.999,83.954,56.428,83.965,55.709z"/>
		<path fill-rule="evenodd" clip-rule="evenodd" fill="#F7B27B" d="M108.563,57.283c-3.564,0.551-5.217-0.433-7.216-1.647
			C101.673,56.79,105.248,59.051,108.563,57.283z"/>
		<path opacity="0.6" fill-rule="evenodd" clip-rule="evenodd" fill="#FFFFFF" d="M106.176,55.651
			c0.006-0.327-0.247-0.596-0.57-0.601c-0.327-0.006-0.596,0.254-0.601,0.581c-0.006,0.324,0.255,0.585,0.581,0.591
			C105.91,56.228,106.171,55.976,106.176,55.651z"/>
		<path opacity="0.6" fill-rule="evenodd" clip-rule="evenodd" fill="#FFFFFF" d="M83.051,55.251
			c0.006-0.354-0.291-0.649-0.658-0.654c-0.369-0.006-0.674,0.278-0.68,0.632c-0.005,0.365,0.291,0.659,0.659,0.664
			C82.739,55.899,83.045,55.616,83.051,55.251z"/>
		<path fill-rule="evenodd" clip-rule="evenodd" fill="#231F1F" d="M108.325,53.657c0.88-1.697,3.442-1.794,4.479-2.606
			c-0.071,0.435-0.289,0.875-0.482,1.1l1.288-0.053c-0.163,0.478-0.632,0.891-0.906,1.129l0.769-0.02
			c-0.116,0.514-1.403,1.584-2.733,1.847c0.802-0.359,1.058-0.904,0.999-2.018C111.542,52.409,109.593,52.087,108.325,53.657z"/>
		<path fill-rule="evenodd" clip-rule="evenodd" fill="#231F1F" d="M79.475,52.322c-1.278-3.06-5.541-3.489-7.183-5.014
			c0.074,0.768,0.388,1.562,0.686,1.973l-2.145-0.222c0.219,0.849,0.956,1.619,1.386,2.063l-1.28-0.111
			c0.136,0.913,2.163,2.916,4.354,3.51c-1.298-0.71-1.666-1.69-1.443-3.63C74.248,49.813,77.536,49.445,79.475,52.322z"/>
		<path fill="#231F1F" d="M110.838,51.656c0,0-7.321-2.359-9.319,3.785l0.457,0.621l6.002,1.291
			C107.978,57.353,114.761,55.322,110.838,51.656z"/>
		<path fill="#231F1F" d="M79.669,57.486c-2.541,0.476-10.653-4.952-4.747-8.124c0,0,10.527-4.1,14.086,5.559
			C89.009,54.921,79.762,57.527,79.669,57.486z"/>
		<path fill-rule="evenodd" clip-rule="evenodd" fill="#FFFFFF" d="M89.135,54.948c-3.246-6.823-14.89-7.234-15.329-2.565
			C74.889,58.632,83.946,59.138,89.135,54.948z"/>
		<g>
			<defs>
				<path id="SVGID_13_" d="M89.135,54.948c-3.246-6.823-14.89-7.234-15.329-2.565C74.889,58.632,83.946,59.138,89.135,54.948z"/>
			</defs>
			<clipPath id="SVGID_14_">
				<use xlink:href="#SVGID_13_"  overflow="visible"/>
			</clipPath>
			<g clip-path="url(#SVGID_14_)">
				<path fill-rule="evenodd" clip-rule="evenodd" fill="#3592C9" d="M84.973,57.423c1.129-1.067,1.186-2.85,0.125-3.981
					c-1.055-1.135-2.825-1.193-3.955-0.133c-1.129,1.068-1.185,2.85-0.124,3.983c0.125,0.136,0.26,0.259,0.411,0.365L84.973,57.423z
					"/>
				<path opacity="0.102" fill-rule="evenodd" clip-rule="evenodd" fill="#FFFFFF" d="M85.147,55.213
					c0.02-1.205-0.934-2.196-2.127-2.215c-1.189-0.019-2.172,0.94-2.191,2.146c-0.019,1.205,0.932,2.195,2.12,2.214
					C84.144,57.377,85.128,56.418,85.147,55.213z"/>
				<path opacity="0.102" fill-rule="evenodd" clip-rule="evenodd" fill="#FFFFFF" d="M83.374,55.691
					c0.013-0.841-0.659-1.53-1.496-1.543c-0.841-0.013-1.533,0.653-1.548,1.495c-0.013,0.841,0.659,1.535,1.5,1.549
					C82.666,57.204,83.359,56.533,83.374,55.691z"/>
				<path opacity="0.2" fill-rule="evenodd" clip-rule="evenodd" fill="#FFFFFF" d="M83.092,54.223
					c0.009-0.549-0.432-1.004-0.994-1.013s-1.021,0.431-1.03,0.981c-0.008,0.55,0.436,1.002,0.997,1.012
					C82.628,55.212,83.083,54.773,83.092,54.223z"/>
				<path fill-rule="evenodd" clip-rule="evenodd" d="M84.384,55.801c0.011-0.644-0.5-1.174-1.141-1.184
					c-0.646-0.01-1.175,0.502-1.185,1.147c-0.011,0.643,0.501,1.173,1.147,1.183C83.847,56.958,84.373,56.444,84.384,55.801z"/>
				<path opacity="0.6" fill-rule="evenodd" clip-rule="evenodd" fill="#FFFFFF" d="M83.672,55.367
					c0.005-0.318-0.26-0.582-0.588-0.587c-0.331-0.006-0.604,0.25-0.608,0.569c-0.005,0.325,0.258,0.587,0.589,0.593
					C83.393,55.947,83.666,55.694,83.672,55.367z"/>
			</g>
		</g>
		<path fill-rule="evenodd" clip-rule="evenodd" fill="#FFFFFF" d="M101.503,55.447c2.037,3.559,10.327,2.569,9.495-2.127
			C110.316,50.624,102.974,51.673,101.503,55.447z"/>
		<g>
			<defs>
				<path id="SVGID_15_" d="M101.503,55.447c2.037,3.559,10.327,2.569,9.495-2.127C110.316,50.624,102.974,51.673,101.503,55.447z"
					/>
			</defs>
			<clipPath id="SVGID_16_">
				<use xlink:href="#SVGID_15_"  overflow="visible"/>
			</clipPath>
			<g clip-path="url(#SVGID_16_)">
				<path fill-rule="evenodd" clip-rule="evenodd" fill="#3592C9" d="M106.937,57.876c1.062-0.83,1.259-2.373,0.434-3.449
					c-0.823-1.073-2.359-1.27-3.426-0.44c-0.989,0.771-1.234,2.17-0.58,3.243L106.937,57.876z"/>
				<path opacity="0.102" fill-rule="evenodd" clip-rule="evenodd" fill="#FFFFFF" d="M107.472,55.573
					c0.015-0.806-0.634-1.473-1.456-1.486c-0.818-0.014-1.495,0.632-1.509,1.439c-0.013,0.809,0.644,1.475,1.462,1.489
					C106.79,57.027,107.46,56.382,107.472,55.573z"/>
				<path opacity="0.102" fill-rule="evenodd" clip-rule="evenodd" fill="#FFFFFF" d="M106.27,55.875
					c0.01-0.573-0.446-1.043-1.018-1.054c-0.573-0.009-1.041,0.448-1.051,1.021c-0.01,0.566,0.444,1.042,1.016,1.051
					C105.789,56.902,106.261,56.44,106.27,55.875z"/>
				<path opacity="0.2" fill-rule="evenodd" clip-rule="evenodd" fill="#FFFFFF" d="M105.196,54.878
					c0.005-0.364-0.292-0.66-0.668-0.665c-0.372-0.007-0.681,0.279-0.688,0.643c-0.006,0.362,0.295,0.664,0.667,0.67
					C104.883,55.532,105.19,55.24,105.196,54.878z"/>
				<path fill-rule="evenodd" clip-rule="evenodd" d="M106.343,56.042c0.008-0.538-0.424-0.982-0.962-0.99
					c-0.541-0.009-0.981,0.42-0.99,0.959c-0.009,0.544,0.419,0.985,0.958,0.994S106.334,56.585,106.343,56.042z"/>
				<path opacity="0.6" fill-rule="evenodd" clip-rule="evenodd" fill="#FFFFFF" d="M105.752,55.73
					c0.005-0.292-0.223-0.533-0.513-0.538c-0.293-0.004-0.534,0.229-0.539,0.521c-0.004,0.291,0.23,0.525,0.523,0.529
					C105.514,56.247,105.748,56.021,105.752,55.73z"/>
			</g>
		</g>
		<path fill-rule="evenodd" clip-rule="evenodd" fill="#EACCE0" d="M101.68,54.903c-0.103-0.072-0.422,0.429-0.377,0.616
			c0.036,0.178,0.562,0.576,0.627,0.478C101.684,55.623,101.697,55.338,101.68,54.903z"/>
		<path fill-rule="evenodd" clip-rule="evenodd" fill="#EACCE0" d="M89.141,54.326c0.156-0.059,0.49,0.542,0.395,0.737
			c-0.096,0.194-0.899,0.531-0.963,0.414C88.982,55.11,89.024,54.795,89.141,54.326z"/>
	</g>
	<path fill-rule="evenodd" clip-rule="evenodd" fill="#FFCBA5" d="M80.921,72.565l3.089-0.208l0.07-1.694h6.223l-0.042,2.257
		l2.476,0.468c0,0-2.839,4.623-7.594,6.042C85.143,79.43,82.41,76.887,80.921,72.565z"/>
	<path fill-rule="evenodd" clip-rule="evenodd" fill="#404041" d="M84.961,134.002c0,0.153-0.125,0.275-0.278,0.275h-0.458
		c-0.154,0-0.279-0.122-0.279-0.275l0,0c0-0.154,0.125-0.278,0.279-0.278h0.458C84.836,133.724,84.961,133.848,84.961,134.002
		L84.961,134.002z"/>
	<path fill-rule="evenodd" clip-rule="evenodd" fill="#404041" d="M84.961,134.623c0,0.153-0.125,0.277-0.278,0.277h-0.458
		c-0.154,0-0.279-0.124-0.279-0.277l0,0c0-0.155,0.125-0.279,0.279-0.279h0.458C84.836,134.344,84.961,134.468,84.961,134.623
		L84.961,134.623z"/>
	<path fill-rule="evenodd" clip-rule="evenodd" fill="#404041" d="M98.229,134.238c0,0.208-0.169,0.378-0.378,0.378h-0.626
		c-0.21,0-0.38-0.17-0.38-0.378l0,0c0-0.213,0.17-0.381,0.38-0.381h0.626C98.06,133.857,98.229,134.025,98.229,134.238
		L98.229,134.238z"/>
	<path fill-rule="evenodd" clip-rule="evenodd" fill="#404041" d="M98.229,135.079c0,0.21-0.169,0.381-0.378,0.381h-0.626
		c-0.21,0-0.38-0.171-0.38-0.381l0,0c0-0.208,0.17-0.379,0.38-0.379h0.626C98.06,134.7,98.229,134.871,98.229,135.079
		L98.229,135.079z"/>
	<path fill-rule="evenodd" clip-rule="evenodd" fill="#535352" d="M102.94,103.689c-6.151,4.027-22.429,7.025-29.292,1.331
		l0.283-2.687c0,0,12.521,6.844,28.369-1.904"/>
	<circle fill-rule="evenodd" clip-rule="evenodd" fill="#404041" cx="93.862" cy="105.32" r="0.55"/>
	<circle fill-rule="evenodd" clip-rule="evenodd" fill="#404041" cx="97.068" cy="104.378" r="0.55"/>
	<circle fill-rule="evenodd" clip-rule="evenodd" fill="#404041" cx="99.8" cy="103.278" r="0.55"/>
	<path fill-rule="evenodd" clip-rule="evenodd" fill="#404041" d="M88.192,104.903h-3.104c-0.766,0-1.386,0.729-1.386,1.625
		c0,0.899,0.621,1.627,1.386,1.627h3.104c0.766,0,1.386-0.728,1.386-1.627C89.578,105.632,88.958,104.903,88.192,104.903z
		 M87.805,107.751h-2.329c-0.577,0-1.042-0.547-1.042-1.223c0-0.673,0.465-1.22,1.042-1.22h2.329c0.576,0,1.042,0.547,1.042,1.22
		C88.847,107.204,88.381,107.751,87.805,107.751z"/>
	<g>
		<path fill-rule="evenodd" clip-rule="evenodd" fill="#E55069" d="M64.642,97.98c-1.655,3.504,0.187,9.138,1.335,10.798
			l4.778,0.812l1.198-1.894l6.602,2.665l6.922,1.997c2.575,1.911,4.009-0.699,3.652-2.217l-1.453-6.106l2.126-2.819l6.635-1.047
			c1.854-0.427,1.596-3.347-0.14-3.56c-1.649-1.263-3.379-1.974-4.953-3.785c-1.424-1.904-4.796-3.84-6.588-4.013
			c-0.67-0.099-0.162-1.259-0.388-2.012c-0.23-0.716-3.639-1.103-5.869,0.007l-2.594,0.96C73.006,90.001,66.296,94.478,64.642,97.98
			z"/>
		<path fill-rule="evenodd" clip-rule="evenodd" fill="#BFB0CC" d="M64.423,98.048l2.736-0.56c2.538,2.4,4.325,6.509,4.46,8.81
			l-0.719,3.147l-5.176-0.467C63.78,105.552,63.062,102.96,64.423,98.048z"/>
		<path fill-rule="evenodd" clip-rule="evenodd" fill="#FDDBC4" d="M66.021,108.792c-0.798,0.466-0.704,2.987-0.033,3.521
			c0.668,0.533,3.251,0.138,4.051-0.326c0.797-0.463,1.406-1.925,0.735-2.457C69.348,108.874,67.777,108.641,66.021,108.792z"/>
		<path fill-rule="evenodd" clip-rule="evenodd" fill="#333332" d="M89.441,110.513c-0.329-0.473-2.624-0.576-3.341-0.086
			c-0.717,0.492-1.293,2.566-0.963,3.038c0.329,0.471,2.221,0.28,2.94-0.211C88.792,112.764,89.771,110.981,89.441,110.513z"/>
		<path fill-rule="evenodd" clip-rule="evenodd" fill="#333332" d="M98.296,96.737c-0.485-0.31-2.646,0.474-3.12,1.203
			c-0.474,0.73-0.209,2.864,0.276,3.174c0.485,0.309,2.159-0.592,2.634-1.323C98.559,99.062,98.779,97.045,98.296,96.737z"/>
		<path fill-rule="evenodd" clip-rule="evenodd" fill="#BFB0CC" d="M78.112,87.638c2.172-0.129,4.299,0.202,6.544,1.028
			l-0.247-1.987c-0.641-0.692-3.663-0.935-5.94,0.165L78.112,87.638z"/>
		<path fill-rule="evenodd" clip-rule="evenodd" fill="#FDDBC4" d="M82.627,86.281c-0.963,0.131-2.127,1.686-2.195,2.118
			c-0.069,0.432,1.363-0.077,1.785,0.474c0.413,0.735,0.191,2.459,0.752,2.836c0.557,0.381,2.062,0.121,2.602-0.566
			c0.539-0.682,1.126-2.729,0.634-3.538C85.715,86.795,83.604,86.382,82.627,86.281z"/>
		<g>
			<path fill-rule="evenodd" clip-rule="evenodd" fill="#F8D7C1" d="M63.703,74.188c3.794-0.479,7.08,3.535,9.437,5.063
				c2.358,1.528,3.855,0.473,4.707,4.109c0.853,3.636-1.779,8.161-4.474,10.562c-3.833,3.226-9.38,4.077-12.876,3.905
				c-3.495-0.171-6.984-2.08-8.09-4.939c-1.242-2.945-3.943-6.646-2.028-10.759C52.271,77.66,59.907,74.67,63.703,74.188z"/>
			<path fill-rule="evenodd" clip-rule="evenodd" fill="#515352" d="M73.191,79.436c-0.647,0.318-2.59,1.694-3.463,2.903
				c-0.21-0.258-0.272-0.381-0.212-0.794c0.593-1.326,2.158-2.15,2.671-2.456C72.702,78.925,73.102,79.154,73.191,79.436z"/>
			<path fill-rule="evenodd" clip-rule="evenodd" fill="#515352" d="M64.091,86.238c-1.422,0.234-5.059,2.11-5.175,2.901
				c-0.069,0.572,0.265,1.199,0.697,0.825c1.901-1.52,3.635-2.514,5.227-3.179C65.301,86.694,64.738,86.187,64.091,86.238z"/>
			<path fill-rule="evenodd" clip-rule="evenodd" fill="#E1A174" d="M69.886,88.372c-0.413-0.425,0.98-0.992,1.56-1.595
				c0.581-0.603,0.769-1.41,1.233-1.504c0.438,0.188,0.134,1.138-0.443,1.818C71.662,87.774,70.223,88.844,69.886,88.372z"/>
			<path fill-rule="evenodd" clip-rule="evenodd" fill="#F8AB74" d="M61.75,91.39c-0.877-0.245-1.369,1.59-0.959,2.137
				c0.409,0.551,2.194,1.858,3.415,1.157c1.22-0.699,1.332-1.608,1.109-2.691c-0.136-0.86-0.714-1.082-1.671-0.936
				c-0.959,0.147-1.288,0.818-1.39,1.207c-0.104,0.39,0.475,1.05,0.768,1.133c0.292,0.081,1.176-0.216,0.989-0.641
				c-0.187-0.423-0.676,0.15-0.856,0.064c-0.182-0.084-0.363-0.39-0.231-0.575c0.131-0.185,0.735-0.544,1.018-0.533
				c0.279,0.009,0.653,0.21,0.667,0.595c0.014,0.384,0.312,1.271-0.585,1.71c-0.895,0.44-2.24-0.358-2.618-0.797
				C61.027,92.782,61.503,91.85,61.75,91.39z"/>
			<path fill-rule="evenodd" clip-rule="evenodd" fill="#F8AB74" d="M74.702,80.629c0.007-0.603,1.74-0.024,2.119,0.456
				c0.376,0.484,1.071,2.087,0.148,2.442c-0.924,0.355-1.747-0.003-2.641-0.632c-0.721-0.473-0.771-0.896-0.397-1.362
				c0.374-0.467,1.043-0.341,1.41-0.217c0.368,0.124,0.8,0.751,0.798,0.953c-0.002,0.202-0.486,0.556-0.812,0.254
				c-0.323-0.301,0.304-0.306,0.276-0.446c-0.028-0.142-0.251-0.384-0.447-0.396c-0.196-0.013-0.664,0.158-0.725,0.321
				c-0.063,0.159,0.018,0.46,0.352,0.646c0.333,0.188,1.035,0.765,1.647,0.468c0.613-0.295,0.253-1.415-0.035-1.83
				C76.106,80.873,75.167,80.708,74.702,80.629z"/>
			<path fill-rule="evenodd" clip-rule="evenodd" fill="#F8D7C1" d="M53.571,93c-0.615,0.245-1.923,0.233-1.847,0.739
				c0.074,0.502,1.619,1.98,2.298,2.283c0.678,0.303,1.404-0.367,1.774-0.463"/>
			<path fill-rule="evenodd" clip-rule="evenodd" fill="#F1A37D" d="M56.812,78.812c0.978-0.388,3.054-1.563,2.837-2.225
				c-0.216-0.66-3.62-0.851-4.133-1.741c-0.511-0.893-0.489-1.497,0.737-1.889c-1.489-0.869-2.616,0.392-3.027,1.386
				c-0.413,0.994-0.045,3.832,0.553,4.578C54.375,79.668,55.833,79.202,56.812,78.812z"/>
		</g>
	</g>
	<path fill-rule="evenodd" clip-rule="evenodd" fill="#FFCBA5" d="M81.784,110.03c0.154-0.256-0.812-0.494-0.984-0.97
		c0.03-0.399,0.586-0.934,0.356-1.487c-0.229-0.552-1.486-1.585-2.292-1.776c-0.807-0.19-1.801,0.719-2.545,0.634
		c-0.734,0.052-1.242-1.353-1.919-1.138c-0.677,0.217-1.697,1.779-2.14,2.435l0.687,1.655l1.547,0.92l4.019,0.294
		C78.512,110.597,81.06,111.544,81.784,110.03z"/>
</g>
</svg>
