<?xml version="1.0" encoding="utf-8"?>
<!-- Generator: Adobe Illustrator 15.1.0, SVG Export Plug-In . SVG Version: 6.00 Build 0)  -->
<!DOCTYPE svg PUBLIC "-//W3C//DTD SVG 1.1//EN" "http://www.w3.org/Graphics/SVG/1.1/DTD/svg11.dtd">
<svg version="1.1" id="Calque_1" xmlns="http://www.w3.org/2000/svg" xmlns:xlink="http://www.w3.org/1999/xlink" x="0px" y="0px"
	 width="400px" height="150px" viewBox="0 0 400 150" enable-background="new 0 0 400 150" xml:space="preserve">
<rect x="-0.5" y="-8" fill="#56E6F3" width="400" height="158.5"/>
<polygon fill="#4ADEEB" points="-1.5,85.932 399.5,28.012 399.5,150.5 -1.5,150.5 "/>
<g>
	<g>
		<g>
			<defs>
				<rect id="SVGID_1_" x="-5.5" y="15.5" width="92" height="118"/>
			</defs>
			<clipPath id="SVGID_2_">
				<use xlink:href="#SVGID_1_"  overflow="visible"/>
			</clipPath>
			<g clip-path="url(#SVGID_2_)">
				<path fill="#B2F5FF" d="M54.927,167.917L-81.368,163.7l2.526-125.614c16.017-8.711,25.012,6.182,25.012,6.182
					c0-3.373,4.216-9.557,13.49-10.398c9.274-0.841,14.332,12.085,14.332,12.085s14.053-14.331,24.729,0.843
					c10.681,15.174-5.62,25.574-5.62,25.574s12.364-7.025,19.393-0.844c7.024,6.183,2.807,16.861,2.807,16.861
					c1.97-1.97,18.269-8.147,25.012-1.125c6.748,7.024,0.844,17.144,0.844,17.144c18.268-0.281,15.454,16.579,15.454,16.579
					L54.927,167.917z"/>
				<path fill="none" stroke="#FFFFFF" stroke-width="0.25" stroke-miterlimit="10" d="M-76.649,35.98
					c16.02-8.711,25.012,6.182,25.012,6.182c0-3.371,4.212-9.554,13.488-10.397c9.272-0.843,14.334,12.085,14.334,12.085
					s14.05-14.332,24.729,0.842c10.681,15.176-5.617,25.574-5.617,25.574s12.361-7.025,19.387-0.843
					c7.024,6.183,2.812,16.859,2.812,16.859c1.968-1.968,18.267-8.148,25.01-1.123C49.25,92.184,43.35,102.3,43.35,102.3
					c18.268-0.278,15.455,16.584,15.455,16.584l-1.687,46.931L-79.177,161.6"/>
			</g>
		</g>
	</g>
</g>
<rect x="-0.5" y="115.5" fill="#649C46" width="400" height="35"/>
<g>
	<path opacity="0.56" fill="#FEFA7C" enable-background="new    " d="M166.578,5.838c8.918,0,16.146,7.229,16.146,16.146
		c0,8.918-7.229,16.146-16.146,16.146s-16.146-7.229-16.146-16.146S157.661,5.838,166.578,5.838z"/>
	<path fill="#FEFA7C" d="M166.578,9.613c6.833,0,12.372,5.539,12.372,12.371c0,6.833-5.539,12.372-12.372,12.372
		s-12.372-5.539-12.372-12.372C154.206,15.152,159.745,9.613,166.578,9.613z"/>
</g>
<rect x="-1.5" y="117.818" fill="#7DC256" stroke="#649C46" stroke-width="0.25" stroke-miterlimit="10" width="403.458" height="32.733"/>
<g>
	<path fill="#FFCBA5" d="M79.874,87.212l2.173-1.763c0.673-0.204,1.412-0.301,1.893-0.069c0.488,0.228,0.186,1.093,1.023,1.427
		c0.617,0.649,1.026,2.207,0.85,2.87c-0.181,0.664-0.921,0.741-1.924,1.111c-3.658,1.348-4.767-0.373-5.641-1.379"/>
	<g>
		<path fill="#FFCBA5" d="M83.477,91.182c-2.283,0.56-12.896-1.312-15.521-2.229c-2.625-0.911-7.78-6.668-10.086-9.71
			c-1.924-2.345-0.119-5.062,0.594-4.209l10.88,11.345c6.893,0.771,4.575,1.255,11.597,1.169
			C80.94,87.547,84.733,90.875,83.477,91.182z"/>
		<g>
			<path fill="#62401F" d="M24.418,35.953c0,0-15.683,29.927,7.03,41.988c0,0-5.117-4.053-7.986-12.252
				c0,0,4.822,10.815,13.55,12.728l7.759,0.108c0,0-8.502,2.365-9.406-18.146C35.364,60.379,23.617,64.398,24.418,35.953z"/>
			<path fill="#442F18" d="M28.134,47.047c0,0-2.88,27.62,14.372,32.143l4.521-17.248C47.027,61.941,32.135,45.312,28.134,47.047z"
				/>
			<path fill="#62401F" d="M70.408,37.408c0,0,17.374,11.904-3.08,42.145c0,0,2.675-3.705,5.772-11.82
				c-0.042,0.169-1.738,10.315-11.349,12.138l-7.76-0.109c0,0,2.835,3.424,4.319-17.051C58.311,62.71,70.408,65.866,70.408,37.408z"
				/>
			<path fill="#442F18" d="M63.012,55.824c0,0,2.097,27.689-15.273,31.723l-4.034-17.368C43.705,70.179,59.059,53.978,63.012,55.824
				z"/>
			<path fill="#FFCBA5" d="M74.028,56.25c0.341,6.835-1.967,11.489-8.56,14.776c-13.327,4.075-25.305-0.203-30.28-2.993
				c-7.794-5.026-9.344-19.015-6.503-29.142c11.194-4.006,18.568-10.624,33.588-12.013c7.432,2.945,10.699,9.915,12.341,17.017
				C75.666,48.752,74.152,52.388,74.028,56.25z"/>
			<path fill="#FFCBA5" d="M65.26,61.007c-0.93-1.006-1.408-3.976-1.845-3.101c-0.439,1.547-3.876,1.999-2.5,3.541L65.26,61.007z"/>
			<path fill="#DDAD8C" d="M69.503,58.685c-0.008-0.055-0.054-0.095-0.107-0.091c-0.057,0.004-0.095,0.051-0.093,0.106
				c0.006,0.055,0.054,0.095,0.107,0.091C69.466,58.785,69.506,58.738,69.503,58.685z"/>
			<path fill="#DDAD8C" d="M68.858,59.551c-0.009-0.124-0.118-0.221-0.248-0.207c-0.129,0.008-0.222,0.119-0.209,0.248
				c0.007,0.126,0.119,0.22,0.247,0.21C68.775,59.794,68.872,59.68,68.858,59.551z"/>
			<path fill="#DDAD8C" d="M71.867,61.027c-0.01-0.127-0.12-0.22-0.25-0.21c-0.124,0.01-0.222,0.121-0.208,0.248
				c0.009,0.128,0.121,0.223,0.247,0.213C71.783,61.267,71.879,61.156,71.867,61.027z"/>
			<path fill="#DDAD8C" d="M69.319,61.536c-0.005-0.082-0.072-0.144-0.145-0.136c-0.068,0.005-0.124,0.077-0.118,0.159
				c0.007,0.083,0.072,0.144,0.143,0.137C69.273,61.689,69.326,61.618,69.319,61.536z"/>
			<circle fill="#DDAD8C" cx="57.57" cy="61.076" r="0.099"/>
			<circle fill="#DDAD8C" cx="57.062" cy="60.061" r="0.231"/>
			<path fill="#DDAD8C" d="M54.504,62.495c0.122,0.041,0.252-0.028,0.292-0.151c0.038-0.12-0.031-0.249-0.15-0.288
				c-0.125-0.04-0.254,0.028-0.291,0.152C54.317,62.329,54.385,62.458,54.504,62.495z"/>
			<path fill="#DDAD8C" d="M55.005,59.937c0.077,0.024,0.161-0.011,0.181-0.079c0.024-0.071-0.023-0.148-0.103-0.172
				c-0.077-0.027-0.159,0.012-0.182,0.082C54.88,59.835,54.928,59.914,55.005,59.937z"/>
			<path fill="#F1D6E6" d="M53.178,56.647c0.144-0.068,0.511,0.461,0.439,0.65c-0.069,0.188-0.795,0.581-0.868,0.478
				C53.103,57.393,53.113,57.1,53.178,56.647z"/>
			
				<ellipse transform="matrix(-0.9966 0.0826 -0.0826 -0.9966 97.3815 112.6682)" opacity="0.102" fill="#FFFFFF" enable-background="new    " cx="46.361" cy="58.348" rx="1.635" ry="1.616"/>
			<path fill="#F1A37D" d="M65.341,61.115c0.519,0.107-0.868,1.001-1.624,1.062c-0.756,0.066-2.893-0.178-2.904-0.688
				C62.522,61.132,65.21,60.764,65.341,61.115z"/>
			<path fill="#654B26" d="M52.337,49.92c-2.154-1.563-10.688,0.758-13.991,0.141C39.839,49.794,53.769,46.161,52.337,49.92z"/>
			<path fill="#FFBF91" d="M52.752,58.047c-3.613,4.142-9.005,3.312-10.944,2.226C44.014,60.574,48.724,60.846,52.752,58.047z"/>
			<path fill="#F1D6E6" d="M66.039,55.363c-0.109-0.043-0.305,0.49-0.228,0.651c0.079,0.161,0.654,0.419,0.693,0.315
				C66.199,56.03,66.147,55.766,66.039,55.363z"/>
			
				<ellipse transform="matrix(-0.9967 0.0812 -0.0812 -0.9967 127.4535 116.3918)" opacity="0.2" fill="#FFFFFF" enable-background="new    " cx="61.359" cy="60.789" rx="0.529" ry="0.347"/>
			<path fill="#654B26" d="M66.467,49.584c1.121-1.552,7.34,0.507,9.432-0.158C74.837,49.201,64.716,45.992,66.467,49.584z"/>
			<path fill="#E2A5A3" d="M64.326,64.995c-2.586,0.968-5.245,0.461-6.656,0.001C58.952,66.548,62.125,67.276,64.326,64.995z"/>
			<path fill="#FFBF91" d="M73.994,56.944c-3.2,1.297-4.954,0.732-7.084,0.032C67.467,57.99,71.289,59.332,73.994,56.944z"/>
			<path fill="#EB803A" d="M28.865,53.813"/>
			<path opacity="0.102" enable-background="new    " d="M29.372,63.652c-0.434,2.986,2.14,8.937,2.14,8.937l-8.041-9.707
				c-1.954-8.954-2.551-8.239,0.935-26.139c7.066-17.059,29.124-20.235,36.727-14.292c12.585,3.419,16.968,17.934,13.858,26.594
				c-0.293-2.462-4.913-12.091-6.594-9.21c-3.123,5.352-8.269,9.309-13.978,9.677c0,0,2.761-0.962,6.451-8.454
				c0,0-5.397,9.911-25.755,7.576l-4.252,13.324L29.372,63.652z"/>
			<path fill="#E2A5A3" d="M53.2,56.435c-2.179-2.848-6.146-4.491-10.148-5.302C43.261,50.722,50.315,50.012,53.2,56.435z"/>
			<path fill="#E2A5A3" d="M65.976,55.149c1.344-2.452,3.875-4.481,6.74-3.494C70.098,51.849,67.348,53.089,65.976,55.149z"/>
			<g>
				<g>
					<g>
						<path fill="#231F1F" d="M42.569,54.138c-0.384-1.833-2.476-2.763-2.967-2.933c-0.034,0.493-0.077,0.709-0.076,1.125
							l-1.45-0.574c-0.062,1.062,0.013,1.283,0.054,1.713l-1.404-0.445c0.047,1.739,0.792,3.732,1.943,4.294
							c-0.65-0.53,1.479-2.595,1.812-3.648C40.813,53.115,41.798,52.336,42.569,54.138z"/>
						<path fill="#231F1F" d="M41.083,54.974c-0.899-1.643,0.086-3.708,0.349-4.158c0.348,0.354,0.481,0.68,0.791,0.809l0.729-1.38
							c0.214,0.607,0.472,0.974,0.882,1.414l0.468-1.272c0.133,0.508,1.33,1.352,0.82,2.528c0.143-0.824-1.819,0.934-2.752,0.348
							C41.754,53.056,40.498,53.104,41.083,54.974z"/>
					</g>
					<path fill="#231F1F" d="M44.509,60.186c-2.442,0.618-10.665-4.163-5.114-7.61c0,0,9.987-4.634,14.04,4.544
						C53.435,57.12,44.6,60.221,44.509,60.186z"/>
					<path fill="#FFFFFF" d="M53.435,57.12c-3.53-6.357-14.736-6.046-14.873-1.536C39.979,61.518,48.709,61.458,53.435,57.12z"/>
					<g>
						<g>
							<g>
								<defs>
									<path id="SVGID_3_" d="M53.435,57.12c-3.53-6.357-14.736-6.046-14.873-1.536C39.979,61.518,48.709,61.458,53.435,57.12z"/>
								</defs>
								<clipPath id="SVGID_4_">
									<use xlink:href="#SVGID_3_"  overflow="visible"/>
								</clipPath>
								<g clip-path="url(#SVGID_4_)">
									<path fill="#35A9D9" d="M49.591,59.749c1.021-1.096,0.965-2.811-0.122-3.831c-1.082-1.026-2.783-0.974-3.804,0.113
										c-1.022,1.092-0.966,2.808,0.12,3.831c0.129,0.122,0.264,0.233,0.419,0.327L49.591,59.749z"/>
									<path opacity="0.102" fill="#FFFFFF" enable-background="new    " d="M49.624,57.616c-0.054-1.159-1.032-2.053-2.18-1.999
										c-1.142,0.052-2.026,1.036-1.971,2.193c0.052,1.161,1.027,2.051,2.168,2C48.791,59.754,49.677,58.774,49.624,57.616z"/>
									<path opacity="0.102" fill="#FFFFFF" enable-background="new    " d="M47.948,58.181c-0.036-0.808-0.724-1.429-1.527-1.393
										c-0.81,0.041-1.433,0.722-1.397,1.53c0.037,0.811,0.726,1.437,1.533,1.398C47.36,59.679,47.987,58.99,47.948,58.181z"/>
									<path opacity="0.2" fill="#FFFFFF" enable-background="new    " d="M47.588,56.79c-0.025-0.528-0.476-0.939-1.013-0.914
										c-0.542,0.025-0.955,0.475-0.932,1.004c0.027,0.528,0.48,0.937,1.021,0.911C47.204,57.766,47.615,57.317,47.588,56.79z"/>
									<path d="M48.928,58.225c-0.031-0.618-0.555-1.095-1.17-1.066c-0.62,0.029-1.099,0.554-1.067,1.17
										c0.029,0.622,0.551,1.099,1.171,1.07C48.479,59.367,48.956,58.844,48.928,58.225z"/>
									<path opacity="0.6" fill="#FFFFFF" enable-background="new    " d="M48.112,57.884c-0.013-0.307-0.284-0.545-0.602-0.529
										c-0.317,0.013-0.563,0.275-0.548,0.582c0.014,0.314,0.283,0.547,0.603,0.534C47.881,58.457,48.126,58.195,48.112,57.884z"
										/>
								</g>
							</g>
						</g>
					</g>
				</g>
				<g>
					<g>
						<path fill="#231F1F" d="M71.875,53.59c-0.004-1.252,1.235-2.154,1.536-2.334c0.088,0.318,0.147,0.455,0.205,0.731l0.871-0.581
							c0.189,0.688,0.17,0.841,0.203,1.13l0.859-0.486c0.21,1.146,0,2.555-0.676,3.084c0.349-0.438-1.333-1.495-1.693-2.14
							C72.881,52.675,72.131,52.302,71.875,53.59z"/>
						<path fill="#231F1F" d="M72.963,53.933c0.361-1.202-0.571-2.419-0.808-2.678c-0.175,0.282-0.217,0.514-0.403,0.641
							l-0.672-0.803c-0.053,0.428-0.172,0.702-0.38,1.046l-0.482-0.765c-0.019,0.35-0.684,1.071-0.187,1.769
							c-0.209-0.52,1.323,0.36,1.854-0.154C72.259,52.77,73.085,52.625,72.963,53.933z"/>
					</g>
					<path fill="#231F1F" d="M73.74,51.922c0,0-7.346-0.986-8.194,5.183l0.541,0.51l5.915,0.199
						C72.001,57.814,78.09,54.73,73.74,51.922z"/>
					<path fill="#FFFFFF" d="M65.545,57.104c2.537,3.024,10.218,0.673,8.631-3.632C73.07,51.036,66.295,53.282,65.545,57.104z"/>
					<g>
						<g>
							<g>
								<defs>
									<path id="SVGID_5_" d="M65.545,57.104c2.537,3.024,10.218,0.673,8.631-3.632C73.07,51.036,66.295,53.282,65.545,57.104z"/>
								</defs>
								<clipPath id="SVGID_6_">
									<use xlink:href="#SVGID_5_"  overflow="visible"/>
								</clipPath>
								<g clip-path="url(#SVGID_6_)">
									<path fill="#35A9D9" d="M71.106,58.482c0.864-0.97,0.786-2.464-0.18-3.341c-0.964-0.878-2.447-0.804-3.317,0.167
										c-0.803,0.897-0.801,2.265,0.005,3.17L71.106,58.482z"/>
									<path opacity="0.102" fill="#FFFFFF" enable-background="new    " d="M71.22,56.209c-0.125-0.766-0.852-1.289-1.633-1.161
										c-0.778,0.126-1.307,0.854-1.183,1.619c0.126,0.768,0.86,1.289,1.636,1.162C70.822,57.702,71.346,56.977,71.22,56.209z"/>
									<path opacity="0.102" fill="#FFFFFF" enable-background="new    " d="M70.133,56.698c-0.088-0.543-0.603-0.911-1.144-0.823
										c-0.543,0.088-0.908,0.6-0.822,1.144c0.089,0.539,0.601,0.911,1.145,0.824C69.854,57.752,70.222,57.235,70.133,56.698z"/>
									<path opacity="0.2" fill="#FFFFFF" enable-background="new    " d="M68.945,55.938c-0.054-0.345-0.388-0.575-0.746-0.518
										c-0.352,0.06-0.596,0.383-0.54,0.727c0.054,0.346,0.39,0.58,0.745,0.521C68.761,56.61,69.001,56.28,68.945,55.938z"/>
									<path d="M70.231,56.844c-0.085-0.512-0.57-0.858-1.082-0.773c-0.513,0.083-0.855,0.562-0.772,1.075
										c0.084,0.518,0.562,0.863,1.076,0.777C69.967,57.841,70.316,57.36,70.231,56.844z"/>
									<path opacity="0.6" fill="#FFFFFF" enable-background="new    " d="M69.395,56.911c-0.046-0.278-0.301-0.467-0.578-0.422
										c-0.277,0.045-0.466,0.308-0.42,0.585c0.043,0.276,0.306,0.458,0.584,0.414C69.255,57.442,69.441,57.188,69.395,56.911z"/>
								</g>
							</g>
						</g>
					</g>
				</g>
				<path fill="#231F1F" d="M44.395,60.178"/>
			</g>
			<path fill="#755730" d="M29.423,32.492c0,0-12.358,19.106-7.05,33.032C22.373,65.524,18.627,55.924,29.423,32.492z"/>
			<path fill="#62401F" d="M29.383,62.863c-0.434,2.986,2.487,10.721,2.487,10.721l-8.637-10.501
				c-1.955-8.954-2.302-9.229,1.185-27.129c7.065-17.058,29.124-20.235,36.727-14.291c12.584,3.419,18.713,17.691,15.604,26.351
				c-0.294-2.463-6.66-11.848-8.34-8.967c-3.124,5.351-8.27,9.308-13.979,9.677c0,0,2.762-0.962,6.451-8.454
				c0,0-5.396,9.911-25.755,7.577L30.874,61.17L29.383,62.863z"/>
			<path fill="#8B6339" d="M34.926,45.519c8.012,1.851,19.81,1.736,23.335-7.939C54.075,45.945,42.386,46.498,34.926,45.519z"/>
		</g>
		<path fill="#F8B93B" d="M37.156,93.562c0.194,0.744,0.385,1.492,0.589,2.231c0.014,0.052,0.139,0.099,0.214,0.101
			c0.764,0.025,1.528,0.063,2.292,0.051c0.208-0.004,0.515-0.117,0.597-0.274c0.148-0.285-0.107-0.472-0.357-0.603
			c-1.051-0.547-2.102-1.094-3.153-1.642C37.278,93.475,37.216,93.518,37.156,93.562z"/>
		<path fill="#F8B93B" d="M38.9,99.154c0.585-0.295,1.092-0.508,1.548-0.799c0.157-0.103,0.189-0.397,0.297-0.649
			c-0.539-0.008-0.944-0.004-1.349-0.026c-0.109-0.007-0.213-0.094-0.32-0.145c0.087-0.092,0.159-0.229,0.265-0.266
			c0.272-0.093,0.559-0.183,0.84-0.188c0.465-0.015,0.643-0.24,0.646-0.671c0-0.118,0.025-0.237,0.047-0.434
			c-1.211,0.174-2.386,0.342-3.637,0.521C37.794,97.389,38.346,98.27,38.9,99.154z"/>
		<path fill="#F1142B" d="M39.65,100.576c3.702-14.419-1.647-22.135,2.176-24.868c3.343-2.393,17.474-2.625,18.297-0.001
			c1.584,3.135-2.448,16.289-0.712,22.771c0,0,1.433,5.006,1.088,8.513c0,0-16.482,0.168-21.6-0.896L39.65,100.576z"/>
		<circle fill="#414141" cx="59.347" cy="105.079" r="0.37"/>
		<path fill="#414141" d="M56.99,106.357c-0.01,0.201-0.183,0.354-0.388,0.351c-0.204-0.01-0.363-0.183-0.351-0.392
			c0.009-0.203,0.183-0.36,0.385-0.354C56.844,105.979,56.999,106.152,56.99,106.357z"/>
		<path fill="#414141" d="M58.394,105.764c-0.007,0.205-0.181,0.362-0.389,0.354c-0.203-0.013-0.363-0.188-0.353-0.39
			c0.012-0.205,0.187-0.361,0.39-0.353C58.249,105.386,58.404,105.559,58.394,105.764z"/>
		<g>
			<path fill="#414141" d="M53.882,105.305l-2.504,0.225c-0.711,0.062-1.222,0.837-1.14,1.718c0.076,0.887,0.716,1.553,1.425,1.489
				l2.508-0.226c0.709-0.062,1.221-0.833,1.143-1.717C55.233,105.907,54.594,105.24,53.882,105.305z M53.546,107.848l-1.388,0.123
				c-0.391,0.033-0.746-0.336-0.792-0.826c-0.041-0.492,0.24-0.914,0.633-0.951l1.39-0.125c0.392-0.033,0.747,0.334,0.79,0.824
				C54.225,107.385,53.94,107.809,53.546,107.848z"/>
			<path fill="#414141" d="M53.107,107.047c0.011,0.116-0.079,0.225-0.2,0.232l-1.45,0.119c-0.119,0.014-0.223-0.078-0.232-0.195
				l0,0c-0.013-0.119,0.079-0.229,0.196-0.234l1.451-0.123C52.992,106.837,53.096,106.93,53.107,107.047L53.107,107.047z"/>
		</g>
		<polygon fill="#F8B93B" points="58.394,78.441 57.652,74.129 55.722,73.963 56.621,78.441 		"/>
		<polygon fill="#F8B93B" points="48.173,73.636 46.295,73.724 47.708,79.184 49.217,78.945 		"/>
		<path fill="#4B8192" d="M71.415,29.811c-29.658-4.83-40.916,9.422-43.378,23.416c-2.739-10.396,9.475-32.624,38.734-29.063
			c2.496,0.059,7.161,4.954,6.251,6.4L71.415,29.811z"/>
		<g>
			<path fill="#31B4C6" d="M31.748,37.71c-0.858-0.643-1.722-1.882-1.345-4.229c0.591-3.67,3.708-1.592,3.29,2.615
				c0.578-1.145,1.535-2.189,3.013-1.578c2.286,0.944,0.779,4.883-1.751,4.733c0.562,0.617,0.968,1.627,0.679,3.292
				c-0.532,3.055-2.937,1.965-3.055-1.133c-0.511,1.101-1.353,2.019-2.738,1.843C27.055,42.9,28.524,37.589,31.748,37.71z"/>
			<path fill="#4B8192" d="M32.453,37.845c-0.429-0.321-0.86-0.94-0.67-2.112c0.295-1.835,1.852-0.79,1.637,1.318
				c0.288-0.576,0.765-1.108,1.51-0.801c1.141,0.471,0.388,2.438-0.875,2.363c0.28,0.308,0.483,0.812,0.339,1.644
				c-0.267,1.527-1.466,0.975-1.521-0.577c-0.254,0.555-0.675,1.02-1.372,0.931C30.11,40.436,30.844,37.785,32.453,37.845z"/>
			<circle fill="#FFFFFF" cx="33.401" cy="38.33" r="0.456"/>
		</g>
		<g>
			<path fill="#FFCBA5" d="M28.866,49.56l0.472,11.107c-0.74,0.139-6.25-5.579-5.503-9.175C24.333,49.09,26.526,47.38,28.866,49.56z
				"/>
			<path opacity="0.502" fill="#DDAD8C" enable-background="new    " d="M28.71,50.319c-1.457-1.325-3.169-0.904-3.684,0.103
				c-0.556,0.965-0.029,2.571,0.247,3.046c0.275,0.476,1.016-0.549,1.408-0.199c0.39,0.351,0.55,2.654,0.939,2.3
				C27.943,53.961,28.391,51.925,28.71,50.319z"/>
		</g>
		<path fill="#E53832" d="M63.727,81.256l-3.214,2.051c-0.444-1.381-0.987-3.224-1.351-3.979l0.961-3.619
			C60.615,76.529,62.912,78.828,63.727,81.256z"/>
		<path fill="#FFCBA5" d="M48.774,73.817l1.491-0.148l0.744-3.184l3.283,0.27L54.279,74l0.923,0.102c0,0-0.18,2.585-3.214,2.307
			C48.955,76.133,48.774,73.817,48.774,73.817z"/>
		<path fill="#1D71B1" d="M60.417,104.273c0,0-3.905,22.028-15.318,27.375c-9.103,4.265-3.3-1.801-3.3-1.801
			S54.179,106.262,60.417,104.273z"/>
		<path fill="#1D71B1" d="M61.193,107.68l-3.671-2.176l-11.498-1.549l-7.125,2.141c8.018,20.827,17.875,29.635,17.988,31.454
			l1.738-0.073l-1.351-22.471C57.274,115.006,59.366,111.529,61.193,107.68"/>
		<path opacity="0.102" enable-background="new    " d="M45.201,107.2l13.129,29.762l-1.094,0.744
			c-10.7-12.328-17.216-28.771-18.337-31.61C39.648,107.993,43.741,107.046,45.201,107.2z"/>
		<g>
			<path fill="#F8B93B" d="M42.021,141.564c-0.567-0.68-1.965-2.601-2.385-3.977c0,0-1.8-2.414-1.619-2.751
				c0.739-1.383,1.573-1.776,1.573-1.776l3.909-6.565l3.5,4.96l-5.778,4.207c0.25,1.027,1.259,4.281,1.398,5.177
				C42.619,140.839,42.431,142.059,42.021,141.564z"/>
			<path fill="#F8B93B" d="M43.493,127.622c-0.083,0.101-0.079,0.282,0.008,0.405l0.26,0.369c0.088,0.123,0.226,0.143,0.309,0.041
				l0,0c0.083-0.103,0.08-0.283-0.008-0.408l-0.261-0.366C43.715,127.539,43.576,127.521,43.493,127.622L43.493,127.622z"/>
			<path fill="#F8B93B" d="M43.157,128.029c-0.083,0.101-0.079,0.283,0.008,0.406l0.261,0.369c0.087,0.122,0.226,0.143,0.308,0.041
				l0,0c0.083-0.101,0.081-0.281-0.007-0.406l-0.26-0.369C43.379,127.947,43.24,127.93,43.157,128.029L43.157,128.029z"/>
		</g>
		<g>
			<path fill="#F5BB34" d="M63.568,135.975c-0.713-0.229-3.714,0.078-4.574,0.086l-0.938-9.311l-6.205,4.014l4.766,6.713
				c0,0,0.134,1.307,1.063,2.812c0.226,0.367,2.495-1.348,2.495-1.348c1.165-0.127,3.106-1.116,3.729-1.74
				C63.904,137.201,64.199,136.177,63.568,135.975z"/>
			<path fill="#F5BB34" d="M53.082,130.557c0.079,0.19,0.26,0.264,0.406,0.159l0.438-0.306c0.147-0.104,0.202-0.344,0.123-0.535l0,0
				c-0.079-0.191-0.261-0.266-0.408-0.161l-0.437,0.308C53.057,130.125,53.001,130.363,53.082,130.557L53.082,130.557z"/>
			<path fill="#F5BB34" d="M53.396,131.327c0.079,0.192,0.262,0.265,0.409,0.161l0.437-0.309c0.146-0.103,0.202-0.342,0.123-0.533
				l0,0c-0.078-0.19-0.262-0.267-0.409-0.16l-0.438,0.308C53.373,130.896,53.318,131.137,53.396,131.327L53.396,131.327z"/>
		</g>
		<path fill="#535352" d="M60.825,105.886c-4.79,2.808-16.966,4.755-21.926,0.21l0.29-2.471c0,0,9,5.788,21.272-0.223"/>
		<polyline fill="#F8B93B" points="40.25,95.945 46.295,96.934 45.521,99.088 40.124,97.699 		"/>
		<path fill="#F8B93B" d="M45.48,79.583c0,0,11.775-2.374,14.626-0.601c0,0,1.257,2.479,0.017,5.66
			c-0.934,2.396-0.712,13.836-0.712,13.836s2.261,5.845,1.738,15.047c0,0-12.124,4.529-19.322,0l0,0c0,0,0.044-8.094,2.815-13.308
			C47.412,95.007,45.48,79.583,45.48,79.583z"/>
		<path fill="#FFCBA5" d="M73.24,94.805c-2.283,0.557-16.804-1.32-19.43-2.234c-2.625-0.911-7.78-6.67-10.086-9.711
			c-1.924-2.344-0.119-5.062,0.594-4.209l10.88,11.346c6.893,0.771,11.414,1.877,18.437,1.792
			C73.635,91.786,74.497,94.497,73.24,94.805z"/>
		<path fill="#F7C66F" d="M48.848,98.846c0,0,6.528,0.44,9.787-1.767c0,0,0.585,7.194-4.713,8.274
			C47.28,106.708,48.848,98.846,48.848,98.846z"/>
		<path fill="#DDA23A" d="M48.848,98.549c0,0,6.528,0.367,9.787-1.47c0,0,0.132,1.017-0.124,2.278
			c-0.352,1.732-9.577,3.141-9.749,1.271C48.66,99.505,48.848,98.549,48.848,98.549z"/>
		<path fill="#D3282D" d="M41.028,80.07c-1.664-1.49-0.008-4.729,2.486-3.469c0.845,1.094,3.197,4.176,5.571,6.803l-2.555,2.955
			C44.011,83.896,41.829,81.355,41.028,80.07z"/>
	</g>
	<g>
		<path fill="#CEB75E" d="M79.83,95.346l7.653-2.531l7.978,25.652c0,0-3.744,15.865-13.026,8.945
			c-9.281-6.92-4.396-29.029-4.396-29.029L79.83,95.346z"/>
		<path fill="#FBE39D" d="M65.921,100.236l13.682-4.756c0,0,11.604,26.834,2.944,32.098
			C82.548,127.578,70.078,119.428,65.921,100.236z"/>
	</g>
	<g>
		<polygon fill="#C83339" points="81.905,96.505 87.599,93.88 90.584,103.768 84.212,106.736 		"/>
		<path fill="#4B4C4A" d="M92.365,129.186L81.192,99.236c0,0-0.976-2.766-4.434-3.764l0.13-2.224c0,0,4.861,1.241,6.056,5.292
			c1.194,4.051,11.245,30.751,11.245,30.751l-0.194,1.897L92.365,129.186z"/>
		<path fill="#4B4C4A" d="M95.558,124.964l-8.532-29.056c0,0-0.591-2.674-3.549-3.623l0.127-2.165c0,0,3.911,1.162,4.802,5.094
			c0.888,3.933,8.521,29.83,8.521,29.83l-0.145,1.854L95.558,124.964z"/>
		<path fill="#C83339" d="M84.329,91.898c-0.463,0.744-1.443,0.975-2.189,0.512l-4.588-2.854c-0.746-0.465-0.976-1.442-0.512-2.188
			l0.169-0.271c0.463-0.746,1.443-0.976,2.188-0.513l4.589,2.854c0.746,0.463,0.975,1.441,0.511,2.188L84.329,91.898z"/>
		<path fill="#C83339" d="M78.411,95.053c-0.463,0.745-1.443,0.975-2.188,0.512l-4.589-2.853c-0.746-0.464-0.975-1.442-0.511-2.188
			l0.167-0.271c0.464-0.746,1.443-0.976,2.189-0.511l4.589,2.852c0.747,0.465,0.975,1.443,0.511,2.189L78.411,95.053z"/>
	</g>
	<g>
		<path fill="#362E3E" d="M118.5,120.246c0,0.691-0.562,1.254-1.254,1.254h-16.492c-0.692,0-1.254-0.562-1.254-1.254v-0.492
			c0-0.691,0.562-1.254,1.254-1.254h16.492c0.692,0,1.254,0.562,1.254,1.254V120.246z"/>
		<path fill="#4B4C4A" d="M125.5,125.91c0,0.878-0.711,1.59-1.589,1.59H96.089c-0.878,0-1.589-0.712-1.589-1.59v-3.82
			c0-0.878,0.711-1.59,1.589-1.59h27.821c0.878,0,1.589,0.712,1.589,1.59L125.5,125.91L125.5,125.91z"/>
		<path fill="#C83339" d="M132.5,127.79v-1.06c0-0.879-1.189-2.23-2.066-2.23H86.568c-0.877,0-1.068,1.354-1.068,2.23v8.897
			c0,0.878,0.191,1.87,1.068,1.87h43.865c0.877,0,1.589-0.758,1.589-1.635l1.589-0.365h4.888v-1.775L132.5,127.79z"/>
		<path fill="#4B4C4A" d="M139.333,136c0,0.702-0.578,1.5-1.29,1.5H85.792c-0.711,0-1.29-0.798-1.29-1.5l0,0
			c0-0.701,0.578-1.5,1.29-1.5h52.251C138.755,134.5,139.333,135.299,139.333,136L139.333,136z"/>
		<g>
			<circle fill="#4B4C4A" cx="89.51" cy="137.141" r="6.914"/>
			<circle fill="#D0D3D4" cx="89.509" cy="137.14" r="4.288"/>
		</g>
		<g>
			<circle fill="#4B4C4A" cx="127.97" cy="137.14" r="6.913"/>
			<circle fill="#D0D3D4" cx="127.97" cy="137.14" r="4.287"/>
		</g>
	</g>
	<path fill="#FFCBA5" d="M68.473,91.721l2.562-1.129c0.703-0.018,1.441,0.085,1.844,0.434c0.412,0.349-0.109,1.104,0.61,1.647
		c0.423,0.789,0.407,2.397,0.062,2.991c-0.35,0.593-1.084,0.473-2.148,0.564c-3.884,0.334-4.5-1.619-5.077-2.819"/>
</g>
<path fill="#7DC256" stroke="#649C46" stroke-width="0.25" stroke-miterlimit="10" d="M164.215,129.884c0,0-2.961-4.144-1.48-4.735
	c1.48-0.592,3.256,0.594,3.256,2.367c0,0-1.184-3.552,0.592-4.144c1.776-0.593,1.775,4.144,1.775,4.144s0.889-2.072,2.072-2.072
	c1.185,0-0.592,4.736-0.592,4.736"/>
<path fill="#7DC256" stroke="#649C46" stroke-width="0.25" stroke-miterlimit="10" d="M16.779,141.333c0,0-2.961-4.144-1.48-4.735
	c1.48-0.593,3.256,0.592,3.256,2.367c0,0-1.184-3.552,0.592-4.145c1.776-0.592,1.775,4.145,1.775,4.145s0.889-2.072,2.072-2.072
	c1.185,0-0.592,4.736-0.592,4.736"/>
<path fill="#649C46" d="M141.087,117.818c0,0-5.145-26.12-2.675-26.738c2.471-0.617,7,21.617,7,21.617s-3.705-28.41,0.824-29.852
	c4.529-1.443,3.705,29.438,3.705,29.438s0.617-28.411,2.882-28.617c2.265-0.205,1.854,29.233,1.854,29.233
	s1.646-23.676,4.323-23.676c2.676,0-0.825,28.006-0.825,28.006L141.087,117.818z"/>
<path fill="#649C46" d="M164.658,117.539c0,0-3.647-19.316-2.396-19.354c1.252-0.037,3.25,11.244,3.25,11.244
	s0.347-13.248,1.627-13.49c1.278-0.241,0.524,12.951,0.524,12.951s1.749-8.279,2.769-8.143c1.021,0.141-1.553,16.789-1.553,16.789"
	/>
<g>
	<polygon fill="#F3F8F4" points="387.5,115.5 312.5,115.5 312.5,51.722 387.5,70.551 	"/>
	<polygon fill="#DCF0F5" points="388.007,74.375 311.328,54.536 311.541,48.289 388.218,68.127 	"/>
	<rect x="372.5" y="59.5" fill="#D84864" width="9" height="8"/>
	<polygon fill="#E84E67" points="393.5,74.306 305.5,51.271 305.5,44.967 393.5,68.001 	"/>
	<rect x="312.5" y="108.5" fill="#5B5C7C" width="75" height="7"/>
	<rect x="369.5" y="50.5" fill="#E84E67" width="14" height="9"/>
	<rect x="342.5" y="88.5" fill="#AB7033" width="15" height="27"/>
	<rect x="345.5" y="91.5" fill="#C8965A" width="12" height="24"/>
	<path fill="#B3E8F4" d="M334.935,95.666c0-4.135-3.359-6.549-6.721-6.549c-3.354,0-6.714,1.828-6.714,5.961v6.422h13.523
		L334.935,95.666z"/>
	<path fill="#B3E8F4" d="M379.29,95.666c0-4.135-3.038-6.549-6.394-6.549c-3.357,0-6.396,1.828-6.396,5.961v6.422h12.881
		L379.29,95.666z"/>
	<path fill="#B3E8F4" d="M334.935,72.75c0-6.913-3.359-10.95-6.721-10.95c-3.354,0-6.714,3.061-6.714,9.967V82.5h13.523
		L334.935,72.75z"/>
	<path fill="#B3E8F4" d="M357.111,75.092c0-5.123-2.947-8.202-6.307-8.202c-3.356,0-6.307,2.176-6.307,7.293V82.5H357.2
		L357.111,75.092z"/>
	<path fill="#B3E8F4" d="M379.241,73.822l-11.685-2.954c-0.482,1.028-1.059,2.293-1.059,3.8V82.5h12.881l-0.091-6.939
		C379.29,75.214,379.271,74.148,379.241,73.822z"/>
	<path fill="#8CD6EA" d="M328.177,88.934c-3.355,0-6.677,2.015-6.677,6.146v6.422h7V88.939
		C328.5,88.939,328.243,88.934,328.177,88.934z"/>
	<path fill="#8CD6EA" d="M328.177,61.864c-3.355,0-6.677,2.996-6.677,9.903V82.5h7V61.879
		C328.5,61.876,328.243,61.864,328.177,61.864z"/>
	<path fill="#8CD6EA" d="M350.513,66.954c-3.354,0-6.013,2.113-6.013,7.23V82.5h6V66.975
		C350.5,66.967,350.637,66.954,350.513,66.954z"/>
	<path fill="#8CD6EA" d="M372.347,88.934c-3.354,0-5.847,2.015-5.847,6.146v6.422h6V88.954
		C372.5,88.941,372.525,88.934,372.347,88.934z"/>
	<path fill="#8CD6EA" d="M367.011,70.868c-0.481,1.028-0.511,2.293-0.511,3.8V82.5h6V72.373L367.011,70.868z"/>
</g>
<path fill="#808080" d="M242.604,145.709c18.541-12.234,70.787-13.432,88.304-17.58c17.514-4.15,9.513-12.629,9.513-12.629h13.839
	c0,0,21.479,8.232,9.081,16.521c-13.706,9.164-55.351,0.871-38.055,19.684l5.622,2.836l-93.177,0.136
	C237.73,154.676,234.271,151.207,242.604,145.709z"/>
<g>
	<path fill="#FFCBA6" d="M235.329,84.844c-0.646-0.343-1.272-0.613-1.532-1.045c-0.268-0.3-0.639-0.465-0.781-1.562
		c-0.188-1.446-0.763-1.487,2.067-2.275c1.178-0.329,2.372,1.012,2.778,0.914c0,0-0.364-0.393-0.163-0.734
		c0.727-0.871,1.146,0.726,1.146,0.726c0.247,1.221,0.284,0.503,0.374,1.854c-0.583,0.891-1.37,2.637-1.926,2.555
		C237.016,85.23,235.975,85.186,235.329,84.844"/>
	<path fill="#E53732" d="M253.002,74.638c-0.93,2.344-2.699,10.868-4.882,11.588c-3.147,1.039-8.759-3.64-8.759-3.64l-2.971,2.681
		l12.109,5.32c3.295-0.922,5.832-8.998,6.784-12.23"/>
	<path fill="#649C46" d="M304.846,118.562c0,0-0.839-30.699,1.36-30.699c2.198,0,3.518,18.027,3.518,18.027
		s2.198-28.144,4.837-27.264c2.641,0.88-0.438,29.021-0.438,29.021s7.476-23.303,10.112-22.863
		c2.64,0.439-9.489,34.382-9.489,34.382"/>
	<path fill="#FFCBA6" d="M273.061,107.332c1.026,5.054-2.099,30.021-2.244,32.033h-0.748l-6.729-24.914h-1.607l-3.028,24.288h-1.029
		l-5.075-31.407H273.061z"/>
	<path opacity="0.102" enable-background="new    " d="M273.166,114.055c-0.798,6.411-1.518,22.389-2.338,26.135l-0.762-2.646
		v-22.865L273.166,114.055z"/>
	<path fill="#D0202C" d="M273.807,114.809l-20.375,0.633c-1.547-3.502-1.771-10.832,0-17.45c1.735-6.474-2.291-19.607-0.709-22.739
		c0.822-2.622,15.844-2.559,19.647-1.028c4.896,1.965-2.897,11.463,0.796,25.859C274.834,106.578,273.809,114.807,273.807,114.809z"
		/>
	<path fill="#FFFFFF" d="M267.432,73.393l-6.582,12.28c0.012,1.776,0.026,3.665,0.037,5.443l-0.502-0.023l-0.292-5.582
		l-4.065-11.643C260.303,71.969,266.886,72.783,267.432,73.393z"/>
	<polygon fill="#FFCBA6" points="259.018,73.967 259.225,70.732 262.509,70.684 263.039,73.907 265.717,74.356 261.436,78.105 
		260.631,82.613 259.893,78.232 257.115,74.597 	"/>
	<path fill="#7B5EA2" d="M268.828,139.002l2.188,0.001c0.772,0.077,1.131,0.619,1.276,1.004c0.147,0.384-0.196,0.876-0.394,1.298
		c-0.197,0.424-0.313,1.227-0.791,1.241c-0.479,0.015-1.215-1.116-2.08-1.144c-0.864-0.027-2.438,1.082-3.106,0.974
		c-0.67-0.108-1.391-1.063-0.903-1.625C265.499,140.188,268.172,139.35,268.828,139.002L268.828,139.002z"/>
	<path fill="#7B5EA2" d="M258.284,138.202c0.344,0.241,0.903,0.921,0.969,1.45c0.065,0.531-0.265,1.582-0.569,1.731
		c-0.309,0.148-0.418-0.903-1.271-0.833c-0.851,0.071-3.082,1.254-3.843,1.262c-0.762,0.006-1.323-0.623-0.721-1.227
		c0.604-0.602,3.858-2.043,4.344-2.389L258.284,138.202z"/>
	<path fill="#FFCBA6" d="M265.168,94.871c-0.493-0.182-1.05-0.936-1.458-1.229c-0.409-0.291-0.722-0.056-0.992-0.521
		c-0.477-0.615-0.851-1.455-0.729-1.89c0.559-0.74,1.113-1.385,1.462-1.465c0.815-0.338,2.78-0.008,3.231,0.188
		s0.436,1.552,0.416,2.409c-0.746,0.857-1.138,1.849-0.99,2.597L265.168,94.871z"/>
	<path fill="#E53732" d="M271.493,77.771c1.239,2.195,6.821,11.959,6.046,14.123c-0.775,2.16-8.652-0.6-10.7-1.152l-0.594,4.094
		c2.328,0.703,13.209,3.27,14.562,0.129c1.355-3.14-4.521-16.189-6.436-18.963C273.579,73.913,270.999,74.871,271.493,77.771z"/>
	<polygon fill="#FFFFFF" points="273.209,95.697 270.99,101.115 271.286,103.034 280.212,104.464 282.727,104.314 283.909,102.247 
		282.232,96.387 278.534,95.895 	"/>
	<polygon opacity="0.102" enable-background="new    " points="273.496,95.697 277.661,95.908 282.323,96.4 283.876,102.247 
		282.675,104.432 280.911,104.359 280.273,101.895 280.979,96.473 	"/>
	<path fill="#FFFFFF" d="M277,91.741c1.391,1.671,1.505,3.587,1.374,5.208l-0.735-0.049c0.098-1.721-0.295-3.588-1.474-5.012
		C276.491,91.611,276.721,91.727,277,91.741z"/>
	<g>
		<path fill="#AB5C31" d="M284.84,74.779l3.143-18.5l-46.787-2.505l3.385,18.49l0.152-3.586l0.375,3.608
			C271.98,64.402,284.84,74.779,284.84,74.779z"/>
		<path fill="#FFCBA6" d="M240.188,44.825c1.361-7.153,4.351-14.234,11.647-17.464c15.044,0.8,22.659,7.115,33.987,10.673
			c3.23,9.993,2.234,24.013-5.348,29.332c-4.855,2.981-16.643,7.719-30.101,4.174c-6.704-3.023-9.19-7.576-9.118-14.409
			C240.98,53.281,239.334,49.712,240.188,44.825z"/>
		<path fill="#FFCBA6" d="M254.544,61.801c1.313-1.592-2.131-1.908-2.629-3.434c-0.472-0.855-0.832,2.125-1.722,3.167
			L254.544,61.801z"/>
		<path fill="#E0AE8E" d="M245.968,59.484c0.054,0.001,0.099-0.041,0.103-0.095c0.003-0.055-0.041-0.1-0.096-0.103
			c-0.055-0.002-0.101,0.04-0.104,0.095C245.869,59.436,245.912,59.481,245.968,59.484z"/>
		<circle fill="#E0AE8E" cx="246.775" cy="60.234" r="0.23"/>
		<path fill="#E0AE8E" d="M243.822,62.053c0.126,0.006,0.234-0.094,0.24-0.22c0.006-0.128-0.096-0.235-0.223-0.241
			c-0.128-0.005-0.234,0.094-0.238,0.22C243.596,61.941,243.693,62.049,243.822,62.053z"/>
		
			<ellipse transform="matrix(0.0429 -0.9991 0.9991 0.0429 173.5552 305.6074)" fill="#E0AE8E" cx="246.278" cy="62.223" rx="0.148" ry="0.131"/>
		<path fill="#E0AE8E" d="M257.966,61.268c-0.021-0.052-0.075-0.078-0.128-0.059c-0.052,0.018-0.079,0.075-0.061,0.126
			c0.02,0.052,0.074,0.079,0.127,0.059C257.955,61.375,257.982,61.319,257.966,61.268z"/>
		<circle fill="#E0AE8E" cx="258.339" cy="60.267" r="0.231"/>
		<circle fill="#E0AE8E" cx="260.906" cy="62.381" r="0.23"/>
		
			<ellipse transform="matrix(-0.9403 0.3403 -0.3403 -0.9403 525.4753 27.734)" fill="#E0AE8E" cx="260.306" cy="59.946" rx="0.149" ry="0.132"/>
		<path fill="#F5D8E6" d="M262.55,57.817c-0.067,0.106-0.805-0.256-0.883-0.442c-0.079-0.184,0.269-0.728,0.41-0.666
			C262.163,57.159,262.184,57.45,262.55,57.817z"/>
		
			<ellipse transform="matrix(0.0433 -0.9991 0.9991 0.0433 199.1992 324.3067)" opacity="0.102" fill="#FFFFFF" enable-background="new    " cx="268.926" cy="58.148" rx="1.614" ry="1.632"/>
		<path fill="#F2A37D" d="M254.65,61.841c0.008,0.509-2.115,0.834-2.871,0.801c-0.754-0.033-2.176-0.872-1.661-0.997
			C250.234,61.289,252.932,61.55,254.65,61.841z"/>
		<path fill="#864827" d="M276.622,49.556c-3.272,0.745-11.88-1.238-13.97,0.407C261.076,46.269,275.12,49.349,276.622,49.556z"/>
		<path fill="#FFBF93" d="M273.564,59.882c-1.893,1.16-7.237,2.198-11.008-1.792C266.688,60.725,271.379,60.269,273.564,59.882z"/>
		<path fill="#F5D8E6" d="M248.771,56.915c0.043,0.103,0.604-0.179,0.678-0.343c0.07-0.163-0.145-0.688-0.254-0.639
			C249.102,56.338,249.064,56.604,248.771,56.915z"/>
		
			<ellipse transform="matrix(0.0452 -0.999 0.999 0.0452 181.5249 312.1508)" opacity="0.2" fill="#FFFFFF" enable-background="new    " cx="254.057" cy="61.115" rx="0.346" ry="0.527"/>
		<path fill="#864827" d="M239.126,50.395c2.11,0.58,8.238-1.717,9.415-0.213C250.146,46.529,240.174,50.129,239.126,50.395z"/>
		<path fill="#E3A7A5" d="M257.926,65.216c-1.393,0.513-4.023,1.123-6.642,0.259C253.568,67.666,256.705,66.815,257.926,65.216z"/>
		<path fill="#FFBF93" d="M248.391,57.576c-2.097,0.784-3.824,1.415-7.07,0.246C244.111,60.097,247.875,58.608,248.391,57.576z"/>
		<path opacity="0.102" enable-background="new    " d="M239.82,45.666l4.471-7.68l19.75,1.464l16.162,10.002l4.434,9.288
			l-1.229,2.438c0,0-7.521-14.595-10.521-14.013c-19.055,3.697-29.86-4.795-27.909-6.442c-2.945,2.488-3.719,4.712-5.062,7.527
			L239.82,45.666z"/>
		<path fill="#ED8039" d="M286.229,52.929"/>
		<path fill="#ED8039" d="M285.41,62.321c0.549,2.962-0.682,13.474-0.682,13.474l8.367-14.504
			c2.862-9.569,2.494-23.542-5.795-40.797c-5.688-6.816-27.333-8.478-34.688-2.247c-12.422,3.904-16.742,22.768-13.299,31.286
			c0.199-2.468,4.43-12.256,6.222-9.447c6.916,10.85,24.712,4.585,29.589,6.766"/>
		<path fill="#FCA565" d="M247.537,36.543c3.602,9.632,15.384,9.644,23.367,7.729C263.464,45.314,251.784,44.863,247.537,36.543z"/>
		<path fill="#E3A7A5" d="M271.969,50.809c-3.961,0.967-7.857,2.761-9.918,5.691C264.676,49.976,271.742,50.407,271.969,50.809z"/>
		<path fill="#E3A7A5" d="M242.387,52.492c2.82-1.095,5.428,0.832,6.862,3.225C247.802,53.714,245.007,52.585,242.387,52.492z"/>
		<g>
			<g>
				<g>
					<path fill="#231F20" d="M274.632,53.243c0.371,1.037,2.575,3.013,1.951,3.569c1.128-0.606,1.789-2.624,1.771-4.362
						l-1.385,0.498c0.025-0.429,0.094-0.653-0.014-1.71l-1.424,0.631c-0.014-0.417-0.067-0.631-0.119-1.123
						c-0.485,0.191-2.534,1.201-2.846,3.044C273.268,51.962,274.277,52.701,274.632,53.243z"/>
					<path fill="#231F20" d="M272.732,52.909c-0.91,0.622-2.938-1.056-2.76-0.241c-0.558-1.153,0.604-2.043,0.719-2.554l0.517,1.248
						c0.392-0.452,0.634-0.828,0.824-1.443l0.78,1.349c0.305-0.141,0.426-0.471,0.756-0.837c0.281,0.439,1.347,2.459,0.515,4.133
						C274.591,52.676,273.34,52.679,272.732,52.909z"/>
				</g>
				<path fill="#231F20" d="M261.839,57.191c3.688-9.317,13.834-5.084,13.834-5.084c5.673,3.222-2.345,8.316-4.806,7.794
					C270.777,59.939,261.839,57.191,261.839,57.191z"/>
				<path fill="#FFFFFF" d="M276.623,55.076c-0.314-4.495-11.51-4.367-14.784,2.115C266.729,61.335,275.439,61.053,276.623,55.076z"
					/>
				<g>
					<g>
						<g>
							<g>
								<g>
									<defs>
										<path id="SVGID_7_" d="M276.623,55.076c-0.314-4.495-11.51-4.367-14.784,2.115
											C266.729,61.335,275.439,61.053,276.623,55.076z"/>
									</defs>
									<clipPath id="SVGID_8_">
										<use xlink:href="#SVGID_7_"  overflow="visible"/>
									</clipPath>
									<g clip-path="url(#SVGID_8_)">
										<circle fill="#A7C378" cx="267.57" cy="56.435" r="2.66"/>
										<path opacity="0.102" fill="#FFFFFF" enable-background="new    " d="M267.654,58.33c1.144,0.009,2.08-0.92,2.09-2.079
											c0.008-1.157-0.913-2.103-2.059-2.111c-1.146-0.009-2.086,0.923-2.095,2.08C265.584,57.378,266.509,58.322,267.654,58.33z
											"/>
										<path opacity="0.102" fill="#FFFFFF" enable-background="new    " d="M268.736,58.195
											c0.807,0.006,1.468-0.646,1.475-1.454c0.006-0.808-0.646-1.466-1.453-1.472c-0.804-0.006-1.465,0.641-1.472,1.449
											C267.279,57.527,267.932,58.188,268.736,58.195z"/>
										<path opacity="0.2" fill="#FFFFFF" enable-background="new    " d="M268.552,56.28c0.542,0.003,0.979-0.423,0.982-0.951
											c0.005-0.528-0.427-0.96-0.968-0.965c-0.537-0.004-0.975,0.422-0.979,0.951C267.586,55.843,268.014,56.276,268.552,56.28z
											"/>
										<path d="M266.934,57.781c0.621,0.005,1.125-0.493,1.129-1.111c0.006-0.618-0.492-1.123-1.11-1.127
											c-0.617-0.005-1.119,0.491-1.123,1.11C265.82,57.27,266.316,57.776,266.934,57.781z"/>
										<path opacity="0.6" fill="#FFFFFF" enable-background="new    " d="M267.242,57.016c0.318,0.002,0.578-0.245,0.581-0.557
											c0.002-0.306-0.255-0.558-0.572-0.56c-0.315-0.003-0.577,0.245-0.579,0.55C266.67,56.762,266.926,57.013,267.242,57.016z"
											/>
									</g>
								</g>
							</g>
						</g>
					</g>
				</g>
			</g>
			<g>
				<g>
					<path fill="#231F20" d="M241.98,53.848c-0.336,0.658-1.975,1.778-1.607,2.201c-0.695-0.499-0.96-1.897-0.795-3.05l0.875,0.451
						c0.021-0.288-0.005-0.443,0.156-1.136l0.894,0.545c0.045-0.277,0.101-0.415,0.177-0.736c0.307,0.169,1.577,1.018,1.623,2.27
						C242.997,53.117,242.264,53.52,241.98,53.848z"/>
					<path fill="#231F20" d="M243.27,53.792c0.551,0.494,2.045-0.446,1.855,0.083c0.471-0.719-0.225-1.41-0.256-1.76l-0.451,0.785
						c-0.221-0.335-0.35-0.605-0.422-1.031l-0.635,0.828c-0.191-0.12-0.243-0.351-0.432-0.623c-0.226,0.267-1.106,1.518-0.699,2.702
						C242.057,53.475,242.889,53.588,243.27,53.792z"/>
				</g>
				<path fill="#231F20" d="M243.344,58.612l5.895-0.431l0.521-0.531c-1.086-6.124-8.382-4.848-8.382-4.848
					C237.148,55.774,243.343,58.611,243.344,58.612z"/>
				<path fill="#FFFFFF" d="M241.001,54.365c-1.414,4.357,6.345,6.403,8.756,3.285C248.859,53.864,242.012,51.888,241.001,54.365z"
					/>
				<g>
					<g>
						<g>
							<g>
								<g>
									<defs>
										<path id="SVGID_9_" d="M241.001,54.365c-1.414,4.357,6.345,6.403,8.756,3.285
											C248.859,53.864,242.012,51.888,241.001,54.365z"/>
									</defs>
									<clipPath id="SVGID_10_">
										<use xlink:href="#SVGID_9_"  overflow="visible"/>
									</clipPath>
									<circle clip-path="url(#SVGID_10_)" fill="#A7C378" cx="244.611" cy="56.376" r="2.365"/>
								</g>
							</g>
						</g>
					</g>
					<g>
						<g>
							<g>
								<g>
									<defs>
										<path id="SVGID_11_" d="M241.001,54.365c-1.414,4.357,6.345,6.403,8.756,3.285
											C248.859,53.864,242.012,51.888,241.001,54.365z"/>
									</defs>
									<clipPath id="SVGID_12_">
										<use xlink:href="#SVGID_11_"  overflow="visible"/>
									</clipPath>
									<path opacity="0.102" clip-path="url(#SVGID_12_)" fill="#FFFFFF" enable-background="new    " d="M243.914,57.361
										c0.779,0.097,1.492-0.451,1.588-1.222c0.096-0.769-0.464-1.474-1.243-1.569c-0.784-0.098-1.489,0.452-1.585,1.221
										C242.58,56.562,243.13,57.264,243.914,57.361z"/>
								</g>
							</g>
						</g>
					</g>
					<g>
						<g>
							<g>
								<g>
									<defs>
										<path id="SVGID_13_" d="M241.001,54.365c-1.414,4.357,6.345,6.403,8.756,3.285
											C248.859,53.864,242.012,51.888,241.001,54.365z"/>
									</defs>
									<clipPath id="SVGID_14_">
										<use xlink:href="#SVGID_13_"  overflow="visible"/>
									</clipPath>
									<path opacity="0.102" clip-path="url(#SVGID_14_)" fill="#FFFFFF" enable-background="new    " d="M244.643,57.346
										c0.549,0.067,1.043-0.325,1.107-0.865c0.068-0.545-0.316-1.042-0.861-1.109c-0.547-0.068-1.043,0.319-1.109,0.865
										C243.711,56.777,244.1,57.279,244.643,57.346z"/>
								</g>
							</g>
						</g>
					</g>
					<g>
						<g>
							<g>
								<g>
									<defs>
										<path id="SVGID_15_" d="M241.001,54.365c-1.414,4.357,6.345,6.403,8.756,3.285
											C248.859,53.864,242.012,51.888,241.001,54.365z"/>
									</defs>
									<clipPath id="SVGID_16_">
										<use xlink:href="#SVGID_15_"  overflow="visible"/>
									</clipPath>
									<path opacity="0.2" clip-path="url(#SVGID_16_)" fill="#FFFFFF" enable-background="new    " d="M245.502,56.14
										c0.355,0.044,0.682-0.204,0.723-0.548c0.043-0.348-0.213-0.661-0.566-0.705c-0.357-0.044-0.682,0.198-0.725,0.545
										C244.891,55.776,245.145,56.094,245.502,56.14z"/>
								</g>
							</g>
						</g>
					</g>
					<g>
						<g>
							<g>
								<g>
									<defs>
										<path id="SVGID_17_" d="M241.001,54.365c-1.414,4.357,6.345,6.403,8.756,3.285
											C248.859,53.864,242.012,51.888,241.001,54.365z"/>
									</defs>
									<clipPath id="SVGID_18_">
										<use xlink:href="#SVGID_17_"  overflow="visible"/>
									</clipPath>
									<g clip-path="url(#SVGID_18_)">
										<path d="M243.95,57.285c0.515,0.063,0.979-0.299,1.043-0.818c0.063-0.515-0.3-0.98-0.813-1.045
											c-0.517-0.064-0.984,0.302-1.048,0.815C243.068,56.756,243.436,57.222,243.95,57.285z"/>
										<path opacity="0.6" fill="#FFFFFF" enable-background="new    " d="M244.257,56.644c0.278,0.034,0.533-0.157,0.566-0.435
											c0.034-0.279-0.165-0.533-0.443-0.567c-0.276-0.034-0.524,0.166-0.56,0.444C243.785,56.362,243.98,56.608,244.257,56.644z
											"/>
									</g>
								</g>
							</g>
						</g>
					</g>
				</g>
			</g>
			<path fill="#231F20" d="M270.979,59.887"/>
		</g>
	</g>
	<g>
		<path fill="#FFCBA6" d="M289.339,54.235c0.688,3.602-4.903,9.222-5.642,9.07l0.648-11.081
			C286.716,50.086,288.879,51.829,289.339,54.235z"/>
		<path opacity="0.502" fill="#E0AE8E" enable-background="new    " d="M285.491,58.244c0.385,0.361,0.581-1.937,0.979-2.28
			c0.396-0.344,1.115,0.689,1.399,0.221c0.282-0.47,0.836-2.065,0.295-3.039c-0.499-1.015-2.202-1.461-3.679-0.162
			C284.782,54.594,285.198,56.633,285.491,58.244z"/>
	</g>
	<g>
		<path fill="#FFCBA6" d="M293.288,58.043c-1.453,5.03-7.55,6.433-8.388,5.765l3.336-11.551
			C292.633,51.065,294.26,54.681,293.288,58.043z"/>
		
			<ellipse transform="matrix(0.2778 -0.9606 0.9606 0.2778 147.9811 321.3156)" fill="#D0202C" cx="287.694" cy="62.237" rx="1.021" ry="1.038"/>
		<path opacity="0.502" fill="#E0AE8E" enable-background="new    " d="M285.792,60.659c0.257,0.709,1.993-2.093,2.722-2.274
			c0.729-0.18,0.979,1.604,1.641,1.189c0.666-0.415,2.402-2.091,2.345-3.68c0.021-1.618-1.858-3.287-4.582-2.587
			C287.248,55.55,286.459,58.417,285.792,60.659z"/>
		<polygon fill="#525252" points="323.579,105.531 318.568,138.268 316.458,138.884 308.942,119.529 305.91,118.913 
			302.086,136.823 300.108,136.823 293.885,104.543 		"/>
		<polygon fill="#333332" points="304.167,137.829 303.77,139.607 294.223,139.807 292.831,138.027 299.394,136.445 
			301.979,136.643 		"/>
		<polygon fill="#333332" points="320.646,138.695 320.466,141.535 312.218,142.245 310.066,140.352 316.7,137.038 319.211,137.512 
					"/>
		<path fill="#333332" d="M307.898,71.419c4.908-0.426,12.678,0.852,15.302,3.083c1.396,6.43-1.114,16.729-1.11,21.63
			c0.004,4.902,1.455,6.468,1.774,10.931c-2.119,6.349-14.623,5.198-17.793,5.445l-0.894-3.852l-0.892,3.852
			c-5.278,0.09-10.068-2.58-11.813-4.662c0.521-2.13,1.047-5.004,1.258-10.134c0.213-5.131-2.353-16.267,0.01-20.647
			C296.104,72.682,302.99,71.848,307.898,71.419z"/>
		<path fill="#FFFFFF" d="M311.648,73.127l-8.16,20.178l-2.223-18.831C303.744,70.994,309.773,71.91,311.648,73.127z"/>
		<path fill="#FFCBA6" d="M309.585,69.049c-0.029,1.821,0.021,4.076-0.008,5.897l-4.251,3.758l-1.209-3.323l-0.608-6.323
			L309.585,69.049z"/>
		<polygon fill="#CC4192" points="303.72,78.738 304.295,80.486 302.29,83.557 303.798,91.591 307.662,83.214 305.736,80.605 
			307.562,78.32 306.863,76.729 304.244,76.729 		"/>
		<path fill="#525252" d="M303.946,73.128l-0.297-1.328c-1.522,0.162-2.679,0.471-4.425,1.373l-0.494,5.386l3.109-0.281l-2.816,1.77
			l4.062,15.934l10.524-16.935l-3.149-1.465l4.076-0.417l0.175-5.444c-1.055-0.514-3.438-0.438-5.157-0.658v1.402l1.109,1.377
			l-6.684,16.794l-1.882-16.368L303.946,73.128z"/>
		<path opacity="0.102" enable-background="new    " d="M323.445,108.795l-4.48,27.832l-1.495,1.07l-0.746-25.69
			C318.63,111.367,321.595,110.801,323.445,108.795z"/>
		<path fill="#FFCBA6" d="M281.48,49.195c-0.123-2.751-0.871-14.233,6.086-17.251c2.115-3.887-0.502-5.763,7.049-6.196
			l33.994,10.669c6.08,3.644,2.489,7.234,2.478,11.391c8.283-3.142,6.946,10.01-3.121,12.732c-0.503,2.013-1.754,6.854-5.516,8.011
			c-5.766,1.664-18.563,5.294-32.025,1.751c-2.457-0.684-6.372-3.681-7.032-15.416C282.223,53.374,282.709,52.062,281.48,49.195z"/>
		<path fill="#7A4B47" d="M296.697,14.207c6.624-0.125,12.446,3.816,20.114,7.374c14.854,3.581,18.78,7.95,18.871,14.22
			c2.156,10.657,0.344,17.125-2.111,18.165l-2.392-5.874l-3.527,11.654l-5.308,3.878c2.688-3.704,2.409-7.534,3.615-11.302
			c-0.109-3.522,1.537-12.211-5.438-15.628c-4.984-2.838-21.547-1.644-26.515,1.131c-4.397-2.536-9.866-3.13-11.45,0.324
			c-6.244,0.309-11.218-10.136-5.484-15.818C279.047,18.662,290.075,14.332,296.697,14.207z"/>
		<path fill="#FFCBA6" d="M297.346,60.172c1.313-1.593-2.134-1.908-2.632-3.434c-0.47-0.856-0.831,2.125-1.721,3.167L297.346,60.172
			z"/>
		<circle fill="#ED8039" cx="288.795" cy="57.825" r="0.099"/>
		<circle fill="#ED8039" cx="289.583" cy="58.684" r="0.23"/>
		<circle fill="#ED8039" cx="286.645" cy="60.271" r="0.231"/>
		
			<ellipse transform="matrix(0.0426 -0.9991 0.9991 0.0426 216.1496 346.8859)" fill="#ED8039" cx="289.068" cy="60.664" rx="0.149" ry="0.131"/>
		<circle fill="#ED8039" cx="300.262" cy="58.121" r="0.099"/>
		<circle fill="#ED8039" cx="301.279" cy="57.472" r="0.231"/>
		<circle fill="#ED8039" cx="302.23" cy="60.68" r="0.231"/>
		
			<ellipse transform="matrix(-0.9682 -0.2503 0.2503 -0.9682 582.03 190.8547)" fill="#ED8039" cx="303.152" cy="58.413" rx="0.147" ry="0.132"/>
		<path fill="#F2A37D" d="M297.436,60.24c0.008,0.51-2.115,0.834-2.871,0.802c-0.754-0.032-2.176-0.871-1.66-0.997
			C293.02,59.689,295.716,59.95,297.436,60.24z"/>
		<path fill="#864827" d="M321.1,47.463c-1.188-0.393-11.561-2.965-13.862-1.645C306.375,40.556,323.531,45.228,321.1,47.463z"/>
		<path fill="#FFBF93" d="M316.354,58.249c-1.892,1.16-7.236,2.199-11.006-1.79C309.477,59.094,314.167,58.637,316.354,58.249z"/>
		
			<ellipse transform="matrix(0.0423 -0.9991 0.9991 0.0423 224.8172 353.6105)" opacity="0.2" fill="#FFFFFF" enable-background="new    " cx="296.864" cy="59.533" rx="0.346" ry="0.527"/>
		<path fill="#864827" d="M281.477,48.242c1.873-0.89,7.973-2.675,9.315-1.32C291.958,43.106,279.285,45.569,281.477,48.242z"/>
		<path fill="#FFCBA6" d="M336.956,52.478c-0.225,5.237-9.849,11.219-10.822,10.767l4.537-15.201
			C334.669,45.847,337.106,48.981,336.956,52.478z"/>
		<path fill="#FFFFFF" d="M318.975,53.307c0.021-6.188-12.885-6.411-13.722-0.073c-0.035,0.37-0.787,0.732-0.796,1.087
			c-0.009,0.354,0.581,0.652,0.744,1.037C306.87,59.076,317.536,60.349,318.975,53.307z"/>
		
			<ellipse transform="matrix(0.0432 -0.9991 0.9991 0.0432 242.0056 359.867)" fill="#7A3331" cx="308.882" cy="53.587" rx="3.098" ry="3.328"/>
		<path fill="#F5D8E6" d="M305.143,55.088c-0.066,0.106-0.806-0.258-0.885-0.442c-0.078-0.184,0.271-0.729,0.411-0.666
			C304.754,54.43,304.776,54.721,305.143,55.088z"/>
		
			<ellipse transform="matrix(0.0431 -0.9991 0.9991 0.0431 241.5227 359.3397)" opacity="0.102" fill="#FFFFFF" enable-background="new    " cx="308.343" cy="53.591" rx="2.324" ry="2.305"/>
		
			<ellipse transform="matrix(0.0429 -0.9991 0.9991 0.0429 242.1254 361.0948)" opacity="0.102" fill="#FFFFFF" enable-background="new    " cx="309.535" cy="54.171" rx="1.615" ry="1.632"/>
		<circle opacity="0.2" fill="#FFFFFF" enable-background="new    " cx="310.707" cy="52.649" r="1.071"/>
		<circle cx="308.132" cy="53.083" r="1.121"/>
		<path fill="#7A3331" d="M318.772,52.277c-0.066,3.532-2.912,6.08-7.412,6.184c5.35,0.896,7.778-3.237,8.311-6.065
			c0.055-0.471-0.08-2.172-2.316-3.207c-1.132-0.468-10.518-3.221-12.044,3.517C306.866,46.354,318.24,48.545,318.772,52.277z"/>
		<path fill="#FFFFFF" d="M291.682,54.028c-0.742-4.688-9.342-6.477-9.688-1.388c-0.271,4.743,7.298,6.327,9.506,2.336
			C292.148,55.015,291.896,54.317,291.682,54.028z"/>
		<path fill="#F5D8E6" d="M291.48,55.168c0.045,0.102,0.605-0.179,0.678-0.343c0.072-0.165-0.145-0.689-0.252-0.64
			C291.812,54.59,291.775,54.856,291.48,55.168z"/>
		
			<ellipse transform="matrix(0.0432 -0.9991 0.9991 0.0432 220.1603 336.3172)" fill="#7A3331" cx="285.662" cy="53.219" rx="2.669" ry="2.867"/>
		<circle opacity="0.102" fill="#FFFFFF" enable-background="new    " cx="285.614" cy="53.185" r="1.565"/>
		<circle opacity="0.102" fill="#FFFFFF" enable-background="new    " cx="286.421" cy="53.583" r="1.104"/>
		
			<ellipse transform="matrix(0.0427 -0.9991 0.9991 0.0427 222.4382 337.2581)" opacity="0.2" fill="#FFFFFF" enable-background="new    " cx="287.21" cy="52.554" rx="0.709" ry="0.742"/>
		<circle cx="285.158" cy="53.067" r="0.939"/>
		<path fill="#7A3331" d="M281.822,52.776c0.328,1.435,1.251,3.847,4.369,4.507c-2.695-0.64-5.162-4.152-3.049-6.422
			c1.533-1.48,5.18-1.5,7.559,1.005C287.645,48.077,281.096,48.953,281.822,52.776z"/>
		<path fill="#FFBF93" d="M291.005,56.304c-2.097,0.784-3.823,1.415-7.069,0.246C286.729,58.824,290.49,57.336,291.005,56.304z"/>
		<circle opacity="0.6" fill="#FFFFFF" enable-background="new    " cx="285.468" cy="52.749" r="0.478"/>
		<circle opacity="0.6" fill="#FFFFFF" enable-background="new    " cx="308.592" cy="52.723" r="0.478"/>
		<path opacity="0.102" enable-background="new    " d="M294.457,36.927c8.927-3.616,27.546-4.887,29.47,2.503
			c-3.999-4.78-21.841-3.937-29.933-0.944c-2.961-1.691-8.977-3.661-11.61-0.302C283.357,33.931,291.883,34.693,294.457,36.927z"/>
		<path fill="#FFFFFF" d="M292.498,66.567c1.975,2.399,7.665,0.979,9.012-0.432c0.931-0.972,1.407-2.197-0.387-1.856
			c-3.729,0.706-4.357,1.056-8.117,0.088C291.271,63.891,290.988,64.732,292.498,66.567z"/>
		<polygon opacity="0.102" enable-background="new    " points="315.887,21.608 311.928,23.921 316.401,22.276 320.299,22.543 
			316.531,21.586 312.517,19.426 		"/>
		<path fill="#CAC9CA" d="M293.6,21.382c-2.922,1.775-4.812,9.864,0.217,14.821C290.654,31.683,291.544,23.608,293.6,21.382z"/>
		<path fill="#333332" d="M319.907,78.453l4.641,18.268l-5.188,12.812c1.514,0.744,3.024,0.472,3.929-0.614l4.741-11.89
			l-3.797-21.159C322.976,72.971,320.468,75.967,319.907,78.453z"/>
		<path fill="#333332" d="M297.975,79.493L292.18,95.57l5.008,12.882c-1.51,0.743-3.021,0.472-3.926-0.613L288.658,94.6l4.99-17.688
			C294.907,74.011,297.413,77.008,297.975,79.493z"/>
		<path opacity="0.502" fill="#E0AE8E" enable-background="new    " d="M330.291,56.792c0.416,0.628,1.442-2.503,2.105-2.851
			c0.663-0.347,1.328,1.328,1.878,0.767c0.547-0.56,1.84-2.599,1.405-4.129c-0.359-1.576-2.584-2.755-5.062-1.432
			C330.499,51.483,330.409,54.455,330.291,56.792z"/>
	</g>
</g>
</svg>
