<?xml version="1.0" encoding="utf-8"?>
<!-- Generator: Adobe Illustrator 15.1.0, SVG Export Plug-In . SVG Version: 6.00 Build 0)  -->
<!DOCTYPE svg PUBLIC "-//W3C//DTD SVG 1.1//EN" "http://www.w3.org/Graphics/SVG/1.1/DTD/svg11.dtd">
<svg version="1.1" id="Calque_1" xmlns="http://www.w3.org/2000/svg" xmlns:xlink="http://www.w3.org/1999/xlink" x="0px" y="0px"
	 width="400px" height="150px" viewBox="0 0 400 150" enable-background="new 0 0 400 150" xml:space="preserve">
<rect x="-6.404" y="-7.424" fill="#F6ECE3" width="418.479" height="157.424"/>
<rect x="-6.404" y="114.079" fill="#998675" width="418.479" height="35.813"/>
<rect x="-6.404" y="117.335" fill="#CCCCCC" width="418.479" height="32.665"/>
<g>
	<polygon opacity="0.1" fill="#F7B844" points="-6.404,116 442,116 442,23.105 	"/>
</g>
<g>
	<g>
		<rect x="70.884" y="26.53" fill="#E84E68" width="101.501" height="58.333"/>
		<rect x="72.75" y="28.164" fill="#2C2D29" width="97.768" height="55.067"/>
		<g>
			<polygon fill="#F2F2F2" points="110.963,52.938 110.993,52.936 110.915,52.914 			"/>
			<path fill="#F2F2F2" d="M110.799,52.822h-0.053l0.218,0.08C111.093,52.887,110.712,52.832,110.799,52.822z"/>
			<path fill="#F2F2F2" d="M110.822,52.807c0.055-0.018-0.049-0.038-0.085-0.046C110.818,52.776,110.709,52.802,110.822,52.807z"/>
			<path fill="#F2F2F2" d="M111.023,42.817L111.023,42.817C110.821,42.692,110.882,42.729,111.023,42.817z"/>
			<polygon fill="#F2F2F2" points="113.29,51.26 113.3,51.185 113.298,51.142 			"/>
			<path fill="#F2F2F2" d="M113.255,51.446l0.003,0.08l0.025-0.338C113.272,50.998,113.262,51.575,113.255,51.446z"/>
			<path fill="#F2F2F2" d="M113.229,51.546c0.003-0.123,0.02,0.037,0.017-0.134C113.236,51.334,113.231,51.492,113.229,51.546z"/>
			<path fill="#F2F2F2" d="M113.222,51.289c-0.026-0.111-0.048,0.219-0.072,0.056l0.002-0.085c-0.017-0.055-0.002,0.215-0.021,0.104
				c-0.008-0.07,0.003-0.108-0.001-0.115c-0.037,0.035-0.076-0.043-0.112,0.166c-0.009-0.186-0.04-0.006-0.054-0.185
				c-0.01,0.074-0.02,0.056-0.022,0.179c-0.132-0.098-0.265,0.083-0.399,0.067c-0.063,0.362-0.139-0.068-0.213,0.052v-0.036
				c-0.023,0.089-0.058,0.131-0.088,0.084l-0.024,0.154c-0.175-0.314-0.353-0.093-0.53-0.223c-0.201-0.091-0.376-0.35-0.572,0.125
				l0.003-0.069c-0.057,0.073-0.107-0.056-0.161,0.018v-0.035c-0.011,0.023-0.021,0.035-0.03,0.051
				c-0.007-0.116-0.012-0.232,0.003-0.347c-0.228-0.161,0.074-0.299,0.009-0.47l0.024,0.002c-0.054-0.059-0.074-0.14-0.037-0.2
				l-0.097-0.063c0.243-0.364,0.134-0.77,0.258-1.151c0.102-0.437,0.31-0.809,0.034-1.269l0.046,0.012
				c-0.036-0.129,0.061-0.234,0.021-0.355l0.024,0.001c-0.171-0.309,0.082-0.602-0.104-0.902c0.053-0.339,0.067-0.727,0.042-1.094
				l0.048,0.006c-0.074-0.299,0.204-0.555,0.155-0.85c0.137-0.287-0.215-0.635-0.041-0.921c0.25-0.162-0.226-0.453,0.031-0.604
				c0.005-0.004,0.007-0.009,0.012-0.012c0.06,0.05,0.078,0.03,0.128,0.058c-0.003-0.058,0.024-0.097,0.056-0.136l0.046-0.062
				l0.019-0.038l0.009-0.02l0.001-0.005v-0.001l0,0c0.027,0.017-0.008-0.005-0.071-0.044c0.031-0.083,0.036-0.168,0.025-0.254
				c-0.268-0.093-0.363-0.056-0.406,0.021c-0.05-0.03-0.096-0.058-0.137-0.082h0.001v0.001l0.002,0.002l0.008,0.009
				c-0.101,0.003,0.036,0.076-0.109,0.066c0.087,0.093,0.127,0.187,0.138,0.282c-0.012,0.015-0.023,0.03-0.041,0.041
				c-0.35,0.067-0.45,0.527-0.862,0.475c-0.036,0.225-0.383-0.006-0.498,0.126l0.037,0.046c-0.147-0.119,0.021,0.284-0.154,0.08
				l-0.002-0.015c-0.099-0.096,0.108,0.309,0.005,0.184l0.032,0.059c-0.022,0.037-0.045-0.062-0.084-0.067
				c-0.006,0.013,0.062,0.104,0.021,0.085c-0.151-0.228-0.048,0.101-0.215-0.157c0.019-0.011-0.091-0.083-0.087-0.162
				c-0.028-0.02-0.074,0.029,0,0.135c0.069,0.121,0.113,0.236,0.204,0.305l-0.048-0.089c0.065,0.078,0.035,0.036,0.081,0.098
				c0.05-0.016,0.134,0.104,0.198,0.134l-0.006-0.009c-0.044-0.116,0.023-0.074,0.051-0.071l0.037,0.044
				c0.072,0.093-0.074-0.225,0.021-0.047c0.062-0.099,0.166-0.161,0.264-0.225c-0.028-0.074,0.079-0.043-0.021-0.153
				c0.114,0.125,0.211,0.114,0.235,0.091l0.009,0.028c0.17,0.15-0.046-0.21,0.147-0.018c-0.095-0.164,0.122-0.006,0.033-0.211
				l0.065,0.091c0.092-0.054,0.227-0.059,0.308-0.101c-0.016-0.116,0.071-0.098,0.116-0.132c0.082,0.032,0.183,0.067,0.251,0.098
				l-0.038-0.008c0.023,0.051-0.124,0.082-0.102,0.132l-0.047-0.013c0.062,0.051-0.125,0.082-0.018,0.146l-0.038-0.001l0.051,0.04
				c-0.048-0.006-0.12-0.014-0.104-0.03c-0.085,0.406,0.125,0.853,0.049,1.271l-0.044-0.021l0.074,0.09l-0.046-0.013
				c-0.093,0.096,0.034,0.217,0.003,0.316c-0.022-0.002-0.068-0.021-0.096-0.01c0.124,0.088-0.183,0.104,0.086,0.167
				c-0.012,0.002-0.073-0.001-0.095-0.011c0.071,0.218,0.046,0.432-0.019,0.638c0.23,0.199-0.012,0.374,0.166,0.574l-0.048-0.005
				c0.149,0.252-0.059,0.484-0.047,0.731c-0.029,0.1,0.023,0.174,0.017,0.275l-0.062-0.002c0.218,0.193-0.244,0.34-0.004,0.543
				l-0.082-0.02c0.127,0.04-0.056,0.104,0.167,0.115l-0.069,0.025c0.279,0.148-0.157,0.209,0.019,0.375l-0.052-0.014
				c0.037,0.043,0.065,0.093,0.015,0.117l-0.036-0.015c-0.22,0.104-0.003,0.265-0.023,0.395l-0.097-0.024
				c0.109,0.074-0.009,0.18,0.037,0.268l-0.046-0.009l0.061,0.048l-0.093-0.008c-0.016,0.107,0.054,0.217,0.054,0.324l-0.083-0.014
				c0.141,0.112-0.021,0.208,0.034,0.319l-0.029-0.01c-0.059,0.26,0.06,0.517,0.099,0.785l-0.042-0.015
				c0.027,0.016,0.079,0.035,0.072,0.048l-0.047-0.013c-0.145,0.042,0.072,0.17-0.038,0.195c0.014,0.017,0.07,0.029,0.116,0.024
				c0.002,0.045,0.005,0.089,0.01,0.134c-0.066-0.006-0.131-0.005-0.192,0.15c-0.155-0.033-0.33,0-0.495,0.09v-0.07
				c-0.131,0.151-0.258-0.228-0.389-0.115c-0.135-0.162-0.278,0.41-0.414,0.194c-0.083-0.352-0.193,0.4-0.274,0.037
				c-0.162-0.548-0.318-0.195-0.481,0.133c-0.149-0.195-0.299,0.307-0.442-0.093c-0.069,0.257-0.146-0.315-0.223-0.243l0.003,0.089
				c-0.027-0.269-0.061,0.375-0.078-0.023l0.003-0.02c-0.015-0.202-0.033,0.479-0.043,0.237l-0.001,0.101
				c-0.019,0.029-0.003-0.114-0.017-0.154c-0.005,0.012-0.002,0.183-0.013,0.125c-0.002-0.41-0.043,0.088-0.043-0.372
				c0.008,0-0.016-0.177,0.005-0.274c-0.005-0.047-0.035-0.024-0.032,0.171c-0.003,0.208-0.015,0.388,0.003,0.548l0.004-0.151
				c0.007,0.151,0.005,0.076,0.007,0.189c0.023,0.02,0.026,0.239,0.044,0.33l-0.001-0.015c0.012-0.181,0.028-0.075,0.036-0.048
				l0.005,0.083c0.005,0.176,0.026-0.343,0.019-0.042c0.048-0.075,0.103-0.072,0.155-0.075c0.008-0.115,0.041,0.01,0.029-0.21
				c0.014,0.251,0.053,0.315,0.068,0.306c-0.001,0.022-0.001,0.05-0.004,0.041c0.028,0.326,0.034-0.302,0.061,0.097
				c0.003-0.284,0.049,0.09,0.063-0.242l0.004,0.17c0.047,0.005,0.101,0.107,0.141,0.121c0.036-0.247,0.085,0.112,0.115-0.229
				c0.023,0.073,0.064,0.214,0.099,0.077l-0.003,0.041c0.039-0.02,0.088-0.037,0.114-0.252c0.012,0.328,0.029,0.264,0.046,0.367
				c0.026-0.151,0.079-0.107,0.118-0.245c0.005,0.151,0.032-0.063,0.034,0.156c0.112-0.424,0.249-0.276,0.369,0.044l-0.002,0.016
				c0.016-0.12,0.032-0.386,0.049-0.542c0.002,0.02,0.002,0.056-0.003,0.056c0.022-0.042,0.042,0.174,0.064,0.134l-0.003,0.072
				c0.02-0.098,0.042,0.175,0.065,0.005l0.001,0.058l0.016-0.081c-0.001,0.072-0.001,0.181-0.01,0.157
				c0.188,0.071,0.379-0.305,0.571-0.25l-0.008,0.068l0.038-0.123l-0.004,0.072c0.047,0.122,0.097-0.082,0.143-0.052l-0.001,0.146
				c0.034-0.199,0.055,0.257,0.071-0.154c0.002,0.018,0.003,0.11-0.001,0.144c0.096-0.136,0.192-0.129,0.288-0.062
				c0.08-0.372,0.169-0.035,0.252-0.33v0.074c0.037-0.092,0.077-0.115,0.115-0.11c0.015,0.064,0.031,0.13,0.059,0.194
				c-0.021,0.008-0.059,0.007-0.105,0c0.207,0.199,0.101,0.378,0.047,0.556c0.058,0.013,0.064-0.013,0.124,0.011
				c0.079-0.052-0.135-0.121-0.022-0.164l0.056,0.011c0.04-0.035-0.142-0.021-0.065-0.054c0.049-0.011,0.072,0.011,0.077,0.004
				c-0.015-0.084,0.044-0.166-0.087-0.255c0.126-0.007,0.013-0.088,0.134-0.107c-0.048-0.026-0.033-0.046-0.113-0.062
				c0.009-0.025,0.009-0.05,0.014-0.075c0.033,0.02,0.065,0.034,0.1,0.019c0.048,0.029,0.077-0.059,0.124-0.064l0.001,0.093
				c0.078-0.352,0.164,0.316,0.245-0.071l-0.006,0.125c0.013-0.194,0.05,0.069,0.045-0.266l0.014,0.1
				c0.056-0.439,0.102,0.204,0.169-0.082l-0.005,0.08c0.019-0.061,0.039-0.111,0.053-0.037l-0.006,0.056
				c0.057,0.313,0.12-0.034,0.18-0.021l-0.008,0.146c0.029-0.172,0.082-0.011,0.12-0.091l-0.001,0.07l0.017-0.098l0.002,0.139
				c0.05,0.01,0.095-0.11,0.144-0.126l-0.002,0.126c0.044-0.225,0.094,0.004,0.142-0.095l-0.004,0.045
				c0.12,0.049,0.23-0.162,0.35-0.258l-0.004,0.064c0.005-0.042,0.012-0.124,0.018-0.114l-0.003,0.072
				c0.025,0.209,0.073-0.131,0.09,0.029c0.007-0.022,0.01-0.11,0.007-0.176c0.093-0.053,0.192-0.093,0.286-0.256
				c0.005,0.028,0.006,0.085,0.005,0.158c0.08-0.338,0.165-0.204,0.248-0.15C113.226,51.387,113.214,51.381,113.222,51.289z
				 M110.818,43.703l-0.01-0.004C110.811,43.699,110.815,43.7,110.818,43.703L110.818,43.703z"/>
			<path fill="#F2F2F2" d="M107.676,52.558c0,0.03,0.003,0.021,0.005,0.03L107.676,52.558z"/>
			<polygon fill="#F2F2F2" points="123.52,47.093 123.53,47.017 123.526,46.974 			"/>
			<path fill="#F2F2F2" d="M123.481,47.279l0.002,0.081l0.029-0.337C123.5,46.831,123.49,47.407,123.481,47.279z"/>
			<path fill="#F2F2F2" d="M123.457,47.379c0.003-0.123,0.02,0.037,0.018-0.133C123.463,47.167,123.459,47.325,123.457,47.379z"/>
			<path fill="#F2F2F2" d="M123.449,47.121c-0.028-0.111-0.052,0.219-0.076,0.057l0.004-0.086c-0.02-0.054-0.005,0.217-0.022,0.106
				c-0.009-0.072,0.001-0.109-0.002-0.116c-0.039,0.037-0.079-0.042-0.116,0.167c-0.009-0.186-0.041-0.007-0.056-0.185
				c-0.01,0.075-0.021,0.056-0.023,0.178c-0.136-0.098-0.273,0.083-0.412,0.068c-0.064,0.362-0.144-0.069-0.22,0.052v-0.037
				c-0.024,0.089-0.062,0.131-0.092,0.085l-0.025,0.153c-0.18-0.314-0.364-0.094-0.547-0.224c-0.208-0.09-0.391-0.35-0.593,0.126
				l0.003-0.068c-0.058,0.072-0.111-0.058-0.166,0.017v-0.036c-0.137,0.296-0.284-0.04-0.416,0.281
				c-0.02-0.004-0.04-0.004-0.061-0.006c0.008-0.133-0.018-0.274-0.078-0.412l0.071,0.006c-0.142-0.154,0.245-0.271,0.141-0.423
				c0.17-0.137-0.391-0.328-0.165-0.465c0.356-0.071-0.386-0.238-0.02-0.304c0.558-0.145,0.216-0.339-0.102-0.537
				c0.204-0.154-0.285-0.348,0.122-0.483c-0.25-0.091,0.325-0.14,0.257-0.229l-0.089-0.001c0.27-0.014-0.37-0.089,0.029-0.085
				l0.019,0.004c0.202-0.004-0.476-0.066-0.233-0.061l-0.101-0.009c-0.027-0.021,0.113,0.004,0.155-0.008
				c-0.013-0.006-0.183-0.013-0.124-0.022c0.409,0.023-0.086-0.052,0.374-0.025c-0.002,0.01,0.178-0.006,0.273,0.024
				c0.047-0.004,0.025-0.039-0.169-0.047c-0.207-0.015-0.388-0.039-0.548-0.028l0.15,0.014c-0.151-0.004-0.076,0-0.188-0.005
				c-0.021,0.025-0.241,0.015-0.331,0.028h0.015c0.18,0.024,0.072,0.036,0.044,0.044l-0.083-0.002
				c-0.177-0.004,0.342,0.05,0.041,0.024c0.07,0.057,0.064,0.117,0.063,0.176c0.114,0.015-0.013,0.043,0.209,0.044
				c-0.253-0.001-0.319,0.039-0.311,0.056c-0.022-0.002-0.051-0.003-0.041-0.006c-0.328,0.012,0.3,0.055-0.1,0.061
				c0.282,0.023-0.095,0.047,0.235,0.085l-0.168-0.007c-0.01,0.053-0.115,0.105-0.131,0.149c0.244,0.053-0.117,0.086,0.222,0.14
				c-0.075,0.023-0.219,0.058-0.084,0.104l-0.041-0.006c0.018,0.044,0.032,0.099,0.244,0.142c-0.327-0.007-0.265,0.015-0.369,0.027
				c0.15,0.038,0.102,0.093,0.236,0.146c-0.151-0.003,0.062,0.04-0.157,0.028c0.415,0.149,0.26,0.291-0.069,0.402
				c0.125,0.024,0.373,0.058,0.523,0.084c-0.02,0-0.056-0.002-0.056-0.005c0.04,0.026-0.178,0.036-0.139,0.062l-0.069-0.008
				c0.096,0.028-0.178,0.035-0.011,0.072l-0.059-0.002l0.082,0.021c-0.072-0.004-0.184-0.011-0.157-0.02
				c-0.084,0.202,0.279,0.436,0.212,0.643l-0.068-0.012l0.12,0.048l-0.07-0.008c-0.126,0.044,0.075,0.111,0.041,0.16l-0.145-0.011
				c0.195,0.05-0.26,0.045,0.147,0.089c-0.018,0-0.11-0.004-0.144-0.01c0.131,0.113,0.115,0.22,0.043,0.322
				c0.121,0.036,0.162,0.069,0.176,0.101c-0.026,0.011-0.053,0.021-0.078,0.035V47.68c-0.136,0.151-0.267-0.228-0.403-0.115
				c-0.139-0.162-0.285,0.41-0.426,0.193c-0.087-0.352-0.201,0.4-0.283,0.038c-0.167-0.548-0.331-0.196-0.498,0.133
				c-0.154-0.196-0.31,0.306-0.459-0.093c-0.071,0.256-0.148-0.316-0.229-0.243l0.002,0.089c-0.028-0.269-0.062,0.375-0.08-0.023
				l0.003-0.02c-0.015-0.202-0.034,0.479-0.045,0.237l-0.002,0.101c-0.018,0.029-0.001-0.114-0.016-0.154
				c-0.005,0.012-0.002,0.183-0.013,0.125c-0.002-0.409-0.045,0.089-0.046-0.372c0.011,0-0.016-0.177,0.006-0.274
				c-0.006-0.048-0.036-0.025-0.033,0.171c-0.003,0.208-0.015,0.388,0.005,0.548l0.002-0.151c0.007,0.151,0.006,0.075,0.008,0.188
				c0.024,0.02,0.027,0.239,0.045,0.33v-0.016c0.012-0.181,0.028-0.075,0.038-0.048l0.003,0.085
				c0.006,0.175,0.027-0.345,0.021-0.043c0.048-0.075,0.104-0.072,0.16-0.075c0.008-0.114,0.042,0.011,0.029-0.209
				c0.014,0.251,0.056,0.315,0.071,0.305c-0.001,0.023-0.001,0.051-0.005,0.042c0.03,0.327,0.036-0.303,0.063,0.097
				c0.004-0.284,0.05,0.09,0.066-0.242l0.003,0.17c0.049,0.005,0.104,0.108,0.146,0.121c0.035-0.247,0.087,0.111,0.117-0.23
				c0.027,0.074,0.067,0.215,0.104,0.077l-0.004,0.042c0.04-0.021,0.092-0.038,0.118-0.252c0.013,0.328,0.029,0.263,0.047,0.366
				c0.027-0.151,0.081-0.106,0.122-0.244c0.007,0.151,0.034-0.065,0.037,0.155c0.114-0.424,0.258-0.276,0.38,0.044
				c0.016-0.125,0.033-0.376,0.049-0.526c0.001,0.021,0.001,0.056-0.003,0.056c0.023-0.042,0.044,0.174,0.066,0.133l-0.004,0.071
				c0.021-0.098,0.044,0.175,0.068,0.005l0.001,0.058l0.018-0.081c-0.001,0.072-0.002,0.181-0.01,0.157
				c0.191,0.071,0.391-0.305,0.588-0.25l-0.007,0.069l0.039-0.123l-0.004,0.071c0.05,0.122,0.1-0.082,0.147-0.05l-0.002,0.145
				c0.036-0.198,0.058,0.257,0.075-0.153c0.001,0.018,0.002,0.111-0.002,0.145c0.032-0.043,0.064-0.068,0.096-0.085
				c-0.019,0.033-0.03,0.064-0.019,0.099c-0.033,0.048,0.053,0.088,0.055,0.14l-0.093-0.005c0.346,0.107-0.326,0.161,0.056,0.274
				l-0.125-0.013c0.192,0.025-0.072,0.049,0.262,0.064l-0.102,0.01c0.435,0.087-0.211,0.098,0.07,0.19l-0.079-0.009
				c0.06,0.023,0.108,0.049,0.033,0.06l-0.055-0.009c-0.316,0.043,0.024,0.133,0.01,0.198l-0.147-0.016
				c0.171,0.041,0.007,0.09,0.085,0.136l-0.071-0.007l0.097,0.027l-0.139-0.008c-0.013,0.054,0.104,0.111,0.117,0.166l-0.126-0.011
				c0.222,0.063-0.01,0.104,0.086,0.161l-0.046-0.005c-0.057,0.129,0.146,0.264,0.235,0.401l-0.064-0.009
				c0.042,0.009,0.122,0.021,0.111,0.027l-0.07-0.008c-0.211,0.015,0.126,0.089-0.036,0.097c0.023,0.009,0.109,0.018,0.176,0.017
				c0.047,0.106,0.081,0.218,0.237,0.332c-0.03,0.003-0.087,0-0.157-0.005c0.332,0.109,0.191,0.195,0.131,0.283
				c0.089,0.009,0.096-0.004,0.188,0.01c0.111-0.021-0.216-0.066-0.051-0.083l0.084,0.009c0.056-0.016-0.215-0.018-0.104-0.03
				c0.071-0.005,0.109,0.008,0.115,0.005c-0.032-0.044,0.048-0.082-0.158-0.133c0.187,0.001,0.01-0.043,0.189-0.048
				c-0.074-0.015-0.055-0.025-0.178-0.036c0.106-0.138-0.064-0.296-0.041-0.443c-0.357-0.09,0.077-0.146-0.038-0.236l0.037,0.001
				c-0.088-0.032-0.128-0.073-0.08-0.103l-0.15-0.036c0.325-0.173,0.116-0.382,0.259-0.569c0.103-0.217,0.374-0.395-0.088-0.639
				l0.068,0.008c-0.068-0.066,0.064-0.116-0.008-0.178l0.035,0.002c-0.162-0.093-0.123-0.176-0.114-0.261
				c0.022-0.015,0.044-0.049,0.066-0.124l-0.001,0.074c0.11-0.26,0.227,0.018,0.343-0.035c0.047,0.029,0.079-0.058,0.127-0.062
				l0.001,0.092c0.081-0.352,0.17,0.317,0.253-0.07l-0.006,0.125c0.014-0.194,0.052,0.069,0.047-0.265l0.016,0.1
				c0.057-0.44,0.103,0.205,0.173-0.082l-0.004,0.08c0.018-0.062,0.04-0.111,0.055-0.038l-0.007,0.056
				c0.059,0.312,0.123-0.034,0.186-0.021l-0.008,0.146c0.029-0.172,0.084-0.012,0.123-0.091l-0.002,0.069l0.02-0.098l0.001,0.139
				c0.05,0.01,0.099-0.11,0.147-0.126l-0.002,0.126c0.047-0.225,0.099,0.003,0.146-0.095l-0.002,0.045
				c0.123,0.049,0.237-0.162,0.36-0.258l-0.004,0.065c0.005-0.043,0.012-0.125,0.019-0.114l-0.004,0.072
				c0.025,0.209,0.076-0.132,0.093,0.028c0.006-0.023,0.01-0.109,0.006-0.175c0.096-0.054,0.199-0.094,0.298-0.257
				c0.004,0.029,0.005,0.086,0.004,0.158c0.083-0.338,0.171-0.204,0.258-0.148C123.451,47.219,123.439,47.214,123.449,47.121z"/>
			<polygon fill="#F2F2F2" points="119.234,48.535 119.234,48.535 119.232,48.551 			"/>
			<path fill="#F2F2F2" d="M117.717,48.391c0,0.03,0.004,0.022,0.007,0.03L117.717,48.391z"/>
			<polygon fill="#F2F2F2" points="121.066,50.854 121.11,50.854 120.994,50.839 			"/>
			<path fill="#F2F2F2" d="M120.81,50.788l-0.08-0.002l0.334,0.05C121.256,50.833,120.68,50.788,120.81,50.788z"/>
			<path fill="#F2F2F2" d="M120.843,50.781c0.08-0.006-0.078-0.021-0.132-0.027C120.833,50.766,120.672,50.773,120.843,50.781z"/>
			<polygon fill="#F2F2F2" points="119.829,46.19 119.829,46.19 119.814,46.187 			"/>
			<path fill="#F2F2F2" d="M120.073,44.583c-0.031-0.001-0.024,0.003-0.031,0.004L120.073,44.583z"/>
			<polygon fill="#F2F2F2" points="134.014,52.399 134.065,52.33 134.061,52.286 			"/>
			<path fill="#F2F2F2" d="M133.841,52.56l-0.005,0.08l0.161-0.316C133.978,52.127,133.853,52.691,133.841,52.56z"/>
			<path fill="#F2F2F2" d="M133.725,52.644c0.034-0.12,0.072,0.049,0.09-0.121C133.785,52.438,133.742,52.591,133.725,52.644z"/>
			<path fill="#F2F2F2" d="M133.437,45.936c0.176-0.484-0.691-0.521-0.561-0.959c0.107-0.862-0.767-1.273-1.466-1.166
				c-0.546-0.403-1.067,0.126-1.678-0.026c-0.129,0.336-0.672-0.026-0.909,0.238l0.061,0.065c-0.258-0.148,0.027,0.445-0.272,0.179
				l-0.003-0.022c-0.179-0.114,0.201,0.453,0.02,0.292l0.06,0.082c-0.031,0.068-0.081-0.08-0.148-0.073
				c-0.006,0.022,0.118,0.14,0.048,0.126c-0.289-0.293-0.062,0.179-0.389-0.143c0.03-0.03-0.175-0.077-0.174-0.214
				c-0.051-0.018-0.14,0.108,0.015,0.23c0.147,0.146,0.254,0.299,0.418,0.356l-0.102-0.113c0.125,0.088,0.065,0.041,0.153,0.113
				c0.077-0.049,0.237,0.099,0.343,0.125l-0.011-0.012c-0.095-0.158,0.023-0.122,0.063-0.122l0.065,0.054
				c0.127,0.12-0.151-0.321,0.024-0.077c0.081-0.167,0.245-0.285,0.402-0.392c-0.039-0.11,0.131-0.065-0.021-0.233
				c0.176,0.192,0.317,0.172,0.359,0.148c0.01,0.022,0.02,0.046,0.01,0.042c0.225,0.256-0.026-0.322,0.219,0.005
				c-0.095-0.275,0.17,0.027,0.106-0.297l0.062,0.158c0.148-0.056,0.318,0.034,0.425,0.027c0.09-0.261,0.208,0.119,0.32-0.228
				c0.069,0.083,0.129,0.256,0.261,0.141l-0.021,0.037c0.112-0.001,0.229,0.07,0.417-0.087c-0.131,0.304-0.055,0.253-0.074,0.379
				c0.145-0.074,0.243,0.062,0.439,0.04c-0.088,0.114,0.12,0.04-0.031,0.197c0.568-0.024,0.78,0.555,0.687,1.076
				c0.134-0.008,0.386-0.063,0.547-0.075c-0.016,0.014-0.048,0.029-0.054,0.017c0.073,0.061-0.088,0.225-0.015,0.283l-0.071,0.017
				c0.122,0.031-0.093,0.216,0.103,0.231l-0.052,0.028l0.101,0.021c-0.067,0.027-0.17,0.066-0.16,0.029
				c0.146,0.616,0.791,1.302,0.433,1.77l-0.046-0.05l0.041,0.149l-0.05-0.054c-0.123,0.028-0.153,0.232-0.291,0.301
				c-0.016-0.032-0.031-0.106-0.065-0.131c0.004,0.241-0.262-0.176-0.159,0.23c-0.011-0.015-0.047-0.101-0.048-0.136
				c-0.249,0.249-0.652,0.302-1.03,0.29c-0.261,0.413-0.672,0.126-0.965,0.461l-0.01-0.074c-0.392,0.32-0.897,0.132-1.334,0.336
				c-0.19,0.049-0.277,0.182-0.448,0.262l-0.05-0.079c-0.06,0.453-0.812,0.178-0.722,0.756l-0.089-0.09
				c0.129,0.151-0.19,0.143,0.112,0.291l-0.119,0.001c0.332,0.383-0.334,0.323-0.142,0.677l-0.077-0.034
				c0.055,0.087,0.099,0.176,0.021,0.22l-0.053-0.03c-0.264,0.186-0.146,0.552,0.116,0.692l-0.049,0.141
				c0.143-0.152,0.329,0.039,0.492-0.016l-0.02,0.067l0.092-0.084l-0.02,0.137c0.196,0.041,0.401-0.049,0.596-0.035l-0.029,0.124
				c0.214-0.194,0.381,0.063,0.586-0.004l-0.019,0.042c0.473,0.124,0.95-0.015,1.442-0.036l-0.028,0.062
				c0.03-0.04,0.068-0.115,0.093-0.101l-0.026,0.068c0.068,0.223,0.316-0.083,0.354,0.085c0.031-0.019,0.058-0.102,0.053-0.171
				c0.382,0.006,0.788,0.029,1.194-0.073c0.013,0.031,0.008,0.088-0.008,0.158c0.378-0.283,0.697-0.096,1.022,0.009
				c0.026-0.085-0.02-0.099,0.027-0.186c-0.091-0.125-0.229,0.186-0.301,0.01l0.025-0.082c-0.062-0.065-0.049,0.212-0.104,0.09
				c-0.018-0.074,0.024-0.106,0.012-0.115c-0.155,0.011-0.3-0.089-0.475,0.094c-0.005-0.189-0.16-0.031-0.188-0.216
				c-0.05,0.067-0.087,0.043-0.12,0.162c-0.51-0.179-1.075-0.084-1.612-0.184c-0.307,0.318-0.543-0.155-0.86-0.082l0.006-0.036
				c-0.111,0.072-0.26,0.092-0.37,0.029l-0.122,0.136c-0.325-0.21-0.675-0.289-1.03-0.345l-0.283-0.042
				c0.002-0.042,0.013-0.068,0.04-0.058c0.188-0.771,0.51-0.924,0.859-1.645c0.016,0.032,0.03,0.047,0.02,0.066
				c0.165-0.138,0.366-0.115,0.537-0.231l0.01,0.034c0.406-0.431,1.041-0.182,1.506-0.562c0.618-0.058,1.371-0.147,1.945-0.538
				l0.032,0.064c0.423-0.279,1.01-0.772,0.842-1.402C134.231,46.867,133.445,46.507,133.437,45.936z"/>
			<polygon fill="#F2F2F2" points="132.555,45.883 132.555,45.883 132.538,45.884 			"/>
			<path fill="#F2F2F2" d="M128.889,45.034l-0.037-0.008C128.874,45.047,128.878,45.033,128.889,45.034z"/>
			<polygon fill="#F2F2F2" points="147.159,45.768 147.167,45.692 147.161,45.65 			"/>
			<path fill="#F2F2F2" d="M147.125,45.958l0.006,0.08l0.016-0.339C147.121,45.508,147.14,46.084,147.125,45.958z"/>
			<path fill="#F2F2F2" d="M147.098,46.058c-0.001-0.123,0.027,0.037,0.014-0.134C147.096,45.846,147.098,46.004,147.098,46.058z"/>
			<path fill="#F2F2F2" d="M147.074,45.801c-0.038-0.109-0.047,0.221-0.086,0.062l-0.001-0.086
				c-0.024-0.053,0.007,0.217-0.021,0.107c-0.012-0.07-0.005-0.108-0.007-0.116c-0.045,0.039-0.098-0.036-0.13,0.174
				c-0.021-0.186-0.05-0.004-0.076-0.181c-0.009,0.075-0.022,0.056-0.019,0.18c-0.168-0.088-0.322,0.099-0.488,0.094
				c-0.059,0.365-0.174-0.06-0.26,0.066l-0.001-0.037c-0.026,0.09-0.067,0.135-0.105,0.092l-0.021,0.153
				c-0.232-0.302-0.44-0.068-0.666-0.187c-0.253-0.077-0.484-0.324-0.7,0.164v-0.069c-0.065,0.075-0.136-0.05-0.197,0.028
				l-0.002-0.036c-0.146,0.305-0.341-0.021-0.481,0.307c-0.192-0.021-0.407,0.022-0.605,0.125l-0.003-0.072
				c-0.153,0.16-0.33-0.21-0.486-0.088c-0.175-0.152-0.32,0.429-0.5,0.221c-0.122-0.345-0.219,0.413-0.334,0.057
				c-0.23-0.538-0.406-0.175-0.588,0.164c-0.195-0.185-0.354,0.326-0.554-0.062c-0.071,0.26-0.194-0.306-0.286-0.228l0.009,0.088
				c-0.048-0.266-0.056,0.378-0.098-0.018l0.003-0.019c-0.029-0.201-0.017,0.48-0.04,0.238l0.003,0.101
				c-0.021,0.03-0.01-0.113-0.027-0.152c-0.007,0.013,0.007,0.182-0.01,0.125c-0.024-0.409-0.049,0.092-0.074-0.368
				c0.011,0-0.029-0.176-0.007-0.275c-0.011-0.046-0.046-0.022-0.031,0.174c0.008,0.206,0.003,0.387,0.034,0.546l-0.004-0.151
				c0.016,0.151,0.01,0.075,0.019,0.188c0.029,0.018,0.046,0.238,0.071,0.326v-0.016c0.004-0.181,0.029-0.075,0.041-0.05l0.01,0.084
				c0.016,0.174,0.013-0.346,0.022-0.044c0.054-0.078,0.121-0.078,0.187-0.085c0.004-0.115,0.051,0.009,0.024-0.211
				c0.03,0.25,0.082,0.311,0.1,0.3c0.001,0.023,0.002,0.051-0.002,0.042c0.054,0.324,0.025-0.305,0.08,0.092
				c-0.01-0.283,0.065,0.087,0.065-0.246l0.014,0.169c0.059,0.002,0.13,0.101,0.181,0.111c0.03-0.249,0.11,0.106,0.129-0.237
				c0.034,0.071,0.092,0.209,0.127,0.071l-0.003,0.041c0.048-0.023,0.107-0.044,0.128-0.259c0.032,0.327,0.05,0.26,0.076,0.362
				c0.023-0.153,0.091-0.112,0.133-0.251c0.016,0.15,0.037-0.067,0.052,0.152c0.114-0.431,0.291-0.292,0.455,0.02l-0.001,0.016
				c0.013-0.121,0.021-0.388,0.032-0.545c0.003,0.02,0.005,0.056,0,0.056c0.024-0.043,0.062,0.172,0.086,0.13l-0.001,0.07
				c0.02-0.099,0.062,0.173,0.082,0.002l0.005,0.057l0.014-0.081c0.003,0.071,0.009,0.181-0.002,0.157
				c0.234,0.059,0.451-0.331,0.69-0.289l-0.006,0.07l0.039-0.126v0.071c0.064,0.12,0.114-0.088,0.173-0.06l0.007,0.145
				c0.032-0.2,0.082,0.253,0.081-0.157c0.002,0.017,0.008,0.11,0.006,0.143c0.109-0.143,0.231-0.142,0.352-0.081
				c0.078-0.376,0.206-0.047,0.293-0.348l0.003,0.074c0.119-0.266,0.273,0.004,0.407-0.056c0.059,0.027,0.093-0.063,0.15-0.071
				l0.006,0.092c0.077-0.356,0.219,0.305,0.298-0.087v0.125c0.005-0.194,0.064,0.065,0.041-0.268l0.023,0.1
				c0.044-0.443,0.134,0.196,0.202-0.093l-0.001,0.079c0.02-0.062,0.042-0.113,0.063-0.04l-0.005,0.055
				c0.087,0.309,0.146-0.042,0.22-0.033v0.147c0.025-0.174,0.101-0.018,0.142-0.1l0.001,0.07l0.019-0.099l0.008,0.138
				c0.062,0.007,0.111-0.116,0.17-0.135l0.005,0.126c0.043-0.228,0.117-0.002,0.17-0.104l-0.002,0.045
				c0.151,0.041,0.275-0.177,0.417-0.281l-0.001,0.065c0.005-0.042,0.008-0.124,0.016-0.115v0.072
				c0.042,0.207,0.083-0.136,0.112,0.023c0.006-0.023,0.006-0.11-0.002-0.176c0.112-0.059,0.232-0.106,0.341-0.275
				c0.006,0.028,0.01,0.085,0.013,0.157c0.081-0.343,0.194-0.214,0.299-0.166C147.085,45.898,147.07,45.895,147.074,45.801z"/>
			<path fill="#F2F2F2" d="M140.303,47.438c0.002,0.03,0.006,0.022,0.01,0.03L140.303,47.438z"/>
			<polygon fill="#F2F2F2" points="145.827,49.177 145.832,49.102 145.826,49.061 			"/>
			<path fill="#F2F2F2" d="M145.802,49.367l0.007,0.079l0.007-0.338C145.791,48.918,145.819,49.494,145.802,49.367z"/>
			<path fill="#F2F2F2" d="M145.782,49.469c-0.003-0.124,0.022,0.036,0.011-0.135C145.775,49.256,145.781,49.414,145.782,49.469z"/>
			<polygon fill="#F2F2F2" points="141.636,50.896 141.636,50.895 141.635,50.91 			"/>
			<path fill="#F2F2F2" d="M145.686,49.272l-0.001-0.085c-0.022-0.053,0.01,0.216-0.017,0.106c-0.012-0.07-0.005-0.108-0.009-0.116
				c-0.037,0.039-0.082-0.036-0.105,0.174c-0.02-0.185-0.041-0.004-0.067-0.182c-0.005,0.075-0.017,0.057-0.013,0.18
				c-0.141-0.088-0.268,0.1-0.406,0.094c-0.042,0.366-0.147-0.059-0.218,0.067l-0.001-0.037c-0.021,0.09-0.054,0.134-0.086,0.091
				l-0.017,0.154c-0.199-0.302-0.369-0.069-0.561-0.187c-0.215-0.077-0.413-0.324-0.585,0.163v-0.068
				c-0.056,0.076-0.116-0.05-0.166,0.029l-0.002-0.036c-0.118,0.305-0.288-0.021-0.398,0.307c-0.162-0.022-0.342,0.022-0.506,0.125
				l-0.004-0.073c-0.127,0.161-0.282-0.209-0.41-0.088c-0.148-0.152-0.26,0.428-0.414,0.221c-0.109-0.345-0.175,0.412-0.28,0.056
				c-0.203-0.537-0.344-0.174-0.49,0.165c-0.167-0.185-0.289,0.326-0.464-0.063c-0.056,0.26-0.17-0.305-0.244-0.227l0.008,0.088
				c-0.045-0.266-0.038,0.379-0.082-0.018l0.002-0.019c-0.028-0.201-0.005,0.479-0.028,0.238l0.004,0.102
				c-0.017,0.029-0.01-0.113-0.026-0.152c-0.005,0.013,0.01,0.182-0.005,0.125c-0.029-0.408-0.038,0.092-0.07-0.367
				c0.011,0-0.027-0.176-0.011-0.274c-0.009-0.047-0.038-0.022-0.023,0.173c0.012,0.207,0.012,0.388,0.04,0.547l-0.007-0.151
				c0.016,0.15,0.011,0.075,0.02,0.188c0.025,0.019,0.043,0.238,0.066,0.327l-0.001-0.016c0-0.181,0.022-0.075,0.035-0.049
				l0.008,0.083c0.018,0.175,0.007-0.346,0.018-0.043c0.045-0.079,0.102-0.079,0.155-0.085c0-0.116,0.043,0.008,0.018-0.212
				c0.029,0.25,0.075,0.311,0.09,0.301c0.001,0.023,0.001,0.05-0.001,0.042c0.05,0.324,0.016-0.304,0.068,0.093
				c-0.015-0.284,0.056,0.087,0.051-0.246l0.014,0.169c0.05,0.002,0.111,0.102,0.154,0.111c0.02-0.249,0.095,0.106,0.103-0.237
				c0.031,0.071,0.081,0.209,0.108,0.071l-0.002,0.041c0.041-0.022,0.09-0.043,0.103-0.259c0.034,0.326,0.048,0.259,0.071,0.362
				c0.017-0.153,0.074-0.111,0.106-0.251c0.017,0.15,0.03-0.066,0.046,0.153c0.087-0.431,0.239-0.293,0.384,0.02
				c0.007-0.127,0.009-0.378,0.015-0.53c0.002,0.021,0.005,0.056,0.001,0.056c0.021-0.042,0.056,0.171,0.073,0.131l0.002,0.07
				c0.016-0.1,0.055,0.172,0.068,0.001l0.006,0.059l0.011-0.083c0.004,0.073,0.01,0.182,0,0.158c0.198,0.059,0.373-0.33,0.574-0.289
				l-0.004,0.07l0.03-0.125l0.002,0.071c0.057,0.119,0.094-0.087,0.144-0.06l0.008,0.145c0.023-0.201,0.074,0.254,0.065-0.158
				c0.003,0.018,0.01,0.11,0.008,0.144c0.09-0.142,0.191-0.141,0.294-0.081c0.059-0.376,0.173-0.047,0.238-0.347l0.004,0.074
				c0.095-0.266,0.23,0.003,0.342-0.056c0.049,0.026,0.076-0.063,0.123-0.071l0.008,0.093c0.058-0.357,0.189,0.305,0.248-0.088
				l0.002,0.126c0.002-0.195,0.057,0.065,0.03-0.267l0.021,0.099c0.028-0.442,0.117,0.197,0.169-0.092l0.001,0.079
				c0.014-0.062,0.031-0.113,0.051-0.041l-0.002,0.056c0.078,0.309,0.121-0.042,0.184-0.033l0.002,0.146
				c0.019-0.173,0.084-0.016,0.118-0.098l0.002,0.069l0.013-0.099l0.01,0.138c0.052,0.007,0.093-0.117,0.14-0.135l0.006,0.126
				c0.031-0.228,0.099-0.002,0.142-0.104l-0.001,0.046c0.128,0.04,0.229-0.177,0.344-0.282v0.065
				c0.004-0.043,0.006-0.125,0.012-0.115l0.001,0.072c0.04,0.207,0.068-0.137,0.095,0.022c0.005-0.023,0.003-0.109-0.005-0.176
				c0.093-0.059,0.193-0.105,0.28-0.275c0.007,0.029,0.011,0.085,0.014,0.157c0.063-0.343,0.16-0.214,0.248-0.165
				c-0.002-0.089-0.015-0.093-0.013-0.187C145.724,49.102,145.722,49.432,145.686,49.272z"/>
			<path fill="#F2F2F2" d="M140.108,50.848c0.002,0.03,0.006,0.022,0.008,0.029L140.108,50.848z"/>
			<polygon fill="#F2F2F2" points="151.032,52.841 150.988,52.845 151.091,52.924 			"/>
			<path fill="#F2F2F2" d="M151.229,53.188l0.081,0.003l-0.297-0.241C150.812,52.985,151.362,53.174,151.229,53.188z"/>
			<path fill="#F2F2F2" d="M151.188,53.228c-0.087,0.05,0.064,0.098,0.116,0.118C151.187,53.308,151.36,53.243,151.188,53.228z"/>
			<path fill="#F2F2F2" d="M155.426,52.009c0.036,0.003,0.056-0.001,0.066,0.023c-0.039-0.271,0.096-0.515,0.003-0.774l0.036,0
				c-0.311-0.587-0.15-1.371-0.747-1.776c-0.322-0.652-0.999-1.217-1.717-1.433l0.032-0.064c-0.187,0.031-0.441-0.198-0.604-0.214
				c0.188-0.147,0.364-0.303,0.483-0.512c0.516-0.357,0.495-1.216,1.058-1.542c0.512-0.061,0.262-0.927,0.769-0.963
				c0.089-0.074,0.214-0.104,0.334-0.135c0.013-0.003,0.025-0.007,0.038-0.01c0.047-0.013,0.093-0.026,0.135-0.043
				c0.009,0.064,0.043,0.056,0.077,0.052h0.003h0.002l0,0l0,0c0.031,0.079,0.061,0.154,0,0l0,0c-0.017-0.042-0.025-0.063-0.03-0.077
				c0.173-0.091,0.255-0.273,0.032-0.781c-0.107,0.006-0.216,0.023-0.324,0.045c-0.024-0.062-0.046-0.119-0.075-0.188v0
				l-0.003,0.005l-0.009,0.01l-0.021,0.01c-0.019,0.001-0.046-0.009-0.089-0.044c0,0.092-0.013,0.177-0.031,0.258
				c-0.188,0.051-0.378,0.115-0.568,0.175c-0.648-0.268-1.373,0.156-1.978-0.313c-0.334,0.22-0.611-0.385-0.962-0.35l0.003,0.089
				c-0.093-0.28-0.315,0.343-0.348-0.062l0.016-0.017c-0.043-0.209-0.204,0.458-0.217,0.213l-0.022,0.099
				c-0.081,0.021,0.005-0.115-0.052-0.16c-0.025,0.009-0.029,0.181-0.07,0.118c0.034-0.409-0.202,0.066-0.158-0.392
				c0.043,0.004-0.047-0.185,0.061-0.27c-0.022-0.049-0.157-0.042-0.167,0.154c-0.034,0.204-0.105,0.378-0.043,0.546l0.033-0.148
				c0.01,0.153,0.013,0.078,0.009,0.191c0.104,0.031,0.093,0.251,0.158,0.349l0.001-0.016c0.07-0.173,0.13-0.06,0.167-0.028
				l0.007,0.085c0.007,0.177,0.157-0.328,0.093-0.032c0.221-0.051,0.465-0.021,0.703,0.002c0.047-0.11,0.181,0.032,0.153-0.195
				c0.031,0.258,0.202,0.34,0.268,0.338c-0.004,0.023-0.01,0.05-0.018,0.04c0.09,0.339,0.184-0.284,0.259,0.127
				c0.051-0.28,0.207,0.114,0.312-0.209l-0.005,0.17c0.215,0.029,0.441,0.158,0.622,0.19c0.183-0.229,0.363,0.153,0.535-0.171
				c0.102,0.085,0.267,0.245,0.436,0.126l-0.019,0.039c0.117,0,0.253-0.003,0.373-0.06c-0.185,0.149-0.413,0.263-0.655,0.345
				c0.051,0.133,0.192,0.354,0.264,0.504c-0.02-0.009-0.047-0.032-0.037-0.043c-0.032,0.102-0.255,0.031-0.288,0.131
				c-0.026-0.024-0.026-0.024-0.044-0.058c0.017,0.133-0.256,0.031-0.196,0.223l-0.048-0.034l0.018,0.106
				c-0.054-0.048-0.136-0.122-0.094-0.134c-0.299,0.297-0.517,0.671-0.735,1.049l-0.338,0.559l-0.188,0.266l-0.102,0.125
				l-0.013,0.015l-0.007,0.007l-0.004,0.004l-0.002,0.002v0.001c-0.029-0.083,0.138,0.376,0.225,0.614h0.001l0.025,0.006l0.066,0.02
				l-0.042,0.061l0.173-0.082l-0.035,0.064c0.142,0.167,0.396,0.045,0.56,0.156c-0.016,0.031-0.07,0.083-0.064,0.131
				c0.214-0.114,0.073,0.318,0.328-0.002c-0.003,0.019-0.046,0.102-0.075,0.124c0.396,0.066,0.725,0.337,0.902,0.673
				c0.512,0.028,0.41,0.531,0.799,0.741l-0.07,0.023c0.409,0.368,0.214,0.944,0.263,1.41c-0.013,0.2,0.038,0.34,0.031,0.548
				l-0.092-0.004c0.332,0.417-0.43,0.614-0.175,1.047l-0.104-0.07c0.15,0.126-0.16,0.15,0.148,0.283l-0.12,0.009
				c0.265,0.473-0.397,0.259-0.382,0.652l-0.042-0.071c-0.012,0.099-0.037,0.218-0.138,0.193l-0.017-0.056
				c-0.401-0.121-0.375,0.354-0.651,0.44l-0.039-0.144c-0.041,0.201-0.311,0.167-0.439,0.284l-0.012-0.07l-0.052,0.114l-0.043-0.132
				c-0.205,0.034-0.365,0.234-0.579,0.258l-0.008-0.125c-0.166,0.236-0.409,0.062-0.608,0.145l0.014-0.045
				c-0.515-0.049-1.019,0.114-1.575,0.034l0.037-0.057c-0.036,0.035-0.091,0.103-0.116,0.085l0.039-0.063
				c-0.041-0.216-0.36,0-0.369-0.177c-0.038,0.009-0.088,0.08-0.098,0.149c-0.438-0.119-0.85-0.374-1.319-0.674
				c0.005-0.036,0.049-0.072,0.111-0.111c-0.53-0.171-0.638-0.844-0.485-1.294c-0.086-0.028-0.103,0.041-0.187-0.018
				c-0.147,0.167,0.183,0.3,0.054,0.46l-0.088-0.012c-0.035,0.124,0.218-0.004,0.128,0.127c-0.063,0.059-0.109,0.007-0.112,0.03
				c0.055,0.244,0.098,0.515,0.392,0.604c-0.131,0.138,0.104,0.228,0.023,0.384c0.097-0.003,0.121,0.051,0.229-0.014
				c0.441,0.655,1.195,0.802,1.812,0.981c0.376-0.251,0.646,0.205,1.034,0.134l-0.004,0.036c0.127-0.086,0.294-0.125,0.436-0.076
				l0.113-0.151c0.854,0.283,1.711-0.145,2.49-0.574C155.146,54.065,155.843,52.99,155.426,52.009z"/>
			<path fill="#F2F2F2" d="M155.48,48.906L155.48,48.906C155.558,49.117,155.534,49.055,155.48,48.906z"/>
			<polygon fill="#F2F2F2" points="157.069,45.567 157.069,45.567 157.062,45.551 			"/>
			<path fill="#F2F2F2" d="M153.861,44.849l-0.024-0.033C153.836,44.846,153.854,44.84,153.861,44.849z"/>
		</g>
		<g>
			<g>
				<path fill="#F2F2F2" d="M145.007,62.111l0.024,0.025c-0.003-0.025-0.011-0.057-0.047-0.115
					C145.029,62.1,145,62.08,145.007,62.111z"/>
				<path fill="#F2F2F2" d="M144.78,61.693l-0.01,0.018c-0.114,0.082-0.047-0.018,0.101,0.17
					C144.656,61.668,144.7,61.803,144.78,61.693z"/>
				<path fill="#F2F2F2" d="M144.876,61.576c0.093-0.164-0.016,0.025,0.009,0.043C144.873,61.553,144.886,61.578,144.876,61.576z"/>
				<path fill="#F2F2F2" d="M146.245,58.883l0.015,0.015L146.245,58.883z"/>
				<path fill="#F2F2F2" d="M144.839,58.161l-0.004-0.097c0.267,0.222,0.627,0.075,0.918,0.236l-0.013-0.039
					c0.758,0.136,1.548,0.597,1.777,1.298l0.033-0.04c-0.008,0.043-0.054,0.092-0.054,0.129c0.022,0.005,0.044-0.021,0.054-0.036
					c0.154,0.152-0.073,0.451-0.019,0.557c-0.03,0.039-0.098,0.039-0.14,0.001c-0.189,0.538-0.597,1.046-1.137,1.177
					c-0.013,0.031,0.003,0.07,0.035,0.115c-0.508-0.014-0.964,0.162-1.36,0.113c0.011-0.066,0.048-0.061,0.043-0.135
					c0.078-0.059,0.189,0.199,0.318,0.072l-0.017-0.064c0.086-0.041,0.023,0.17,0.116,0.076c0.033-0.059-0.016-0.082,0.001-0.088
					c0.199,0.01,0.376-0.092,0.608-0.014c-0.007-0.137,0.195-0.098,0.196-0.248c0.075,0.029,0.105-0.016,0.173,0.053
					c0.485-0.34,1.099-1.283,0.801-1.708c0.076-0.446-0.578-0.434-0.918-0.664l-0.008,0.026c-0.117-0.109-0.329-0.194-0.512-0.21
					l-0.123-0.154c-1.129-0.001-2.259-0.186-3.404-0.045c-1.302,0.118-2.375,0.503-3.69,0.387c0.007,0.026,0,0.043,0.034,0.046
					c-0.369,0.031-0.672,0.204-1.021,0.229l0.008,0.025c-0.89,0.001-1.706,0.511-2.559,0.584c-0.944,0.366-1.989,0.83-2.964,1.289
					l0.028,0.047c-0.818,0.275-1.426,0.975-2.307,1.137c-0.823,0.426-1.841,0.178-2.693,0.402c-0.545,0.348-1.277-0.27-1.793,0.01
					c-1.093,0.324-2.141-0.08-3.086-0.605c-0.995-0.1-1.784-0.781-2.762-0.873c-0.335-0.35-0.964-0.17-1.394-0.451l0.047-0.051
					c-0.256,0.096-0.223-0.438-0.465-0.225l0.01,0.021c-0.159,0.088-0.018-0.425-0.156-0.293l0.025-0.074
					c-0.09-0.074-0.056,0.068-0.147,0.051c-0.025-0.023,0.058-0.125-0.024-0.121c-0.171,0.26-0.204-0.203-0.393,0.09
					c0.054,0.033-0.159,0.062-0.072,0.199c-0.053,0.012-0.22-0.114-0.122-0.229c0.072-0.14,0.085-0.294,0.248-0.333l-0.042,0.108
					c0.094-0.074,0.055-0.032,0.113-0.096c0.135,0.064,0.239-0.067,0.363-0.07l-0.005,0.01c-0.009,0.155,0.123,0.135,0.183,0.146
					l0.052-0.043c0.095-0.098,0.021,0.31,0.093,0.09c0.237,0.194,0.548,0.361,0.855,0.51c0.005,0.099,0.239,0.106,0.101,0.226
					c0.161-0.137,0.406-0.066,0.491-0.023c0.005-0.018,0.009-0.039-0.007-0.037c0.267-0.154,0.105,0.295,0.385,0.084
					c-0.061,0.209,0.309,0.061,0.303,0.33c0.037-0.033,0.059-0.07,0.067-0.109c0.289,0.107,0.633,0.152,0.878,0.236
					c0.148,0.252,0.535,0.084,0.638,0.389c0.169-0.006,0.438-0.023,0.626,0.125l-0.014-0.035c0.237,0.074,0.534,0.164,0.665,0.365
					c0.128-0.225,0.218-0.146,0.341-0.207c0.139,0.141,0.474,0.166,0.706,0.314c0.056-0.105,0.198,0.086,0.235-0.076
					c0.654,0.416,1.576,0.371,2.312,0.111l-0.011-0.012c0.099,0.09,0.219,0.295,0.325,0.398c0.009-0.016,0.007-0.041-0.014-0.041
					c0.142,0.02,0.261-0.156,0.4-0.139c-0.004-0.025-0.004-0.025-0.028-0.051c0.137,0.062,0.253-0.156,0.417-0.041l0.004-0.045
					l0.104,0.051c-0.01-0.053-0.024-0.135-0.072-0.113c1.136-0.203,2.414-0.229,3.493-0.844l-0.062-0.027l0.253-0.021
					c-0.014-0.025-0.03-0.031-0.046-0.039c0.225-0.215,0.579-0.213,0.842-0.385c-0.015-0.021-0.082-0.047-0.059-0.094
					c0.273,0.025,0.232-0.344,0.479-0.123c0.002-0.018-0.024-0.082-0.056-0.094c0.599-0.225,1.19-0.475,1.752-0.781
					c0.587,0.044,1.058-0.371,1.641-0.356l-0.019-0.052c0.731-0.018,1.377-0.46,2.105-0.575c0.291-0.092,0.505-0.075,0.802-0.141
					l-0.008-0.07c0.554,0.176,1.022-0.439,1.601-0.219l-0.051-0.09c0.104,0.135,0.315-0.091,0.316,0.164l0.085-0.087
					c0.396,0.291,0.638-0.247,1.104-0.051l-0.035-0.058c0.122,0.039,0.261,0.067,0.345,0.006c-0.014-0.007-0.008-0.026-0.037-0.039
					c0.358-0.269,0.785-0.022,1.173-0.023l-0.045-0.111c0.19,0.135,0.539-0.005,0.786,0.08l-0.013-0.054l0.123,0.084l0.009-0.105
					C144.229,58.007,144.528,58.096,144.839,58.161z"/>
				<path fill="#F2F2F2" d="M147.551,59.613l-0.004-0.002C147.556,59.6,147.555,59.604,147.551,59.613z"/>
				<path fill="#F2F2F2" d="M117.438,59.679h-0.045C117.407,59.662,117.425,59.678,117.438,59.679z"/>
			</g>
		</g>
	</g>
	<g>
		<polygon fill="#F2F2F2" points="112.713,72.768 120.992,66.037 121.875,67.256 113.722,74.254 		"/>
		<path fill-rule="evenodd" clip-rule="evenodd" fill="#FFCBA6" d="M107.718,73.822l2.336-1.867
			c0.891-0.455,1.999-0.846,3.016-0.842c1.026-0.002,1.41,0.881,3.115,0.83c1.662,0.314,2.147,0.295,2.533,0.951
			c0.377,0.654,0.648,2.148-0.561,2.912c-4.07,1.855-8.58,2.01-11.021,1.488"/>
		<polygon fill-rule="evenodd" clip-rule="evenodd" fill="#583D20" points="80.517,98.59 76.545,135.4 74.2,135.4 69.667,114.166 
			66.072,114.898 57.161,137.844 54.661,137.111 49.134,99.963 		"/>
		<polygon fill-rule="evenodd" clip-rule="evenodd" fill="#333332" points="74.328,135.184 77.393,134.951 85.174,136.828 
			83.524,138.938 72.205,138.701 71.733,136.592 		"/>
		<polygon fill-rule="evenodd" clip-rule="evenodd" fill="#333332" points="53.897,136.215 56.874,135.654 64.739,139.584 
			62.188,141.828 52.41,140.986 52.197,137.619 		"/>
		<path fill-rule="evenodd" clip-rule="evenodd" fill="none" d="M76.568,58.024l-0.056,0.395c-2.849,0.893-5.56,0.066-6.875-0.406
			c-0.717,0.721-0.014,2.02,0.604,2.094c1.727,0.58,4.176,0.662,5.968-0.241l0.158,0.09C77.396,59.112,77.371,57.877,76.568,58.024z
			"/>
		<polygon fill-rule="evenodd" clip-rule="evenodd" fill="#4E6772" points="78.312,66.631 95.056,73.797 108.828,73.287 
			107.99,77.59 93.777,77.857 78.427,72.09 		"/>
		<path fill-rule="evenodd" clip-rule="evenodd" fill="#5C7481" d="M80.981,100.758c0.239,2.748-6.633,4.822-11.987,4.732h-1.81
			c-3.215-0.25-15.898,0.914-18.05-5.527c0.324-4.525-0.003-6.615,0-11.588c0.003-4.975-0.539-14.078,0.881-20.602
			c2.662-2.264,10.334-4.398,15.315-3.965c4.981,0.434,12.135,1.227,13.57,3.074C78.901,66.883,78.454,71.59,80.981,100.758z"/>
		<path fill-rule="evenodd" clip-rule="evenodd" fill="#FFCBA6" d="M84.474,44.716l2.877,11.853
			c-0.88,0.642-6.998-1.047-8.251-6.209C78.263,46.911,80.069,43.317,84.474,44.716z"/>
		
			<ellipse transform="matrix(0.9719 -0.2355 0.2355 0.9719 -10.5396 21.4667)" fill-rule="evenodd" clip-rule="evenodd" fill="#D0202C" cx="84.583" cy="54.849" rx="1.053" ry="1.037"/>
		<path opacity="0.502" fill-rule="evenodd" clip-rule="evenodd" fill="#E0AE8E" d="M84.752,45.795
			c-2.726-0.83-4.706,0.781-4.756,2.421c-0.128,1.608,1.558,3.382,2.213,3.833c0.654,0.449,0.987-1.349,1.717-1.134
			c0.729,0.214,2.368,3.13,2.657,2.423C86.005,51.037,85.332,48.097,84.752,45.795z"/>
		<path fill-rule="evenodd" clip-rule="evenodd" fill="#FFCBA6" d="M68.987,60.99l-0.616,3.135l-2.238,5.465l-4.253-5.635
			C61.851,62.107,61.887,61,61.887,61L68.987,60.99z"/>
		<path fill-rule="evenodd" clip-rule="evenodd" fill="#FFCBA6" d="M89.269,47.594c-1.183,11.865-5.282,14.732-7.802,15.318
			c-13.797,3.002-26.612-1.234-32.38-3.173c-3.764-1.338-4.819-6.297-5.242-8.361c-10.084-3.199-10.866-16.586-2.607-13.041
			c0.167-4.214-3.312-8.008,3.01-11.436l34.918-9.331c7.634,0.769,4.9,2.557,6.872,6.588c6.921,3.362,5.662,14.966,5.417,17.749
			C90.082,44.76,90.521,46.111,89.269,47.594z"/>
		<path fill-rule="evenodd" clip-rule="evenodd" fill="#FFCBA6" d="M79.318,52.262c-0.856-1.096-1.09-4.134-1.605-3.286
			c-0.572,1.524-4.079,1.694-2.817,3.366L79.318,52.262z"/>
		<circle fill-rule="evenodd" clip-rule="evenodd" fill="#ED8039" cx="83.664" cy="50.335" r="0.1"/>
		<circle fill-rule="evenodd" clip-rule="evenodd" fill="#ED8039" cx="82.829" cy="51.171" r="0.234"/>
		<circle fill-rule="evenodd" clip-rule="evenodd" fill="#ED8039" cx="85.737" cy="52.909" r="0.234"/>
		<ellipse fill-rule="evenodd" clip-rule="evenodd" fill="#ED8039" cx="83.229" cy="53.194" rx="0.134" ry="0.15"/>
		<circle fill-rule="evenodd" clip-rule="evenodd" fill="#ED8039" cx="67.685" cy="52.714" r="0.101"/>
		<circle fill-rule="evenodd" clip-rule="evenodd" fill="#ED8039" cx="66.682" cy="52.011" r="0.234"/>
		<circle fill-rule="evenodd" clip-rule="evenodd" fill="#ED8039" cx="65.96" cy="53.516" r="0.234"/>
		
			<ellipse transform="matrix(0.2077 0.9782 -0.9782 0.2077 103.0332 -21.5084)" fill-rule="evenodd" clip-rule="evenodd" fill="#ED8039" cx="64.793" cy="52.847" rx="0.134" ry="0.15"/>
		<path fill-rule="evenodd" clip-rule="evenodd" fill="#F2A37D" d="M79.404,52.406c0.516,0.151-0.961,0.938-1.728,0.938
			c-0.768,0-2.904-0.422-2.875-0.938C76.556,52.187,79.302,52.041,79.404,52.406z"/>
		<path fill-rule="evenodd" clip-rule="evenodd" fill="#FFBF93" d="M68.227,48.194c-3.994,3.878-9.369,2.592-11.234,1.334
			C59.191,50.016,63.925,50.683,68.227,48.194z"/>
		<path fill-rule="evenodd" clip-rule="evenodd" fill="#FFBF93" d="M89.241,48.153c-2.64,1.844-5.589,0.611-6.539-0.279
			C83.913,48.356,86.553,49.176,89.241,48.153z"/>
		<ellipse opacity="0.2" fill-rule="evenodd" clip-rule="evenodd" fill="#FFFFFF" cx="75.406" cy="51.722" rx="0.535" ry="0.351"/>
		<path fill-rule="evenodd" clip-rule="evenodd" fill="#543E20" d="M82.115,36.444c1.423-1.316,7.525,0.759,9.386,1.743
			C93.838,35.574,81.1,32.524,82.115,36.444z"/>
		<path fill-rule="evenodd" clip-rule="evenodd" fill="#FFCBA6" d="M41.648,38.594l3.936,15.604
			c-1.008,0.417-10.499-6.066-10.499-11.384C35.085,39.262,37.692,36.192,41.648,38.594z"/>
		<path opacity="0.502" fill-rule="evenodd" clip-rule="evenodd" fill="#E0AE8E" d="M41.652,39.713
			c-2.453-1.449-4.758-0.35-5.194,1.232c-0.504,1.531,0.717,3.654,1.247,4.246c0.53,0.592,1.277-1.077,1.936-0.696
			s1.562,3.601,2.011,2.981C41.633,45.103,41.672,42.086,41.652,39.713z"/>
		<g>
			<g>
				<path fill-rule="evenodd" clip-rule="evenodd" fill="#FFFFFF" d="M68.385,46.395c0.191-0.404,0.837-0.697,0.844-1.077
					c0.007-0.38-0.782-0.806-0.802-1.204c-0.604-6.834-14.411-7.192-14.676-0.554C54.964,51.177,66.429,50.303,68.385,46.395z"/>
				<ellipse fill-rule="evenodd" clip-rule="evenodd" fill="#3493CA" cx="64.272" cy="44.071" rx="3.963" ry="3.688"/>
				
					<ellipse opacity="0.102" fill-rule="evenodd" clip-rule="evenodd" fill="#FFFFFF" cx="63.794" cy="44.938" rx="1.754" ry="1.731"/>
				<circle opacity="0.2" fill-rule="evenodd" clip-rule="evenodd" fill="#FFFFFF" cx="62.61" cy="43.229" r="1.161"/>
				<circle fill-rule="evenodd" clip-rule="evenodd" cx="65.342" cy="43.822" r="1.207"/>
				<path fill-rule="evenodd" clip-rule="evenodd" fill="#864827" d="M68.371,43.527c-1.322-7.29-10.973-5.073-12.727-4.323
					c-2.442,1.005-2.668,2.821-2.628,3.33c0.436,3.054,2.848,7.596,8.615,6.882c-4.813-0.318-7.74-3.18-7.651-6.968
					C54.723,38.474,66.998,36.65,68.371,43.527z"/>
			</g>
			<g>
				<path fill-rule="evenodd" clip-rule="evenodd" fill="#FFFFFF" d="M81.498,45.37c1.656,4.524,9.219,3.739,9.533-1.356
					c0.288-5.473-8.298-4.591-9.594,0.323C81.192,44.62,80.862,45.334,81.498,45.37z"/>
				
					<ellipse transform="matrix(0.9972 0.075 -0.075 0.9972 3.5527 -6.4849)" fill-rule="evenodd" clip-rule="evenodd" fill="#3493CA" cx="88.062" cy="44.028" rx="2.801" ry="2.847"/>
				
					<ellipse transform="matrix(0.9972 0.0749 -0.0749 0.9972 3.5359 -6.4861)" opacity="0.102" fill-rule="evenodd" clip-rule="evenodd" fill="#FFFFFF" cx="88.254" cy="43.905" rx="1.571" ry="1.754"/>
				
					<ellipse transform="matrix(0.9972 0.0753 -0.0753 0.9972 3.5761 -6.4563)" opacity="0.102" fill-rule="evenodd" clip-rule="evenodd" fill="#FFFFFF" cx="87.432" cy="44.209" rx="1.093" ry="1.253"/>
				
					<ellipse transform="matrix(0.9972 0.075 -0.075 0.9972 3.4687 -6.3877)" opacity="0.2" fill-rule="evenodd" clip-rule="evenodd" fill="#FFFFFF" cx="86.748" cy="42.971" rx="0.729" ry="0.751"/>
				
					<ellipse transform="matrix(0.9972 0.0748 -0.0748 0.9972 3.5377 -6.5134)" fill-rule="evenodd" clip-rule="evenodd" cx="88.706" cy="43.962" rx="0.933" ry="1.002"/>
				<path fill-rule="evenodd" clip-rule="evenodd" fill="#864827" d="M82.653,42.156c2.631-2.394,6.187-1.937,7.505-0.168
					c1.783,2.681-1.057,6.144-3.768,6.504c3.128-0.331,4.325-2.801,4.822-4.297C92.392,40.192,86.104,38.469,82.653,42.156z"/>
			</g>
		</g>
		<path fill-rule="evenodd" clip-rule="evenodd" fill="#543E20" d="M65.499,37.361c-2.278-1.438-12.902,0.717-14.125,1.062
			C49.007,36.051,66.6,32.065,65.499,37.361z"/>
		<path fill-rule="evenodd" clip-rule="evenodd" fill="#543E20" d="M48.802,49.057l-3.221,1.475l-3.184-8.885
			c0,0,1.715,10.849,2.842,14.239c1.126,3.391-23.171-14.977-8.7-38.682"/>
		<path fill-rule="evenodd" clip-rule="evenodd" fill="#543E20" d="M48.738,49.419l-4.735-14.438
			c4.298,0.808,30.623-1.209,39.762-11.997c0,0,0.959,3.823,4.761,6.871c3.802,3.047,2.907,8.464,2.907,8.464
			c4.108-8.357,0.687-21.793-12.532-26.226c0,0-18.209-16.598-43.18,4.202"/>
		<g>
			<path fill-rule="evenodd" clip-rule="evenodd" fill="#FFCBA6" d="M40.463,39.121c1.771,0.864,2.991,8.599,4.171,12.952
				c-0.923,0.536-9.324-2.768-9.998-7.984C34.185,40.602,36.322,37.262,40.463,39.121z"/>
			<path opacity="0.502" fill-rule="evenodd" clip-rule="evenodd" fill="#E0AE8E" d="M40.653,40.339
				c-2.567-1.098-4.668,0.257-4.892,1.849c-0.296,1.551,1.155,3.458,1.745,3.967c0.591,0.507,1.107-1.207,1.795-0.92
				c0.687,0.287,1.969,3.3,2.327,2.644C41.312,45.575,40.969,42.641,40.653,40.339z"/>
		</g>
		<g>
			<path fill-rule="evenodd" clip-rule="evenodd" fill="#FFFFFF" d="M80.231,56.994c-4.051,0.858-5.299,0.545-8.65-0.468
				c-1.87-0.546-2.104,2.183-1.053,3.158c2.65,1.287,6.703,1.99,9.587,0.351C81.751,58.826,82.103,56.565,80.231,56.994z"/>
		</g>
		<path fill-rule="evenodd" clip-rule="evenodd" fill="#15365B" d="M64.212,69.348h3.128l0.869,1.082c0,0-0.608,1.814-1.999,1.814
			c-1.389,0-1.823-1.434-1.999-1.447C64.039,70.781,64.212,69.348,64.212,69.348z"/>
		<polygon fill="#FFFFFF" points="61.879,63.955 59.841,65.188 62.679,71.59 66.133,69.59 68.987,71.59 70.792,65.893 
			68.371,64.125 66.133,68.809 		"/>
		<polygon fill-rule="evenodd" clip-rule="evenodd" fill="#15365B" points="65.427,72.244 63.652,92.268 67.381,97.131 
			70.157,92.441 66.947,72.244 66.172,71.59 		"/>
		<path fill-rule="evenodd" clip-rule="evenodd" fill="#FFCBA6" d="M50.19,102.602l2.143,1.312c0.612,0.574,1.237,1.34,1.524,2.143
			c0.294,0.811-0.294,1.365,0.232,2.699c0.225,1.402,0.38,1.781-0.03,2.271c-0.409,0.484-1.512,1.127-2.459,0.389
			c-2.629-2.688-4.036-6.207-4.32-8.285"/>
		<path fill-rule="evenodd" clip-rule="evenodd" fill="#4E6772" d="M49.571,68.316l-6.082,23.127l4.043,12.971
			c0.477,1.361,2.854,0.074,4.597-0.625l-4.47-12.975l6.317-19.869C53.574,68.143,51.946,65.684,49.571,68.316z"/>
		<g>
			<g>
				<g enable-background="new    ">
					<defs>
						<polygon id="SVGID_1_" enable-background="new    " points="51.173,53.098 52.088,37.979 95.318,35.715 94.404,50.834 						
							"/>
					</defs>
					<clipPath id="SVGID_2_">
						<use xlink:href="#SVGID_1_"  overflow="visible"/>
					</clipPath>
					<g clip-path="url(#SVGID_2_)">
						<g>
							<g>
								<g>
									<path d="M93.733,39.74c-0.01,0-0.02,0.001-0.03,0.001c-0.366,0.01-0.658-0.131-0.718-0.337l1.497-0.052
										C94.39,39.561,94.086,39.722,93.733,39.74 M94.502,39.134l-1.505,0.053c0.1-0.208,0.396-0.378,0.75-0.396
										c0.01,0,0.02-0.001,0.029-0.001C94.143,38.778,94.434,38.929,94.502,39.134 M53.274,40.997
										c-0.009,0-0.019,0.001-0.028,0.001c-0.367,0.01-0.658-0.131-0.727-0.336l1.505-0.053
										C53.933,40.809,53.628,40.979,53.274,40.997 M54.038,40.382l-1.498,0.053c0.092-0.208,0.396-0.37,0.749-0.388
										c0.01-0.001,0.02-0.001,0.03-0.001C53.685,40.035,53.977,40.177,54.038,40.382 M85.407,50.326
										c-0.511,0.026-1.024,0.018-1.511-0.017c-2.297-0.158-4.537-0.302-5.61-2.421c-0.428-0.848-0.697-1.774-0.857-2.75
										c-0.187-1.061-0.31-2.125-0.169-3.238c0.093-0.327,0.138-0.669,0.327-0.983c0.082-0.144,0.187-0.271,0.285-0.416
										s0.173-0.305,0.286-0.433c0.096-0.109,0.207-0.193,0.318-0.286c0.24-0.204,0.51-0.384,0.787-0.528
										c1.358-0.698,2.768-1.042,4.2-1.239c0.489-0.069,0.977-0.115,1.461-0.14c0.993-0.052,1.979-0.018,2.96,0.083
										c0.96,0.097,1.892,0.275,2.761,0.665c0.577,0.257,1.085,0.587,1.245,1.292c0.098,0.396,0.187,0.809,0.202,1.226
										c0.084,2.102,0.012,3.298-0.649,5.361c-0.372,1.186-1.186,2.021-2.261,2.617c-0.185,0.105-0.363,0.228-0.547,0.316
										c-0.218,0.107-0.434,0.197-0.652,0.312c-0.536,0.272-1.088,0.397-1.645,0.487C86.032,50.28,85.72,50.309,85.407,50.326
										 M77.463,40.94c0.101-0.328,0.29-0.625,0.516-0.88l-0.055-0.023c0.145-0.112,0.282-0.223,0.41-0.334l0.008,0l0.009-0.009
										l0.179-0.149l0.094-0.074c0.085-0.065,0.178-0.123,0.271-0.179c1.658-0.966,3.417-1.32,5.192-1.535
										c0.313-0.038,0.626-0.063,0.938-0.08c0.841-0.044,1.675-0.017,2.506,0.047c1.019,0.077,2.034,0.215,2.987,0.558
										c0.557,0.197,1.094,0.43,1.471,0.915c0.31,0.384,0.493,0.845,0.518,1.366l-0.022-0.034l-0.025-0.129
										c-0.17-0.67-0.47-1.229-1.016-1.601c-0.429-0.291-0.922-0.457-1.426-0.595c-1.46-0.42-2.99-0.505-4.543-0.467
										c-0.199,0.003-0.399,0.009-0.598,0.02c-1.41,0.074-2.816,0.338-4.21,0.814c-0.241,0.083-0.473,0.164-0.707,0.264
										c-0.424,0.17-0.834,0.366-1.224,0.639l-0.229,0.168l-0.128,0.103l-0.086,0.074l-0.155,0.147
										c-0.13,0.128-0.236,0.282-0.335,0.435l-0.17,0.261C77.58,40.743,77.493,40.852,77.463,40.94 M62.817,52.063
										c-1.109,0.058-3.135,0.045-3.792-0.016c-0.549-0.05-1.096-0.134-1.585-0.378c-0.198-0.094-0.412-0.17-0.609-0.264
										c-0.174-0.079-0.338-0.192-0.503-0.279c-0.991-0.531-1.521-1.443-1.719-2.6c-0.348-2.036-0.36-4.116,0.045-6.235
										c0.074-0.422,0.237-0.839,0.392-1.248c0.271-0.711,0.829-1.088,1.448-1.382c0.936-0.45,1.901-0.692,2.886-0.856
										c0.491-0.083,1.188-0.144,1.954-0.184c1.546-0.081,3.372-0.078,4.351-0.007c1.407,0.101,2.771,0.351,4.026,0.964
										c0.26,0.125,0.502,0.288,0.718,0.476c0.092,0.082,0.193,0.164,0.268,0.264c0.098,0.126,0.154,0.28,0.227,0.416
										c0.073,0.135,0.155,0.261,0.219,0.406c0.136,0.297,0.132,0.637,0.177,0.966c-0.025,1.098-0.319,2.184-0.66,3.264
										c-0.319,0.983-0.726,1.936-1.291,2.818c-1.408,2.198-3.696,3.51-6.03,3.833C63.208,52.038,63.029,52.052,62.817,52.063
										 M54.329,41.743c0.105-0.537,0.353-1.002,0.719-1.413c0.461-0.512,1.038-0.786,1.621-1.025
										c1.015-0.402,2.05-0.604,3.09-0.754c0.326-0.049,0.797-0.086,1.332-0.115c1.377-0.072,3.174-0.078,3.996-0.034
										c1.757,0.091,3.472,0.323,4.987,1.184c0.086,0.048,0.164,0.105,0.242,0.17l0.078,0.057l0.17,0.139l0.007,0.008
										c0.115,0.107,0.239,0.205,0.363,0.312l-0.059,0.029c0.188,0.243,0.333,0.531,0.387,0.85
										c-0.011-0.096-0.094-0.195-0.13-0.272l-0.131-0.245c-0.081-0.144-0.161-0.296-0.267-0.421l-0.138-0.132l-0.069-0.066
										l-0.116-0.098l-0.21-0.155c-0.342-0.243-0.73-0.414-1.127-0.559c-0.214-0.085-0.445-0.151-0.668-0.227
										c-1.517-0.434-4.963-0.637-6.584-0.561c-0.058,0.003-0.115,0.006-0.172,0.009c-1.49,0.078-2.986,0.269-4.471,0.774
										c-0.522,0.175-1.037,0.367-1.521,0.697c-0.601,0.406-0.993,0.992-1.262,1.668l-0.049,0.133L54.329,41.743 M61.522,37.485
										c-0.101,0.005-0.189,0.013-0.262,0.021c-0.319,0.034-0.638,0.077-0.949,0.111c-0.646,0.077-1.284,0.154-1.931,0.24
										c-0.36,0.045-0.728,0.09-1.088,0.135c-0.893,0.125-1.788,0.294-2.672,0.418c-0.623,0.094-1.242,0.135-1.864,0.211
										c-0.483,0.06-0.587,0.17-0.658,0.67c-0.016,0.132-0.041,0.263-0.057,0.395c-0.058,0.551-0.115,1.094-0.156,1.645
										c-0.022,0.236,0.014,0.443,0.253,0.509c0.59,0.178,0.873,0.607,0.922,1.266c0.066,0.789,0.148,1.568,0.215,2.356
										c0.104,1.231,0.282,2.44,0.652,3.587c0.306,0.985,0.763,1.875,1.626,2.378c0.573,0.327,1.189,0.608,1.828,0.801
										c1.076,0.327,2.222,0.319,3.382,0.336c0.312,0.004,0.633-0.002,0.958-0.02c3.5-0.183,7.545-1.604,8.996-5.185
										c0.562-1.37,1.29-2.662,1.827-4.03c0.342-0.873,1.045-1.324,1.723-1.359c0.709-0.037,1.391,0.38,1.604,1.246
										c0.333,1.34,0.708,2.67,1.216,3.923c1.281,3.119,4.229,3.643,7.456,3.727c0.238,0.007,0.477,0.004,0.715-0.008
										c0.914-0.048,1.828-0.239,2.729-0.555c0.672-0.235,1.333-0.566,1.965-0.939c0.944-0.562,1.838-1.515,2.296-2.522
										c0.542-1.178,0.481-1.366,0.775-2.608c0.194-0.794,0.396-1.588,0.575-2.381c0.154-0.669,0.506-1.123,1.128-1.338
										c0.249-0.083,0.318-0.295,0.333-0.531c0.042-0.55,0.066-1.092,0.1-1.642c0-0.131-0.009-0.261,0-0.392
										c0.006-0.505-0.086-0.605-0.555-0.632c-0.616-0.028-1.233-0.031-1.847-0.077c-0.873-0.068-1.743-0.188-2.616-0.246
										c-0.364-0.024-0.72-0.041-1.084-0.065c-0.631-0.037-1.263-0.073-1.894-0.101c-0.316-0.019-0.631-0.037-0.939-0.056
										c-0.241-0.014-0.481-0.012-0.72,0c-0.537,0.028-1.069,0.112-1.614,0.201c-0.516,0.079-1.04,0.141-1.557,0.229
										c-0.714,0.133-1.439,0.302-2.14,0.478c-0.883,0.229-1.75,0.475-2.626,0.721c-0.939,0.262-1.877,0.377-2.818,0.427
										c-0.06,0.003-0.12,0.006-0.18,0.009c-1.008,0.027-2.005-0.017-2.982-0.236c-0.841-0.191-1.683-0.373-2.534-0.538
										c-0.673-0.139-1.373-0.25-2.074-0.335c-0.508-0.06-1.026-0.085-1.535-0.137C64.748,37.533,62.521,37.433,61.522,37.485"/>
								</g>
							</g>
						</g>
					</g>
				</g>
			</g>
		</g>
	</g>
	<polygon points="42.393,42.494 52.777,40.854 52.416,39.032 41.628,41.167 	"/>
</g>
<g>
	<g>
		<polygon fill="#6F302D" points="325.044,147.841 328.136,145.604 328.136,126.453 325.012,124.885 		"/>
		<polygon fill="#BA7C29" points="320.313,145.839 325.044,147.841 325.044,126.226 320.445,124.885 		"/>
	</g>
	<g>
		<polygon fill="#6F302D" points="262.493,131.771 265.605,130.706 265.583,110.384 262.46,108.815 		"/>
		<polygon fill="#BA7C29" points="257.762,129.769 262.493,131.771 262.493,110.155 257.893,108.815 		"/>
	</g>
	<g>
		<polygon fill="#6F302D" points="362.633,131.324 365.723,129.087 365.723,109.938 362.6,108.369 		"/>
		<polygon fill="#BA7C29" points="357.902,129.321 362.633,131.324 362.633,109.709 358.034,108.369 		"/>
	</g>
	<g>
		<g>
			<polygon fill-rule="evenodd" clip-rule="evenodd" fill="#6F302D" points="358.535,105.006 363.393,68.07 360.964,67.619 
				356.568,103.214 			"/>
			<polygon fill-rule="evenodd" clip-rule="evenodd" fill="#BA7C29" points="357.369,105.395 362.227,68.459 359.798,68.008 
				355.402,103.603 			"/>
		</g>
		<g>
			<polygon fill-rule="evenodd" clip-rule="evenodd" fill="#6F302D" points="341.906,101.524 345.822,64.477 343.383,64.088 
				339.895,99.783 			"/>
			<polygon fill-rule="evenodd" clip-rule="evenodd" fill="#BA7C29" points="340.751,101.942 344.667,64.895 342.227,64.507 
				338.739,100.201 			"/>
		</g>
		<polygon fill-rule="evenodd" clip-rule="evenodd" fill="#6F302D" points="339.103,67.382 363.295,80.091 364.85,78.925 
			365.87,71.153 340.658,66.216 		"/>
		<polygon fill-rule="evenodd" clip-rule="evenodd" fill="#BA7C29" points="338.133,75.428 363.295,80.091 364.315,72.318 
			339.103,67.382 		"/>
		<g>
			<polygon fill-rule="evenodd" clip-rule="evenodd" fill="#21618C" points="317.327,96.247 321.86,111.272 323.296,111.272 
				326.081,102.932 328.29,103.221 333.758,112.231 335.295,111.941 338.943,96.706 			"/>
			<path fill-rule="evenodd" clip-rule="evenodd" fill="#FFCBA5" d="M319.494,82.791c-1.905,3.854-3.477,8.726-4.745,12.486
				c-0.731,0.827-2.203,0.421-1.795-0.877c1.366-4.162,3.127-9.23,4.839-12.388L319.494,82.791z"/>
			<path fill-rule="evenodd" clip-rule="evenodd" fill="#0F7E47" d="M319.078,84.428c-0.619-1.062-1.606-1.526-2.043-1.233
				c0.376-0.905,0.747-1.638,1.504-2.395c0.421-0.559,2.244-0.093,1.53,1.449L319.078,84.428z"/>
			<path fill-rule="evenodd" clip-rule="evenodd" fill="#7CC157" d="M319.18,80.693c-1.315,1.344-1.771,9.169-1.853,15.875
				c3.982,2.914,18.714,2.256,22.517-0.408c0.791-4.014,0.009-14.11-2.767-16.241C335.989,78.339,322.475,77.918,319.18,80.693z"/>
			<path opacity="0.102" fill-rule="evenodd" clip-rule="evenodd" d="M332.052,82.253v16.88l7.637-1.445
				c0.285-5.442,0.398-5.461-0.168-11.906l-1.81-5.49c-1.018-1.655-7.923-1.926-13.793-1.292c-2.608,0.112-4.407,1.203-5.146,2
				C324.659,80.305,331.036,81.781,332.052,82.253z"/>
			<path fill-rule="evenodd" clip-rule="evenodd" fill="#FFCBA5" d="M324.65,78.318l0.386,2.057l0.772,1.08l2.707-1.222
				c0.019-0.594-0.013-1.324,0.004-1.917L324.65,78.318z"/>
			<path fill-rule="evenodd" clip-rule="evenodd" fill="#FFCBA5" d="M336.352,82.224c0.934,4.249,1.737,9.431,2.026,13.426
				l1.958-0.52c-0.281-4.41-1.073-9.71-1.996-13.228L336.352,82.224z"/>
			<path fill-rule="evenodd" clip-rule="evenodd" fill="#0F7E47" d="M336.386,84.043c0.915-0.88,2.04-1.08,2.405-0.682
				c-0.139-0.982-0.322-1.791-0.885-2.73c-0.281-0.658-2.25-0.67-1.941,1.022L336.386,84.043z"/>
			<path fill-rule="evenodd" clip-rule="evenodd" fill="#FFCBA5" d="M337.698,93.49l-6.46-1.043l-1.232-0.748l-1.883-0.057
				l-0.979,1.594l1.368,2.458l1.016,0.434l2.058,0.247l0.636-1.549l6.463,1.252c1.376,0.026,1.981-0.514,1.801-1.092
				C340.305,94.404,339.46,93.771,337.698,93.49z"/>
			<polygon fill-rule="evenodd" clip-rule="evenodd" fill="#333332" points="323.303,111.284 322.064,111.187 318.922,111.958 
				319.585,112.83 324.157,112.73 324.35,111.863 			"/>
			<polygon fill-rule="evenodd" clip-rule="evenodd" fill="#333332" points="333.941,111.929 335.299,111.732 338.894,113.099 
				337.725,113.875 333.26,113.579 333.165,112.414 			"/>
			<path fill-rule="evenodd" clip-rule="evenodd" fill="#FFCBA5" d="M308.646,62.029c-3.614,7.957,1.045,11.472,6.449,14.022
				c11.008,4.672,22.282,3.726,25.073,2.424c2.798-1.299,5.381-3.724,6.055-5.38c8.895-1.08,11.282-12.875,3.853-11.221
				c0.525-3.537,4.016-6.152-0.702-10.004l-27.588-13.267c-6.476-0.562-4.481,1.356-6.759,4.403
				c-6.288,1.716-7.067,11.587-7.305,13.942C308.414,59.543,307.838,60.6,308.646,62.029z"/>
			<path fill-rule="evenodd" clip-rule="evenodd" fill="#D26335" d="M318.191,22.474c-6.437,2.088-14.249,20.384-8.165,25.18
				c1.774-2.749,6.62-1.39,10.051,1.316c3.559-0.557,18.464-1.009,22.353,2.02c5.509,3.769,3.107,11.068,2.763,14.083l-1.057,2.209
				l2.22,1.673l3.801-6.844l-3.637,11.184c9.284-8.748,11.207-18.159,11.562-24.518c0.356-6.367-2.562-12.83-9.42-13.666
				C342.557,28.346,317.897,33.508,318.191,22.474z"/>
			<path fill-rule="evenodd" clip-rule="evenodd" fill="#EB803A" d="M312.812,65.175c0.01-0.048,0.05-0.08,0.097-0.068
				c0.045,0.007,0.079,0.05,0.071,0.097c-0.012,0.049-0.056,0.076-0.101,0.069C312.832,65.261,312.8,65.22,312.812,65.175z"/>
			<path fill-rule="evenodd" clip-rule="evenodd" fill="#EB803A" d="M313.264,65.979c0.021-0.108,0.123-0.18,0.232-0.158
				c0.107,0.023,0.179,0.124,0.156,0.232c-0.02,0.107-0.123,0.177-0.232,0.158C313.314,66.192,313.248,66.087,313.264,65.979z"/>
			<path fill-rule="evenodd" clip-rule="evenodd" fill="#EB803A" d="M310.568,66.973c0.023-0.111,0.123-0.181,0.23-0.16
				c0.106,0.02,0.178,0.121,0.16,0.228c-0.021,0.111-0.125,0.181-0.229,0.16C310.621,67.18,310.55,67.077,310.568,66.973z"/>
			<path fill-rule="evenodd" clip-rule="evenodd" fill="#EB803A" d="M312.694,67.617c0.015-0.072,0.077-0.117,0.136-0.104
				c0.063,0.008,0.101,0.077,0.088,0.144c-0.014,0.071-0.073,0.117-0.135,0.104C312.72,67.751,312.681,67.684,312.694,67.617z"/>
			<path fill-rule="evenodd" clip-rule="evenodd" fill="#EB803A" d="M322.581,66.93c-0.042-0.019-0.062-0.064-0.045-0.111
				c0.019-0.041,0.07-0.062,0.11-0.043c0.044,0.017,0.065,0.067,0.044,0.11C322.677,66.93,322.625,66.949,322.581,66.93z"/>
			<path fill-rule="evenodd" clip-rule="evenodd" fill="#EB803A" d="M323.481,66.609c-0.1-0.045-0.147-0.159-0.106-0.263
				c0.043-0.101,0.161-0.148,0.261-0.104c0.104,0.043,0.152,0.157,0.108,0.259C323.703,66.603,323.585,66.652,323.481,66.609z"/>
			<path fill-rule="evenodd" clip-rule="evenodd" fill="#EB803A" d="M323.895,69.456c-0.099-0.042-0.146-0.161-0.105-0.261
				c0.045-0.101,0.158-0.147,0.262-0.104c0.101,0.04,0.148,0.158,0.104,0.259C324.115,69.452,323.997,69.497,323.895,69.456z"/>
			<path fill-rule="evenodd" clip-rule="evenodd" fill="#EB803A" d="M324.96,67.521c-0.069-0.022-0.1-0.091-0.075-0.151
				c0.022-0.056,0.097-0.081,0.16-0.056c0.064,0.026,0.101,0.099,0.075,0.154C325.094,67.529,325.023,67.552,324.96,67.521z"/>
			<path fill-rule="evenodd" clip-rule="evenodd" fill="#F0A27D" d="M316.075,67.552c-0.459,0.051,0.647,0.961,1.291,1.085
				c0.644,0.121,2.497,0.095,2.557-0.356C318.492,67.814,316.219,67.255,316.075,67.552z"/>
			<path opacity="0.2" fill-rule="evenodd" clip-rule="evenodd" fill="#FFFFFF" d="M319.056,67.554
				c0.032-0.16,0.25-0.257,0.493-0.21c0.247,0.047,0.415,0.216,0.386,0.376c-0.029,0.162-0.252,0.259-0.495,0.211
				C319.195,67.886,319.023,67.718,319.056,67.554z"/>
			<path fill-rule="evenodd" clip-rule="evenodd" fill="#FFFFFF" d="M314.274,70.396c4.358,1.815,5.824,1.73,9.79,1.309
				c2.208-0.214,1.894,2.886,0.507,3.752c-3.235,0.876-7.924,0.803-10.809-1.636C312.187,72.121,312.271,69.52,314.274,70.396z"/>
			<path fill-rule="evenodd" clip-rule="evenodd" fill="#E33932" d="M313.701,70.183l-0.026,0.676
				c4.5,2.397,9.319,1.876,11.676,1.503c0.976,1.437-0.613,3.389-1.677,3.316c-3.083,0.421-7.225-0.215-9.948-2.301l-0.295,0.103
				C311.969,71.734,312.401,69.677,313.701,70.183z"/>
			<path opacity="0.2" fill-rule="evenodd" clip-rule="evenodd" fill="#FFFFFF" d="M319.746,48.843
				c-11.08-8.954-7.81-18.997-2.104-26.702C312.484,31.958,314.119,44.501,319.746,48.843z"/>
			<path fill-rule="evenodd" clip-rule="evenodd" fill="#854A27" d="M329.05,56.013c2.562-1.021,12.821,3.184,13.985,3.764
				C343.518,58.122,328.583,51.854,329.05,56.013z"/>
			<path fill-rule="evenodd" clip-rule="evenodd" fill="#FFFFFF" d="M325.561,65.514c-0.106-0.421-0.67-0.812-0.611-1.174
				c0.064-0.366,0.891-0.629,0.981-1.002c1.805-6.39,15.001-4.246,14.061,2.115C337.465,72.476,326.718,69.582,325.561,65.514z"/>
			<path fill-rule="evenodd" clip-rule="evenodd" fill="#849E55" d="M326.078,63.346c0.364-1.934,2.336-3.183,4.405-2.796
				c2.065,0.393,3.446,2.278,3.08,4.208c-0.365,1.936-2.336,3.185-4.404,2.791C327.094,67.16,325.711,65.275,326.078,63.346z"/>
			<path fill-rule="evenodd" clip-rule="evenodd" fill="#F1D6E4" d="M325.138,64.072c-0.133-0.087-0.561,0.421-0.51,0.621
				c0.05,0.202,0.731,0.678,0.815,0.582C325.132,64.844,325.157,64.542,325.138,64.072z"/>
			<path opacity="0.102" fill-rule="evenodd" clip-rule="evenodd" fill="#FFFFFF" d="M326.609,63.735
				c0.25-1.323,1.507-2.198,2.805-1.952c1.296,0.242,2.145,1.517,1.894,2.843c-0.253,1.322-1.503,2.199-2.803,1.952
				C327.206,66.334,326.357,65.062,326.609,63.735z"/>
			<path opacity="0.102" fill-rule="evenodd" clip-rule="evenodd" fill="#FFFFFF" d="M328.446,64.657
				c0.17-0.905,1.054-1.501,1.971-1.328c0.919,0.175,1.525,1.049,1.355,1.958c-0.169,0.903-1.056,1.496-1.974,1.322
				C328.88,66.437,328.272,65.559,328.446,64.657z"/>
			<path opacity="0.2" fill-rule="evenodd" clip-rule="evenodd" fill="#FFFFFF" d="M330.417,63.385
				c0.117-0.606,0.706-1.009,1.311-0.892c0.608,0.115,1.009,0.7,0.896,1.306c-0.113,0.611-0.7,1.011-1.31,0.896
				C330.705,64.581,330.306,63.992,330.417,63.385z"/>
			<path fill-rule="evenodd" clip-rule="evenodd" d="M327.664,63.405c0.125-0.639,0.735-1.054,1.365-0.935
				c0.64,0.121,1.058,0.732,0.938,1.369c-0.122,0.635-0.734,1.049-1.371,0.93C327.963,64.652,327.545,64.04,327.664,63.405z"/>
			<path fill-rule="evenodd" clip-rule="evenodd" fill="#854A27" d="M326.086,62.828c2.568-6.694,11.34-2.854,12.874-1.826
				c2.14,1.397,2.027,3.165,1.897,3.645c-0.964,2.821-4.072,6.711-9.425,4.994c4.635,0.564,7.929-1.631,8.524-5.25
				C339.966,60.474,328.628,56.532,326.086,62.828z"/>
			<path fill-rule="evenodd" clip-rule="evenodd" fill="#854A27" d="M316.203,53.895c-1.077-1.458-6.826,0.111-8.625,0.943
				C306.933,52.812,317.679,50.008,316.203,53.895z"/>
			<path fill-rule="evenodd" clip-rule="evenodd" fill="#FFFFFF" d="M315.659,62.812c-2.701,3.814-9.628,1.172-8.642-3.671
				c1.101-5.191,8.968-2.203,8.954,2.717C316.132,62.184,316.263,62.938,315.659,62.812z"/>
			<path fill-rule="evenodd" clip-rule="evenodd" fill="#F1D6E4" d="M316.148,62.159c0.108-0.032,0.238,0.51,0.145,0.662
				c-0.09,0.152-0.666,0.35-0.691,0.243C315.924,62.797,315.997,62.54,316.148,62.159z"/>
			<path fill-rule="evenodd" clip-rule="evenodd" fill="#849E55" d="M307.093,59.445c0.283-1.499,1.729-2.483,3.23-2.199
				c1.499,0.281,2.485,1.728,2.203,3.229c-0.286,1.495-1.73,2.486-3.229,2.201C307.796,62.393,306.809,60.945,307.093,59.445z"/>
			<path opacity="0.102" fill-rule="evenodd" clip-rule="evenodd" fill="#FFFFFF" d="M308.146,59.515
				c0.172-0.893,0.985-1.488,1.826-1.328c0.836,0.158,1.378,1.009,1.209,1.902c-0.167,0.89-0.984,1.485-1.823,1.329
				C308.521,61.26,307.979,60.406,308.146,59.515z"/>
			<path opacity="0.102" fill-rule="evenodd" clip-rule="evenodd" fill="#FFFFFF" d="M309.301,60.099
				c0.12-0.638,0.687-1.063,1.268-0.956c0.581,0.112,0.958,0.716,0.834,1.354c-0.12,0.632-0.686,1.06-1.27,0.948
				C309.553,61.333,309.181,60.731,309.301,60.099z"/>
			<path opacity="0.2" fill-rule="evenodd" clip-rule="evenodd" fill="#FFFFFF" d="M310.636,59.245
				c0.074-0.391,0.437-0.653,0.817-0.58c0.379,0.07,0.624,0.447,0.551,0.84c-0.075,0.389-0.44,0.651-0.82,0.58
				C310.805,60.015,310.558,59.637,310.636,59.245z"/>
			<path fill-rule="evenodd" clip-rule="evenodd" d="M308.372,59.558c0.1-0.526,0.579-0.879,1.064-0.787
				c0.486,0.092,0.797,0.594,0.7,1.119c-0.101,0.529-0.577,0.882-1.064,0.79C308.586,60.587,308.273,60.085,308.372,59.558z"/>
			<path fill-rule="evenodd" clip-rule="evenodd" fill="#854A27" d="M315.337,59.543c-1.887-2.891-5.363-3.364-7.053-2.05
				c-2.356,2.045-0.539,5.981,1.933,7.003c-2.877-1.099-3.392-3.7-3.483-5.213C306.622,55.256,312.999,55.24,315.337,59.543z"/>
			<path fill-rule="evenodd" clip-rule="evenodd" fill="#FFCBA5" d="M351.078,62.828c-1.698,0.094-4.774,6.127-7.162,9.188
				c0.561,0.735,7.873,0.623,10.146-3.296C355.584,66.102,354.993,62.733,351.078,62.828z"/>
			<path opacity="0.502" fill-rule="evenodd" clip-rule="evenodd" fill="#DEAC8C" d="M350.37,63.953
				c2.403,0.151,3.491,2.016,3.048,3.329c-0.378,1.313-2.24,2.219-2.891,2.381c-0.653,0.164-0.382-1.359-1.02-1.403
				c-0.645-0.043-2.807,1.779-2.823,1.132C347.824,67.739,349.229,65.61,350.37,63.953z"/>
		</g>
		<polygon fill="#6F302D" points="255,110.085 327.329,128.135 370.037,110.12 370.582,106 255,106 		"/>
		<polygon fill="#BA7C29" points="255.627,106.315 327.144,124.436 370.582,106.518 299.672,92.901 		"/>
		<path fill-rule="evenodd" clip-rule="evenodd" fill="#FFCBA5" d="M314.418,96.468l6.605,2.332
			c0.207,0.275,0.397,1.154,0.931,1.396c0.535,0.24,1.749,0.117,2.272,0.054l0.88-0.432l0.77-0.007l0.358-0.824
			c-0.162-0.451-0.896-1.779-1.33-1.879c-0.429-0.104-1.35,0.573-3.042,0.067l-7.088-3.375c-0.28-0.236-1.955,0.468-2.015,0.913
			C312.699,95.157,313.031,95.935,314.418,96.468z"/>
		<g>
			<g>
				<polygon fill="#F8AF42" points="328.401,116.474 330.654,115.209 330.494,114.146 327.965,113.604 318.247,115.072 
					318.68,117.942 				"/>
				<path fill="#CCCBCB" d="M318.54,117.963c0.781-0.118,1.319-0.848,1.202-1.629l-0.007-0.041
					c-0.119-0.778-0.848-1.316-1.628-1.197l-1.315,0.196c-0.781,0.118-0.521,0.727-0.403,1.51l0.006,0.039
					c0.118,0.779,0.05,1.438,0.83,1.32L318.54,117.963z"/>
				
					<rect x="317.567" y="114.87" transform="matrix(0.1492 0.9888 -0.9888 0.1492 386.6514 -216.576)" fill="#E8506A" width="3.227" height="3.061"/>
				<path fill="#4D4E4E" d="M330.43,114.128c0,0,0.836,0.151,1.084,0.234c0.246,0.086,0.452,0.214-0.859,0.847
					C330.654,115.209,330.178,114.818,330.43,114.128z"/>
				<path fill="#E8506A" d="M318.444,117.815c0,0,0.503,0.719,0.791,0.736c0.286,0.017,5.089-0.713,5.089-0.713
					s0.384,0.05,0.318-0.367l-3.988,0.604l-0.497-0.25l-1.729-0.022"/>
			</g>
		</g>
		<g>
			<path fill="#D0455C" d="M291.903,96.187l11.674,2.903l-12.168,10.995l-15.442-3.892
				C275.967,106.193,274.423,106.133,291.903,96.187z"/>
			<path fill="#F7B844" d="M278.005,110.085c0,0-1.914-2.843-2.038-3.892s15.442,3.892,15.442,3.892s-0.741,1.668,0.681,2.595
				L278.005,110.085z"/>
			<path fill="#E29F33" d="M292.09,112.68l11.487-10.253c0,0-1.296-1.547,0-3.337l-12.168,10.995
				C291.409,110.085,290.482,111.938,292.09,112.68z"/>
		</g>
	</g>
	<g>
		<g>
			
				<rect x="265.181" y="46.623" transform="matrix(-0.9753 0.2207 -0.2207 -0.9753 554.3652 50.96)" fill="#FFFFFF" width="18.308" height="19.658"/>
			
				<rect x="265.642" y="47.78" transform="matrix(-0.9753 0.2207 -0.2207 -0.9753 552.7168 46.2056)" fill="#CDF4EF" width="16.27" height="12.406"/>
			<circle fill="#FFA735" cx="269.16" cy="53.196" r="2.052"/>
			<polygon fill="#786056" points="283.08,58.238 277.426,54.67 275.33,57.568 272.679,56.829 267.211,61.829 			"/>
			<polygon opacity="0.14" fill="#295D71" points="263.238,48.887 267.576,68.06 285.433,64.019 			"/>
		</g>
		
			<rect x="268.178" y="45.623" transform="matrix(-0.9754 0.2205 -0.2205 -0.9754 547.7458 31.9154)" fill="#FF4F54" width="7.826" height="1.823"/>
	</g>
	<g>
		<g>
			
				<rect x="285.853" y="19.266" transform="matrix(-0.9981 0.0619 -0.0619 -0.9981 585.1948 32.8841)" fill="#F5F5F5" width="12.471" height="12.47"/>
			
				<rect x="288.794" y="18.493" transform="matrix(-0.9981 0.0619 -0.0619 -0.9981 584.0411 20.4563)" fill="#E30012" width="5.82" height="1.57"/>
		</g>
		
			<rect x="286.692" y="21.655" transform="matrix(-0.9981 0.0619 -0.0619 -0.9981 584.3313 26.5588)" fill="#D3D3D3" width="10.124" height="1.346"/>
		
			<rect x="286.829" y="23.859" transform="matrix(-0.9981 0.0619 -0.0619 -0.9981 584.7408 30.9553)" fill="#D3D3D3" width="10.124" height="1.346"/>
		
			<rect x="291.656" y="25.919" transform="matrix(-0.9981 0.062 -0.062 -0.9981 589.8234 34.8884)" fill="#D3D3D3" width="5.428" height="1.345"/>
	</g>
	<g>
		<g>
			<g>
				
					<rect x="251.079" y="8.245" transform="matrix(-0.9763 -0.2165 0.2165 -0.9763 511.7861 93.9456)" fill="#FFFFFF" width="19.921" height="21.388"/>
				
					<rect x="252.785" y="9.501" transform="matrix(-0.9763 -0.2165 0.2165 -0.9763 513.5518 88.7489)" fill="#003359" width="17.703" height="13.498"/>
				<circle fill="#FFA735" cx="257.457" cy="13.331" r="2.234"/>
				<polygon opacity="0.14" fill="#295D71" points="253.631,6.342 249,27.223 268.448,31.536 				"/>
			</g>
			
				<rect x="259.178" y="7.146" transform="matrix(-0.9763 -0.2165 0.2165 -0.9763 518.8613 73.1118)" fill="#B6D138" width="8.514" height="1.983"/>
		</g>
		<path fill="#FFFFFF" d="M255.512,18.657c-0.104,0.467,0.191,0.929,0.658,1.033l4.127,0.915c0.467,0.104,0.93-0.191,1.032-0.658
			l0,0c0.104-0.467-0.19-0.929-0.656-1.033l-4.128-0.916C256.077,17.896,255.616,18.189,255.512,18.657L255.512,18.657z"/>
		<path fill="#FFFFFF" d="M262.347,15.816c-0.104,0.467,0.19,0.929,0.658,1.032l4.128,0.916c0.466,0.103,0.929-0.191,1.032-0.658
			l0,0c0.104-0.467-0.191-0.929-0.658-1.033l-4.127-0.915C262.913,15.055,262.45,15.35,262.347,15.816L262.347,15.816z"/>
	</g>
</g>
</svg>
