<?xml version="1.0" encoding="utf-8"?>
<!-- Generator: Adobe Illustrator 15.1.0, SVG Export Plug-In . SVG Version: 6.00 Build 0)  -->
<!DOCTYPE svg PUBLIC "-//W3C//DTD SVG 1.1//EN" "http://www.w3.org/Graphics/SVG/1.1/DTD/svg11.dtd">
<svg version="1.1" id="Calque_1" xmlns="http://www.w3.org/2000/svg" xmlns:xlink="http://www.w3.org/1999/xlink" x="0px" y="0px"
	 width="400px" height="150px" viewBox="0 0 400 150" enable-background="new 0 0 400 150" xml:space="preserve">
<rect fill="#56E6F3" width="400" height="150"/>
<polygon fill="#4ADEEB" points="-1,85.932 400,28.012 400,150 -1,150 "/>
<g>
	<g>
		<g>
			<defs>
				<rect id="SVGID_1_" x="-5" y="15" width="92" height="118"/>
			</defs>
			<clipPath id="SVGID_2_">
				<use xlink:href="#SVGID_1_"  overflow="visible"/>
			</clipPath>
			<g clip-path="url(#SVGID_2_)">
				<path fill="#B2F5FF" d="M54.927,167.917L-81.368,163.7l2.526-125.614c16.017-8.711,25.012,6.182,25.012,6.182
					c0-3.373,4.216-9.557,13.49-10.398c9.274-0.841,14.332,12.085,14.332,12.085s14.053-14.331,24.729,0.843
					c10.681,15.174-5.62,25.574-5.62,25.574s12.364-7.025,19.393-0.844c7.024,6.183,2.807,16.861,2.807,16.861
					c1.97-1.97,18.269-8.147,25.012-1.125c6.748,7.024,0.844,17.144,0.844,17.144c18.268-0.281,15.454,16.579,15.454,16.579
					L54.927,167.917z"/>
				<path fill="none" stroke="#FFFFFF" stroke-width="0.25" stroke-miterlimit="10" d="M-76.649,35.98
					c16.02-8.711,25.012,6.182,25.012,6.182c0-3.371,4.212-9.554,13.488-10.397c9.272-0.843,14.334,12.085,14.334,12.085
					s14.05-14.332,24.729,0.842c10.681,15.176-5.617,25.574-5.617,25.574s12.361-7.025,19.387-0.843
					c7.024,6.183,2.812,16.859,2.812,16.859c1.968-1.968,18.267-8.148,25.01-1.123C49.25,92.184,43.35,102.3,43.35,102.3
					c18.268-0.278,15.455,16.584,15.455,16.584l-1.687,46.931L-79.177,161.6"/>
			</g>
		</g>
	</g>
</g>
<rect y="127" fill="#649C46" width="400" height="23"/>
<rect y="130" fill="#7DC256" width="400" height="20"/>
<path fill="#7DC256" stroke="#649C46" stroke-width="0.25" stroke-miterlimit="10" d="M171.221,132.234c0,0-2.961-4.146-1.48-4.736
	c1.48-0.592,3.256,0.593,3.256,2.368c0,0-1.184-3.552,0.592-4.144c1.776-0.594,1.775,4.144,1.775,4.144s0.889-2.072,2.072-2.072
	c1.185,0-0.592,4.735-0.592,4.735"/>
<path fill="#7DC256" stroke="#649C46" stroke-width="0.25" stroke-miterlimit="10" d="M14.785,145.014c0,0-2.961-4.145-1.48-4.736
	c1.48-0.592,3.256,0.594,3.256,2.367c0,0-1.184-3.552,0.592-4.144c1.776-0.592,1.775,4.144,1.775,4.144s0.889-2.07,2.072-2.07
	c1.185,0-0.592,4.734-0.592,4.734"/>
<g>
	<path opacity="0.56" fill="#FEFA7C" enable-background="new    " d="M166.578,5.838c8.918,0,16.146,7.229,16.146,16.146
		c0,8.918-7.229,16.146-16.146,16.146s-16.146-7.229-16.146-16.146S157.661,5.838,166.578,5.838z"/>
	<path fill="#FEFA7C" d="M166.578,9.613c6.833,0,12.372,5.539,12.372,12.371c0,6.833-5.539,12.372-12.372,12.372
		s-12.372-5.539-12.372-12.372C154.206,15.152,159.745,9.613,166.578,9.613z"/>
</g>
<path fill="#649C46" d="M209.721,128.499c0,0-5.145-26.121-2.675-26.739c2.472-0.617,7,21.617,7,21.617s-3.705-28.41,0.824-29.852
	c4.528-1.442,3.705,29.438,3.705,29.438s0.616-28.409,2.882-28.616c2.266-0.205,1.854,29.233,1.854,29.233
	s1.646-23.675,4.323-23.675s-0.825,28.005-0.825,28.005L209.721,128.499z"/>
<path fill="#649C46" d="M233.292,128.219c0,0-3.647-19.316-2.396-19.354c1.25-0.038,3.25,11.244,3.25,11.244
	s0.347-13.248,1.627-13.49c1.276-0.241,0.522,12.951,0.522,12.951s1.749-8.278,2.771-8.141c1.021,0.139-1.553,16.787-1.553,16.787"
	/>
<path fill="#7DC256" stroke="#649C46" stroke-width="0.25" stroke-miterlimit="10" d="M244.553,144.057c0,0-2.961-4.145-1.479-4.736
	c1.479-0.592,3.256,0.594,3.256,2.367c0,0-1.186-3.551,0.592-4.144c1.777-0.592,1.773,4.144,1.773,4.144s0.891-2.07,2.072-2.07
	c1.187,0-0.592,4.734-0.592,4.734"/>
<path fill="#7DC256" stroke="#649C46" stroke-width="0.25" stroke-miterlimit="10" d="M383.519,133.134c0,0-2.961-4.144-1.479-4.735
	c1.479-0.592,3.256,0.594,3.256,2.367c0,0-1.184-3.552,0.592-4.144c1.776-0.593,1.775,4.144,1.775,4.144s0.889-2.072,2.072-2.072
	c1.185,0-0.594,4.736-0.594,4.736"/>
<g>
	<g>
		<g>
			<defs>
				<rect id="SVGID_3_" x="309" y="-21" width="92" height="118"/>
			</defs>
			<clipPath id="SVGID_4_">
				<use xlink:href="#SVGID_3_"  overflow="visible"/>
			</clipPath>
			<g clip-path="url(#SVGID_4_)">
				<path fill="#B2F5FF" d="M341.073-55.917L477.368-51.7l-2.526,125.614c-16.017,8.711-25.012-6.182-25.012-6.182
					c0,3.373-4.216,9.557-13.49,10.398c-9.272,0.841-14.332-12.085-14.332-12.085s-14.053,14.331-24.729-0.843
					c-10.683-15.174,5.62-25.574,5.62-25.574s-12.364,7.025-19.395,0.844c-7.022-6.183-2.807-16.86-2.807-16.86
					c-1.972,1.969-18.271,8.148-25.013,1.125c-6.747-7.025-0.845-17.143-0.845-17.143c-18.268,0.281-15.454-16.58-15.454-16.58
					L341.073-55.917z"/>
				<path fill="none" stroke="#FFFFFF" stroke-width="0.25" stroke-miterlimit="10" d="M472.649,76.02
					c-16.021,8.711-25.014-6.182-25.014-6.182c0,3.371-4.212,9.555-13.486,10.396c-9.272,0.844-14.334-12.084-14.334-12.084
					s-14.052,14.333-24.729-0.842c-10.681-15.176,5.617-25.574,5.617-25.574s-12.361,7.025-19.387,0.843
					c-7.024-6.182-2.812-16.859-2.812-16.859c-1.968,1.967-18.267,8.148-25.01,1.123C346.75,19.816,352.65,9.7,352.65,9.7
					c-18.27,0.279-15.455-16.584-15.455-16.584l1.687-46.93l136.295,4.215"/>
			</g>
		</g>
	</g>
</g>
<g>
	<g>
		<g>
			<g>
				<path fill="#CC9966" d="M120.935,130.057c0,0-1.919,2.93-2.784,3.566c-0.862,0.643,0.021,2.509,0,2.688
					c-0.021,0.182,7.004-2.344,6.921,3.906c-0.026,1.748-8.266,0.963-10.427,0.659c-2.166-0.299-1.685-7.089-0.783-9.739
					c0.901-2.644,7.073-1.804,7.073-1.438V130.057z"/>
			</g>
			<g>
				<path fill="#CC9966" d="M138.938,125.55c0,0-2.109,7.948-1.146,10.337c0,0,7.936-2.002,7.936,5.234
					c0,1.104-9.622,0.357-11.545,0c-1.925-0.365-1.682-9.682-1.503-11.487C132.86,127.834,138.938,125.55,138.938,125.55z"/>
			</g>
			<g opacity="0.25">
				<path fill="#663300" d="M123.716,142.629c-0.78,1.21-12.378-0.535-12.865-1.58c-0.488-1.044,1.95-5.708,1.603-8.216
					c-0.35-2.511-2.23-7.808-2.439-10.451c-0.207-2.647,2.528-7.353,3.085-8.681c0.558-1.324,17.392,7.792,20.531-2.885
					c2.848-9.68,2.438-10.59,2.438-10.59s2.945,8.006,2.145,9.688c-0.059,0.123,3.38,11.279,0.487,15.32
					c-2.892,4.043-3.23,6.352-3.23,8.709c0,1.603,0.32,2.578,0.32,2.578s7.702-0.894,7.653,5.104
					c-0.011,1.141-8.351,0.677-11.903,0.327c-3.554-0.345-0.975-5.29-0.905-6.612c0.068-1.329-0.487-2.998-0.487-2.998
					s-9.127,0.28-10.381-0.904c-1.254-1.186-0.976-0.071-1.812,0.625c-0.834,0.698-0.696,4.945-0.696,4.945s5.92-1.529,6.897,1.604
					c0.18,0.578,0.45,1.388,0.55,2.145l-0.99,0.348L123.716,142.629"/>
			</g>
			<g>
				<path fill="#CC9966" d="M113.995,113.417c0,0-4.647-3.479-4.483-8.257c0.166-4.881-1.685,8.23,1.977,10.072
					C115.153,117.072,113.995,113.417,113.995,113.417z"/>
			</g>
			<g>
				<path fill="#CC9966" d="M138.595,110.309c-0.057,0.123,2.892,11.779,0,15.82c-2.891,4.042-4.045,6.07-4.045,8.432
					c0,1.602,0.319,2.574,0.319,2.574s7.703-0.893,7.653,5.105c-0.013,1.141-8.35,0.678-11.903,0.326
					c-3.552-0.344-0.976-5.289-0.906-6.612c0.07-1.328-0.488-2.997-0.488-2.997s-9.124,0.279-10.379-0.907
					c-1.253-1.184-0.976-0.071-1.81,0.627c-0.837,0.697-0.698,4.947-0.698,4.947s5.918-1.53,6.896,1.603
					c0.321,1.026,0.929,2.783,0.35,3.682c-0.78,1.208-13.166-0.199-13.655-1.244c-0.487-1.046,1.951-5.709,1.604-8.219
					c-0.35-2.51-2.23-7.803-2.439-10.448c-0.207-2.647,2.718-8.358,3.273-9.687c0.557-1.322,18.042,7.939,20.343-1.877
					c2.298-9.826,2.438-10.592,2.438-10.592S139.397,108.627,138.595,110.309z"/>
			</g>
			<g>
				<path fill="#CC9966" d="M145.4,88.223c0,0,3.041-3.408,3.527-5.423c0.489-2.024,1.573,1.714,9.376,6.313
					c4.138,2.435-5.648,1.498-6.867-0.672c-0.269-0.475-1.896,0.809-2.664,1.677C148.006,90.984,145.4,88.223,145.4,88.223z"/>
			</g>
			<g>
				<path fill="#CC9966" d="M151.647,95.843c0.563,2.468,6.827,3.353,7.728,6.952c0.898,3.602-3.686,10.17-9.227,9.448
					c-2.046-0.263-0.646,3.774-3.993,3.593c-3.351-0.182-11.757-5.062-13.106-8.379c-1.352-3.311-2.251-7.562-1.352-9.146
					c0.9-1.593,3.827-1.998,3.827-1.998s1.572-8.291,7.76-8.552C143.284,87.761,149.692,87.303,151.647,95.843z"/>
			</g>
			<g>
				<path fill="#996633" d="M142.045,87.932c0,0-2.92-4.388-3.597-5.565c-0.674-1.171-4.052,2.017-5.176,2.784
					c-1.124,0.769,5.681,4.509,5.681,4.509L142.045,87.932z"/>
			</g>
			<g>
				<path fill="#CC9966" d="M138.465,82.389c0,0-1.973-1.809-2.894-0.268c-0.281,0.473-1.598-1.337-3.42,1.721
					c-1.821,3.061-2.54,9.254-4.907,8.899C124.877,92.384,136.991,96.302,138.465,82.389z"/>
			</g>
			<g opacity="0.27">
				<path fill="#663300" d="M149.382,86.305c0.311-0.08,0.487-0.104,0.601,0.02c0.117,0.135,0.696,0.818,0.696,0.816
					c0,0.002,0.599,0.664,0.716,0.797c0.106,0.123,0.059,0.295-0.055,0.596c-0.302,0.097-0.482,0.135-0.602,0.015
					c-0.137-0.128-0.74-0.813-0.738-0.813c-0.002,0-0.601-0.686-0.709-0.832C149.188,86.768,149.246,86.593,149.382,86.305z"/>
			</g>
			<g>
				<path d="M152.211,107.457c0,0,9.371-2.727,7.254-6.057c-2.115-3.332-11.452-2.205-13.31-0.631
					C144.299,102.344,150.738,107.952,152.211,107.457z"/>
			</g>
			<g>
				<path fill="#A6794D" d="M152.211,107.457c0.032,1.398-0.042,2.514-1.2,3.938c-0.51,1.137-3.747,1.826-6.149,1.004
					c-2.531-0.515-4.537-1.865-4.509-1.888c0.026,0.021-2.1-1.271-3.277-3.673c-1.261-2.367-1.078-5.312-0.962-6.191
					c0.147-1.72,0.624-2.612,1.21-3.891c-0.033,1.438-0.19,2.348-0.313,3.969c-0.107,0.84-0.263,3.594,0.875,5.711
					c1.055,2.151,2.989,3.342,2.97,3.328c-0.03,0.014,1.816,1.266,4.206,1.752c2.459,0.726,4.91,0.143,5.283-0.725
					C151.296,109.643,151.688,108.764,152.211,107.457z"/>
			</g>
			<g opacity="0.25">
				<path fill="#663300" d="M129.171,129.277c0,0-4.265,2.271-8.055-0.902c-0.753-0.629-0.041,2.55-1.852,3.175
					c-1.811,0.626,10.71,1.933,10.142,1.407C127.888,131.55,130.372,128.486,129.171,129.277z"/>
			</g>
			<g>
				<path fill="#FFFFFF" d="M148.26,95.081c0,0,2.14,3.058,3.388,0.762c1.246-2.291,0.631-7.61-3.89-5.317
					c0,0-2.015-2.018-3.748,0.101C142.362,92.629,143.414,100.029,148.26,95.081z"/>
			</g>
			<g>
				<path d="M148.241,94.248c0,0.579,0.468,1.042,1.042,1.042c0.576,0,1.045-0.463,1.045-1.042c0-0.574-0.469-1.042-1.045-1.042
					C148.709,93.206,148.241,93.674,148.241,94.248z"/>
			</g>
			<g>
				<path d="M146.155,94.248c0,0.579,0.467,1.042,1.042,1.042c0.577,0,1.044-0.463,1.044-1.042c0-0.574-0.467-1.042-1.044-1.042
					C146.622,93.206,146.155,93.674,146.155,94.248z"/>
			</g>
			<g opacity="0.39">
				<path fill="#FFFFFF" d="M148.735,100.842c0,0,12.081-0.744,10.22,0.957c-1.858,1.699-8.646-0.585-10.22-0.56V100.842z"/>
			</g>
			<path d="M123.716,142.629"/>
		</g>
		<path fill="#E84E68" d="M139.38,114.618c0,0-3.932-0.132-6.592-3.522l-0.581,1.76c0,0,2.207,3.656,7.399,3.444
			C139.606,116.3,140.338,115.227,139.38,114.618z"/>
		<ellipse fill="#F7B844" cx="139.72" cy="117.688" rx="0.727" ry="1.693"/>
	</g>
	<g>
		<g>
			<path fill="#3296A9" d="M91.417,107.852c0,0-4.96,21.357-19.458,26.539c-11.562,4.133-4.191-1.746-4.191-1.746
				S83.493,109.779,91.417,107.852z"/>
			<path fill="#3EACBB" d="M92.404,111.154l-4.663-2.11l-14.605-1.501l-8.593,2.652c10.185,20.191,22.248,28.15,22.391,29.916
				l2.208-0.072l-1.716-21.783C87.425,118.256,90.083,114.889,92.404,111.154"/>
			<path opacity="0.102" enable-background="new    " d="M72.09,110.689l16.677,28.851l-1.39,0.721
				c-13.591-11.948-20.819-26.267-21.924-29.104C66.58,114.049,70.236,110.54,72.09,110.689z"/>
		</g>
		<g>
			<path fill="#FFCAA5" d="M97.334,103.364C93.815,98.75,86.037,80.096,85.04,77.65l1.822-4.081
				c1.46,1.064,10.301,22.125,12.136,26.375"/>
			<path fill="#FFCAA5" d="M95.79,100.729l-0.923,2.407c-0.141,0.851-0.17,1.863,0.103,2.699c0.27,0.842,1.102,0.927,1.511,2.345
				c0.7,1.283,2.286,2.817,2.93,2.963c0.639,0.144,0.617-0.922,0.927-2.11c0.454-3.83-0.174-7.046-1.253-8.916"/>
		</g>
		<path d="M62.91,71.329"/>
		<g>
			<path fill="#AA7B55" d="M92.889,72.36l0.485-3.45l0.617,3.436l3.175-15.917l-37.048,1.059L60.114,72.33
				C60.114,72.33,69.837,69.74,92.889,72.36z"/>
			<circle fill="#DDAD8C" cx="95.834" cy="63.495" r="0.226"/>
			<path fill="#9D88BB" d="M80.497,69.848"/>
			<path fill="#FFCBA5" d="M98.598,57.296c-0.186,6.739-2.807,11.129-9.531,13.859c-13.4,2.986-24.838-2.129-29.513-5.25
				c-7.276-5.527-7.728-19.382-4.17-29.112c11.303-3.078,19.048-9.016,33.908-9.239c7.073,3.459,9.751,10.551,10.825,17.652
				C100.776,50.056,99.016,53.51,98.598,57.296z"/>
			<circle fill="#DDAD8C" cx="93.811" cy="59.355" r="0.102"/>
			<circle fill="#DDAD8C" cx="92.998" cy="60.177" r="0.226"/>
			<ellipse fill="#DDAD8C" cx="93.396" cy="62.137" rx="0.123" ry="0.144"/>
			<path fill="#DDAD8C" d="M81.965,60.693c0.053,0.022,0.113-0.003,0.133-0.056c0.021-0.05-0.004-0.111-0.056-0.132
				c-0.053-0.021-0.113,0.003-0.133,0.054C81.887,60.615,81.913,60.674,81.965,60.693z"/>
			
				<ellipse transform="matrix(0.9283 0.3719 -0.3719 0.9283 27.9978 -26.0812)" fill="#DDAD8C" cx="81.612" cy="59.541" rx="0.245" ry="0.225"/>
			
				<ellipse transform="matrix(0.9257 0.3783 -0.3783 0.9257 29.1657 -25.291)" fill="#DDAD8C" cx="78.947" cy="61.579" rx="0.224" ry="0.245"/>
			
				<ellipse transform="matrix(0.9288 0.3705 -0.3705 0.9288 27.6103 -25.2539)" fill="#DDAD8C" cx="79.54" cy="59.241" rx="0.143" ry="0.123"/>
			<path fill="#F1A37D" d="M89.663,61.429c0.5,0.143-0.924,0.917-1.667,0.92c-0.746,0.004-2.818-0.397-2.79-0.896
				C86.903,61.229,89.563,61.073,89.663,61.429z"/>
			<ellipse opacity="0.2" fill="#FFFFFF" enable-background="new    " cx="85.807" cy="60.786" rx="0.51" ry="0.348"/>
			<path fill="#F1A37D" d="M88.625,65.09l-0.596,0.914c-1.209,0.353-9.07,1.744-10.196-1.521
				C79.451,66.179,87.11,65.521,88.625,65.09z"/>
			<path opacity="0.102" enable-background="new    " d="M100.978,48.575c-1.219-2.826-1.883-5.059-4.704-7.609
				c-4.43,5.618-19.33,7.149-25.922,7.962c-2.421,1.796-9.388,2.459-9.368,4.682l-0.255,20.292
				c-1.677-1.294-1.423-0.712-2.938-2.413l-0.706-20.08l20.439-12.414l19.523-0.701l4.119,7.738L100.978,48.575z"/>
			<path fill="#231F1F" d="M69.562,59.083"/>
			<g>
				<path fill="#6F3A1E" d="M78.563,49.552c-1.997-1.691-10.544-0.075-13.738-0.932C66.315,48.474,80.246,45.984,78.563,49.552z"/>
				<path fill="#6F3A1E" d="M92.455,50.335c1.215-1.441,7.171,1.065,9.275,0.567C100.704,50.603,91.005,46.666,92.455,50.335z"/>
			</g>
			<path fill="#FCF8DA" d="M99.994,50.248c-0.107-2.449-2.584-8.879-5.811-9.599c-3.148,5.131-20.275,7.477-23.127,7.521
				c1.732-1.383,2.859-3.272,3.542-5.273c-3.312,3.989-9.736,8.635-14.06,9.837l-0.075,21.678c-6.19-2.115-7.564-9.283-8.393-11.841
				c-8.343,14.814-28.166,9.285-27.452-1.875C36.05,71.457,41.69,46.137,40.57,32.905c-0.515-8.134,8.882-18.783,17.09-21.388
				c8.204-2.603,22.74-0.452,25.092,6.394l7.614,4.995C102.536,27.245,103.727,41.936,99.994,50.248z"/>
			<path fill="#E74F69" d="M89.165,22.535c-13.266-0.913-35.313,5.511-36.884,18.817c-3.679-11.977,12.486-25.346,30.471-23.44
				c2.342,0.249,8.747,3.836,7.967,5.246L89.165,22.535z"/>
			<path fill="#ECE1B1" d="M73.8,47.26c10.04-1.048,23.618-5.234,23.567-15.465C96.099,41.035,82.832,45.593,73.8,47.26z"/>
			<path fill="#ECE1B1" d="M74.159,47.075c8.093-1.039,19.038-5.212,18.986-15.443C92.132,40.871,81.439,45.416,74.159,47.075z"/>
			<path fill="#FFCBA5" d="M52.899,48.177l0.059,11.856c-0.979,0.411-6.391-2.562-6.416-7.725
				C46.524,48.858,49.044,45.864,52.899,48.177z"/>
			
				<ellipse transform="matrix(-0.0054 -1 1 -0.0054 -6.7805 108.8007)" fill="#3296A9" cx="50.719" cy="57.772" rx="1.002" ry="1.042"/>
			<path opacity="0.502" fill="#DDAD8C" enable-background="new    " d="M52.925,49.257c-2.411-1.398-4.662-0.318-5.082,1.222
				c-0.484,1.496,0.72,3.553,1.244,4.127c0.519,0.574,1.246-1.055,1.892-0.686c0.646,0.368,1.546,3.496,1.984,2.89
				C52.934,54.501,52.956,51.567,52.925,49.257z"/>
			<g>
				<path fill="#407AB5" d="M74.565,58.433c1.161-1.143,1.182-3.012,0.042-4.178c-1.131-1.165-2.986-1.187-4.146-0.048
					c-1.163,1.142-1.181,3.011-0.044,4.178c0.134,0.138,0.277,0.265,0.441,0.374L74.565,58.433z"/>
				<path fill="#EACCE0" d="M78.52,55.246c0.145-0.061,0.472,0.5,0.387,0.684c-0.087,0.185-0.835,0.517-0.897,0.408
					C78.387,55.984,78.42,55.689,78.52,55.246z"/>
				<path opacity="0.102" fill="#FFFFFF" enable-background="new    " d="M74.7,56.113c-0.007-1.263-1.027-2.281-2.278-2.275
					c-1.249,0.006-2.259,1.034-2.254,2.297c0.009,1.265,1.028,2.282,2.274,2.276C73.696,58.405,74.708,57.376,74.7,56.113z"/>
				<path opacity="0.102" fill="#FFFFFF" enable-background="new    " d="M72.851,56.653c-0.006-0.883-0.726-1.589-1.6-1.586
					c-0.886,0.006-1.597,0.72-1.592,1.602c0.004,0.882,0.723,1.597,1.607,1.591C72.142,58.256,72.854,57.538,72.851,56.653z"/>
				<path opacity="0.2" fill="#FFFFFF" enable-background="new    " d="M72.522,55.119c-0.002-0.577-0.477-1.041-1.063-1.039
					c-0.591,0.004-1.06,0.473-1.058,1.049c0.002,0.579,0.479,1.043,1.067,1.041C72.057,56.166,72.527,55.695,72.522,55.119z"/>
				<path fill="#F7B27B" d="M78.108,56.667c-3.776,3.867-9.008,2.733-10.843,1.546C69.403,58.643,74.001,59.185,78.108,56.667z"/>
				<path opacity="0.102" fill="#FFFFFF" enable-background="new    " d="M96.877,55.806c-0.004-0.847-0.7-1.532-1.562-1.527
					c-0.857,0.003-1.553,0.696-1.549,1.542c0.003,0.848,0.708,1.533,1.565,1.527C96.193,57.345,96.882,56.653,96.877,55.806z"/>
				<path opacity="0.102" fill="#FFFFFF" enable-background="new    " d="M95.622,56.146c-0.003-0.599-0.492-1.083-1.092-1.082
					c-0.6,0.004-1.081,0.494-1.078,1.093c0.003,0.594,0.49,1.083,1.09,1.082C95.141,57.235,95.625,56.74,95.622,56.146z"/>
				<path opacity="0.2" fill="#FFFFFF" enable-background="new    " d="M94.472,55.126c-0.001-0.382-0.32-0.685-0.712-0.683
					c-0.392,0.002-0.709,0.308-0.708,0.689c0.002,0.38,0.323,0.69,0.714,0.688C94.16,55.819,94.475,55.505,94.472,55.126z"/>
				<path d="M95.701,56.321c-0.002-0.565-0.465-1.021-1.031-1.018c-0.567,0.003-1.019,0.464-1.015,1.028
					c0.003,0.569,0.459,1.024,1.024,1.022C95.246,57.349,95.705,56.89,95.701,56.321z"/>
				<path d="M73.912,56.746c-0.005-0.676-0.548-1.22-1.223-1.216c-0.678,0.002-1.221,0.553-1.217,1.229
					c0.004,0.676,0.552,1.22,1.229,1.214C73.375,57.971,73.915,57.421,73.912,56.746z"/>
				<path fill="#F7B27B" d="M97.064,57.738c-3.338,0.586-4.911-0.304-6.815-1.407C90.579,57.411,93.983,59.464,97.064,57.738z"/>
				<path opacity="0.6" fill="#FFFFFF" enable-background="new    " d="M94.79,56.252c-0.001-0.31-0.245-0.557-0.549-0.555
					c-0.308,0-0.555,0.251-0.553,0.559c0.003,0.305,0.251,0.544,0.559,0.544C94.55,56.798,94.791,56.555,94.79,56.252z"/>
				<path opacity="0.6" fill="#FFFFFF" enable-background="new    " d="M73.043,56.333c-0.002-0.334-0.286-0.604-0.632-0.603
					c-0.347,0.002-0.627,0.275-0.626,0.609c0.001,0.343,0.286,0.612,0.631,0.611C72.762,56.948,73.045,56.676,73.043,56.333z"/>
				<path fill="#231F1F" d="M96.77,54.332c0.793-1.611,3.201-1.753,4.158-2.536c-0.058,0.41-0.255,0.828-0.433,1.043l1.211-0.075
					c-0.145,0.451-0.576,0.849-0.83,1.079l0.722-0.035c-0.1,0.486-1.287,1.517-2.532,1.791c0.747-0.354,0.976-0.871,0.901-1.917
					C99.77,53.098,97.93,52.833,96.77,54.332z"/>
				<path fill="#231F1F" d="M69.623,53.649c-1.261-2.85-5.277-3.169-6.849-4.57c0.085,0.72,0.394,1.46,0.684,1.841l-2.021-0.166
					c0.222,0.792,0.931,1.502,1.344,1.912l-1.205-0.079c0.147,0.854,2.091,2.695,4.163,3.211c-1.235-0.64-1.6-1.554-1.429-3.383
					C64.661,51.396,67.745,50.985,69.623,53.649z"/>
				<path fill="#231F1F" d="M99.092,52.403c0,0-6.928-2.073-8.686,3.742l0.441,0.575l5.669,1.094
					C96.517,57.814,102.852,55.772,99.092,52.403z"/>
				<path fill="#231F1F" d="M69.909,58.5c-2.38,0.499-10.111-4.443-4.623-7.542c0,0,9.815-4.062,13.351,4.946
					C78.638,55.904,69.997,58.538,69.909,58.5z"/>
				<path fill="#FFFFFF" d="M78.756,55.928c-3.186-6.349-14.14-6.505-14.459-2.107C65.438,59.672,73.961,59.969,78.756,55.928z"/>
				<g>
					<g>
						<defs>
							<path id="SVGID_5_" d="M78.756,55.928c-3.186-6.349-14.14-6.505-14.459-2.107C65.438,59.672,73.961,59.969,78.756,55.928z"/>
						</defs>
						<clipPath id="SVGID_6_">
							<use xlink:href="#SVGID_5_"  overflow="visible"/>
						</clipPath>
						<g clip-path="url(#SVGID_6_)">
							<path fill="#3592C9" d="M74.894,58.338c1.042-1.028,1.058-2.703,0.039-3.746c-1.015-1.046-2.679-1.064-3.72-0.048
								c-1.041,1.027-1.057,2.703-0.039,3.747c0.12,0.125,0.25,0.239,0.395,0.336L74.894,58.338z"/>
							<path opacity="0.102" fill="#FFFFFF" enable-background="new    " d="M75.013,56.256c-0.005-1.132-0.921-2.045-2.043-2.04
								c-1.117,0.005-2.021,0.927-2.017,2.059c0.006,1.135,0.92,2.046,2.037,2.041C74.114,58.311,75.018,57.39,75.013,56.256z"/>
							<path opacity="0.102" fill="#FFFFFF" enable-background="new    " d="M73.355,56.739c-0.004-0.791-0.648-1.423-1.437-1.42
								c-0.789,0.004-1.428,0.644-1.425,1.435c0.005,0.792,0.648,1.43,1.44,1.426C72.721,58.176,73.359,57.531,73.355,56.739z"/>
							<path opacity="0.2" fill="#FFFFFF" enable-background="new    " d="M73.062,55.365c-0.003-0.517-0.426-0.934-0.953-0.931
								c-0.529,0.002-0.953,0.425-0.949,0.941c0.002,0.517,0.429,0.933,0.957,0.933C72.647,56.304,73.064,55.884,73.062,55.365z"/>
							<path d="M74.306,56.823c-0.001-0.605-0.491-1.093-1.094-1.09c-0.608,0.002-1.096,0.496-1.092,1.103
								c0.003,0.604,0.496,1.091,1.103,1.089C73.827,57.921,74.311,57.428,74.306,56.823z"/>
							<path opacity="0.6" fill="#FFFFFF" enable-background="new    " d="M73.629,56.43c-0.001-0.299-0.256-0.542-0.565-0.54
								c-0.31,0-0.562,0.247-0.561,0.546c0.002,0.305,0.255,0.547,0.567,0.545C73.378,56.981,73.631,56.736,73.629,56.43z"/>
						</g>
					</g>
				</g>
				<path fill="#FFFFFF" d="M90.392,56.15c1.984,3.307,9.76,2.21,8.883-2.187C98.582,51.443,91.7,52.575,90.392,56.15z"/>
				<g>
					<g>
						<defs>
							<path id="SVGID_7_" d="M90.392,56.15c1.984,3.307,9.76,2.21,8.883-2.187C98.582,51.443,91.7,52.575,90.392,56.15z"/>
						</defs>
						<clipPath id="SVGID_8_">
							<use xlink:href="#SVGID_7_"  overflow="visible"/>
						</clipPath>
						<g clip-path="url(#SVGID_8_)">
							<path fill="#3592C9" d="M95.547,58.327c0.984-0.802,1.136-2.255,0.34-3.25c-0.797-0.992-2.243-1.148-3.229-0.344
								c-0.915,0.744-1.117,2.063-0.482,3.059L95.547,58.327z"/>
							<path opacity="0.102" fill="#FFFFFF" enable-background="new    " d="M96.005,56.151c-0.003-0.757-0.625-1.372-1.398-1.368
								c-0.769,0.003-1.393,0.625-1.39,1.383c0.005,0.762,0.634,1.375,1.403,1.372C95.393,57.531,96.011,56.912,96.005,56.151z"/>
							<path opacity="0.102" fill="#FFFFFF" enable-background="new    " d="M94.882,56.459c-0.002-0.538-0.441-0.972-0.979-0.97
								c-0.539,0.003-0.969,0.441-0.968,0.979c0.002,0.532,0.439,0.971,0.978,0.968C94.449,57.435,94.883,56.991,94.882,56.459z"/>
							<path opacity="0.2" fill="#FFFFFF" enable-background="new    " d="M93.853,55.543c-0.002-0.341-0.289-0.615-0.641-0.611
								c-0.35,0.001-0.636,0.276-0.634,0.619c0.001,0.339,0.291,0.615,0.639,0.615C93.571,56.164,93.853,55.884,93.853,55.543z"/>
							<path d="M94.954,56.616c-0.002-0.507-0.417-0.917-0.925-0.912c-0.507,0.002-0.913,0.413-0.911,0.92
								c0.003,0.511,0.413,0.918,0.92,0.914C94.545,57.538,94.956,57.125,94.954,56.616z"/>
							<path opacity="0.6" fill="#FFFFFF" enable-background="new    " d="M94.391,56.333c0-0.276-0.219-0.498-0.491-0.496
								c-0.275,0.001-0.497,0.226-0.497,0.5c0.002,0.274,0.227,0.49,0.502,0.488C94.177,56.825,94.394,56.607,94.391,56.333z"/>
						</g>
					</g>
				</g>
				<path fill="#EACCE0" d="M90.547,55.637c-0.097-0.065-0.388,0.412-0.341,0.586c0.038,0.167,0.54,0.531,0.598,0.437
					C90.566,56.313,90.572,56.046,90.547,55.637z"/>
				<path fill="#EACCE0" d="M78.75,55.343c0.145-0.06,0.47,0.501,0.386,0.685c-0.086,0.184-0.836,0.517-0.898,0.408
					C78.616,56.083,78.65,55.785,78.75,55.343z"/>
			</g>
		</g>
		<path fill="#774594" d="M88.203,83.884c-1.256-3.038-2.533-5.614-2.591-6.348l2.298-4.523c4.511,1.817,2.652,4.367,4.493,9.497
			C91.221,82.402,89.453,82.529,88.203,83.884z"/>
		<path fill="#755B9F" d="M68.048,75.883c0.449-3.83,17.341-3.821,19.981-2.843l1.478,14.28l3.472,25.359
			c-6.618,4.985-22.085,4.155-28.634,0.234C64.344,112.915,65.079,101.219,68.048,75.883z"/>
		<path fill="#755B9F" d="M65.184,99.614"/>
		<path fill="#774594" d="M81.003,72.712c0.847-0.167,3.83-0.034,3.83-0.034c-0.894,4.79-4.225,7.341-4.225,7.341
			c-5.561-1.506-8.197-6.499-8.197-6.499s2.86-0.562,3.207-0.533"/>
		<path fill="#755B9F" d="M87.651,75.016c-0.137,1.996,3.506,6.601,1.599,11.104"/>
		<path fill="#FFCBA5" d="M84.166,72.758l-2.91-0.056l-0.125-1.86l-5.847,0.195l0.333,1.95l-2.374,0.55c0,0,2.968,3.927,7.164,5.574
			C80.408,79.111,83.384,77.271,84.166,72.758z"/>
		<g>
			<path fill="#535352" d="M67.053,143.152c-0.635-0.584-2.181-2.25-2.587-3.477c0,0-1.992-2.091-1.75-2.406
				c0.99-1.297,2.022-1.699,2.022-1.699l5.19-6.176l3.858,4.307l-7.269,4.139c0.227,0.92,1.207,3.817,1.31,4.622
				C67.827,142.462,67.512,143.577,67.053,143.152z"/>
			<path fill="#404041" d="M69.839,130.417c-0.107,0.095-0.116,0.261-0.02,0.368l0.287,0.32c0.096,0.106,0.262,0.117,0.368,0.02l0,0
				c0.107-0.096,0.117-0.26,0.02-0.368l-0.287-0.319C70.112,130.329,69.945,130.32,69.839,130.417L69.839,130.417z"/>
			<path fill="#404041" d="M69.405,130.807c-0.109,0.094-0.116,0.262-0.021,0.368l0.288,0.318c0.096,0.108,0.262,0.116,0.368,0.022
				l0,0c0.108-0.097,0.118-0.262,0.021-0.369l-0.287-0.321C69.677,130.719,69.51,130.71,69.405,130.807L69.405,130.807z"/>
		</g>
		<g>
			<path fill="#535352" d="M95.421,138.582c-0.906-0.223-4.719,0.076-5.812,0.083l-1.191-9.024l-7.879,3.892l6.052,6.508
				c0,0,0.17,1.267,1.351,2.728c0.289,0.355,3.169-1.307,3.169-1.307c1.479-0.124,3.946-1.083,4.736-1.688
				C95.846,139.773,96.222,138.779,95.421,138.582z"/>
			<path fill="#404041" d="M82.1,133.33c0.1,0.188,0.332,0.256,0.516,0.154l0.556-0.295c0.189-0.102,0.258-0.334,0.158-0.521l0,0
				c-0.101-0.186-0.333-0.254-0.518-0.154l-0.555,0.297C82.069,132.913,81.998,133.145,82.1,133.33L82.1,133.33z"/>
			<path fill="#404041" d="M82.499,134.077c0.102,0.188,0.333,0.259,0.52,0.157l0.555-0.299c0.186-0.099,0.256-0.328,0.156-0.519
				l0,0c-0.1-0.185-0.333-0.257-0.519-0.155l-0.556,0.301C82.47,133.66,82.4,133.895,82.499,134.077L82.499,134.077z"/>
		</g>
		<path fill="#535352" d="M92.011,102.684c-5.96,3.5-20.534,5.875-26.718,0.213l0.355-3.152c0,0,10.626,7.334,25.911-0.15"/>
		<path fill="#404041" d="M91.473,101.538c-0.014,0.255-0.229,0.452-0.483,0.437c-0.256-0.011-0.451-0.229-0.436-0.481
			c0.01-0.254,0.226-0.448,0.481-0.437C91.289,101.066,91.485,101.285,91.473,101.538z"/>
		<path fill="#404041" d="M88.077,103.107c-0.014,0.25-0.232,0.449-0.482,0.437c-0.256-0.013-0.452-0.229-0.441-0.483
			c0.014-0.254,0.231-0.451,0.485-0.438C87.893,102.634,88.091,102.852,88.077,103.107z"/>
		<circle fill="#404041" cx="89.365" cy="102.348" r="0.463"/>
		<g>
			<path fill="#404041" d="M84.517,101.959l-3.123,0.28c-0.884,0.077-1.52,1.036-1.422,2.14c0.099,1.104,0.896,1.936,1.78,1.854
				l3.124-0.279c0.882-0.079,1.521-1.038,1.42-2.141C86.198,102.709,85.4,101.88,84.517,101.959z M84.098,105.126l-1.73,0.153
				c-0.488,0.045-0.931-0.415-0.986-1.025c-0.052-0.611,0.298-1.145,0.788-1.186l1.729-0.155c0.49-0.044,0.931,0.415,0.985,1.026
				C84.941,104.549,84.587,105.082,84.098,105.126z"/>
			<path fill="#404041" d="M83.549,104.13c0.012,0.147-0.099,0.28-0.25,0.292l-1.803,0.148c-0.15,0.013-0.281-0.1-0.292-0.246l0,0
				c-0.012-0.149,0.099-0.28,0.247-0.292l1.805-0.15C83.405,103.87,83.537,103.98,83.549,104.13L83.549,104.13z"/>
		</g>
	</g>
	<polygon fill="#E84E68" points="136.031,114.598 78.795,94.055 81.902,96.857 	"/>
	<path fill="#F8BF8F" d="M71.457,77.38c-2.179,2.187-10.083,10.829-9.68,12.754c0.398,1.918,8.777,4.939,12.025,5.792l2.246-1.421
		c0.831-0.315,1.848-0.554,2.748-0.45c0.903,0.098,1.157,0.916,2.669,1.037c1.437,0.439,3.303,1.719,3.578,2.332
		c0.271,0.615-0.805,0.812-1.948,1.369c-3.779,1.246-7.153,1.271-9.259,0.575c-3.085-0.563-14.792-4.464-15.65-8.472
		c-0.863-4.006,7.269-12.903,10.043-15.258C69.538,74.298,72.972,74.341,71.457,77.38z"/>
	<path fill="#774594" d="M71.56,77.587c-0.997,1.325-3.563,4.792-5.17,6.556c-0.474-1.096-1.511-2.896-3.687-3.416l5.687-6.069
		c0,0,1.773-1.446,2.877-0.334C72.605,75.67,72.21,76.721,71.56,77.587z"/>
</g>
<g>
	<path fill="#FFCBA6" d="M291.816,77.691l-2.334-1.869c-0.89-0.455-1.996-0.846-3.015-0.84c-1.024-0.006-1.407,0.879-3.11,0.829
		c-1.662,0.313-2.146,0.295-2.531,0.95c-0.376,0.656-0.647,2.146,0.56,2.908c4.068,1.856,8.573,2.006,11.015,1.485"/>
	<polygon fill="#583D20" points="318.998,102.438 322.967,139.221 325.31,139.221 329.841,118.004 333.433,118.732 342.335,141.658 
		344.836,140.928 350.357,103.809 	"/>
	<polygon fill="#333332" points="325.184,139.006 322.12,138.771 314.345,140.646 315.994,142.754 327.303,142.518 327.774,140.412 
			"/>
	<polygon fill="#333332" points="345.597,140.033 342.624,139.473 334.764,143.402 337.314,145.643 347.085,144.801 
		347.297,141.438 	"/>
	<path fill="none" d="M322.945,61.902L323,62.295c2.847,0.893,5.557,0.066,6.872-0.404c0.714,0.721,0.011,2.02-0.605,2.09
		c-1.726,0.58-4.173,0.664-5.964-0.238l-0.156,0.088C322.116,62.986,322.142,61.754,322.945,61.902z"/>
	<polygon fill="#4E6772" points="321.202,70.502 304.469,77.664 290.708,77.154 291.546,81.451 305.748,81.721 321.086,75.959 	"/>
	<path fill="#5C7481" d="M318.534,104.604c-0.239,2.746,6.628,4.818,11.979,4.729h1.81c3.213-0.25,15.887,0.91,18.036-5.522
		c-0.324-4.521,0.005-6.609,0-11.58c-0.003-4.972,0.538-14.068-0.88-20.584c-2.661-2.264-10.328-4.396-15.307-3.963
		c-4.976,0.43-12.125,1.227-13.559,3.072C320.613,70.754,321.061,75.459,318.534,104.604z"/>
	<path fill="#FFCBA6" d="M315.044,48.604l-2.875,11.84c0.88,0.643,6.991-1.046,8.247-6.205
		C321.251,50.796,319.444,47.204,315.044,48.604z"/>
	
		<ellipse transform="matrix(-0.2354 0.9719 -0.9719 -0.2354 446.1638 -233.5087)" fill="#D0202C" cx="314.93" cy="58.739" rx="1.037" ry="1.053"/>
	<path opacity="0.502" fill="#E0AE8E" enable-background="new    " d="M314.764,49.682c2.726-0.828,4.705,0.78,4.755,2.418
		c0.13,1.605-1.558,3.379-2.213,3.829c-0.652,0.45-0.985-1.346-1.715-1.13c-0.728,0.214-2.364,3.129-2.653,2.419
		C313.514,54.92,314.188,51.982,314.764,49.682z"/>
	<path fill="#FFCBA6" d="M330.52,64.863l0.615,3.135l2.235,5.463l4.25-5.631c0.03-1.846-0.005-2.955-0.005-2.955L330.52,64.863z"/>
	<path fill="#FFCBA6" d="M310.252,51.48c1.184,11.854,5.28,14.719,7.797,15.303c13.787,3.004,26.593-1.232,32.356-3.168
		c3.761-1.336,4.816-6.292,5.237-8.354c10.077-3.197,10.857-16.575,2.606-13.032c-0.17-4.211,3.309-8.003-3.008-11.428
		l-34.894-9.324c-7.628,0.77-4.896,2.556-6.866,6.583c-6.916,3.359-5.658,14.955-5.413,17.736
		C309.44,48.647,309.001,49.998,310.252,51.48z"/>
	<path fill="#FFCBA6" d="M320.197,56.143c0.854-1.096,1.089-4.131,1.601-3.283c0.575,1.523,4.078,1.692,2.815,3.363L320.197,56.143z
		"/>
	<circle fill="#ED8039" cx="315.854" cy="54.217" r="0.1"/>
	<circle fill="#ED8039" cx="316.689" cy="55.054" r="0.233"/>
	<circle fill="#ED8039" cx="313.782" cy="56.789" r="0.234"/>
	<ellipse fill="#ED8039" cx="316.287" cy="57.076" rx="0.134" ry="0.15"/>
	<path fill="#ED8039" d="M331.801,56.693c-0.055-0.011-0.087-0.066-0.079-0.121c0.012-0.052,0.067-0.088,0.12-0.075
		c0.057,0.009,0.09,0.062,0.076,0.116C331.905,56.668,331.854,56.703,331.801,56.693z"/>
	<circle fill="#ED8039" cx="332.823" cy="55.892" r="0.234"/>
	<circle fill="#ED8039" cx="333.544" cy="57.397" r="0.234"/>
	<path fill="#ED8039" d="M334.683,56.857c-0.079-0.016-0.136-0.086-0.118-0.162c0.015-0.07,0.095-0.114,0.177-0.098
		c0.078,0.016,0.132,0.091,0.118,0.161C334.842,56.832,334.763,56.875,334.683,56.857z"/>
	<path fill="#F2A37D" d="M320.111,56.287c-0.518,0.152,0.958,0.939,1.727,0.939s2.902-0.423,2.87-0.939
		C322.956,56.068,320.212,55.923,320.111,56.287z"/>
	<path fill="#FFBF93" d="M331.279,52.078c3.989,3.876,9.359,2.589,11.225,1.334C340.308,53.899,335.576,54.565,331.279,52.078z"/>
	<path fill="#FFBF93" d="M310.279,52.039c2.639,1.842,5.587,0.612,6.536-0.279C315.605,52.242,312.967,53.058,310.279,52.039z"/>
	<ellipse opacity="0.2" fill="#FFFFFF" enable-background="new    " cx="324.105" cy="55.604" rx="0.534" ry="0.35"/>
	<path fill="#543E20" d="M317.4,40.337c-1.422-1.314-7.519,0.759-9.379,1.742C305.688,39.469,318.416,36.419,317.4,40.337z"/>
	<path fill="#FFCBA6" d="M357.839,42.486l-3.935,15.595c1.008,0.414,10.492-6.066,10.492-11.377
		C364.396,43.153,361.792,40.086,357.839,42.486z"/>
	<path opacity="0.502" fill="#E0AE8E" enable-background="new    " d="M357.832,43.604c2.454-1.448,4.756-0.349,5.191,1.23
		c0.504,1.53-0.718,3.651-1.246,4.243c-0.53,0.591-1.275-1.075-1.936-0.694c-0.656,0.381-1.562,3.597-2.011,2.979
		C357.852,48.991,357.814,45.976,357.832,43.604z"/>
	<g>
		<g>
			<path fill="#FFFFFF" d="M331.122,50.28c-0.19-0.403-0.837-0.695-0.845-1.076c-0.009-0.38,0.779-0.804,0.802-1.202
				c0.605-6.83,14.401-7.188,14.663-0.555C344.53,55.059,333.075,54.186,331.122,50.28z"/>
			<ellipse fill="#3493CA" cx="335.23" cy="47.958" rx="3.96" ry="3.686"/>
			<ellipse opacity="0.102" fill="#FFFFFF" enable-background="new    " cx="335.709" cy="48.824" rx="1.751" ry="1.729"/>
			<circle opacity="0.2" fill="#FFFFFF" enable-background="new    " cx="336.893" cy="47.117" r="1.161"/>
			<circle cx="334.161" cy="47.708" r="1.206"/>
			<path fill="#864827" d="M331.135,47.415c1.321-7.285,10.965-5.07,12.717-4.32c2.44,1.005,2.668,2.819,2.628,3.329
				c-0.438,3.051-2.847,7.587-8.607,6.875c4.81-0.318,7.731-3.177,7.643-6.961C344.773,42.365,332.507,40.544,331.135,47.415z"/>
		</g>
		<g>
			<path fill="#FFFFFF" d="M318.018,49.257c-1.652,4.52-9.211,3.735-9.525-1.355c-0.287-5.469,8.292-4.587,9.587,0.323
				C318.322,48.505,318.654,49.223,318.018,49.257z"/>
			
				<ellipse transform="matrix(0.075 0.9972 -0.9972 0.075 335.8589 -266.2686)" fill="#3493CA" cx="311.453" cy="47.899" rx="2.845" ry="2.8"/>
			<path opacity="0.102" fill="#FFFFFF" enable-background="new    " d="M309.702,47.911c-0.073-0.966,0.569-1.801,1.434-1.867
				c0.865-0.061,1.624,0.667,1.696,1.631c0.073,0.965-0.567,1.8-1.433,1.866C310.533,49.606,309.773,48.877,309.702,47.911z"/>
			<path opacity="0.102" fill="#FFFFFF" enable-background="new    " d="M310.999,48.179c-0.054-0.69,0.395-1.285,0.996-1.33
				c0.599-0.045,1.131,0.478,1.184,1.165c0.052,0.69-0.394,1.286-0.997,1.332C311.581,49.391,311.053,48.87,310.999,48.179z"/>
			
				<ellipse transform="matrix(0.0761 0.9971 -0.9971 0.0761 335.7159 -268.5685)" opacity="0.2" fill="#FFFFFF" enable-background="new    " cx="312.778" cy="46.868" rx="0.751" ry="0.728"/>
			<path d="M309.885,47.92c-0.042-0.55,0.34-1.03,0.855-1.067c0.515-0.04,0.964,0.376,1.004,0.928
				c0.044,0.551-0.339,1.031-0.854,1.067C310.377,48.886,309.926,48.47,309.885,47.92z"/>
			<path fill="#864827" d="M316.864,46.044c-2.63-2.392-6.184-1.933-7.5-0.166c-1.782,2.677,1.056,6.138,3.763,6.5
				c-3.126-0.332-4.32-2.8-4.816-4.294C307.133,44.083,313.414,42.362,316.864,46.044z"/>
		</g>
	</g>
	<path fill="#543E20" d="M334.007,41.253c2.274-1.437,12.893,0.715,14.112,1.062C350.484,39.946,332.905,35.963,334.007,41.253z"/>
	<path fill="#543E20" d="M350.689,52.939l3.22,1.476l3.181-8.878c0,0-1.713,10.84-2.841,14.228
		c-1.125,3.387,24.354-16.715,8.317-38.989"/>
	<path fill="#543E20" d="M350.753,53.301l4.734-14.425c-4.296,0.806-30.602-1.211-39.733-11.989c0,0-0.959,3.821-4.76,6.865
		c-3.797,3.047-2.904,8.458-2.904,8.458c-4.103-8.35-0.686-21.777,12.522-26.207c0,0,18.196-16.585,43.148,4.199"/>
	<g>
		<path fill="#FFCBA6" d="M359.023,43.013c-1.771,0.862-2.992,8.592-4.168,12.941c0.922,0.534,9.313-2.765,9.988-7.978
			C365.296,44.494,363.159,41.156,359.023,43.013z"/>
		<path opacity="0.502" fill="#E0AE8E" enable-background="new    " d="M358.832,44.23c2.565-1.096,4.664,0.257,4.888,1.848
			c0.297,1.55-1.152,3.455-1.741,3.963c-0.591,0.504-1.107-1.208-1.796-0.919c-0.685,0.284-1.967,3.296-2.326,2.639
			C358.175,49.461,358.517,46.53,358.832,44.23z"/>
	</g>
	<g>
		<path fill="#FFFFFF" d="M319.285,60.87c4.048,0.859,5.294,0.546,8.642-0.465c1.868-0.546,2.103,2.179,1.052,3.156
			c-2.646,1.287-6.695,1.988-9.578,0.35C317.765,62.701,317.413,60.443,319.285,60.87z"/>
	</g>
	<path fill="#15365B" d="M335.291,73.217h-3.126l-0.869,1.08c0,0,0.607,1.814,1.998,1.814c1.39,0,1.822-1.437,1.997-1.449
		C335.465,74.648,335.291,73.217,335.291,73.217z"/>
	<polygon fill="#FFFFFF" points="337.62,67.83 339.659,69.061 336.823,75.459 333.37,73.461 330.52,75.459 328.715,69.766 
		331.135,67.998 333.37,72.678 	"/>
	<polygon fill="#15365B" points="334.077,76.111 335.852,96.119 332.126,100.979 329.352,96.295 332.557,76.111 333.332,75.459 	"/>
	<path fill="#FFCBA6" d="M349.302,106.445l-2.14,1.311c-0.611,0.574-1.239,1.336-1.523,2.143c-0.293,0.81,0.295,1.363-0.232,2.695
		c-0.225,1.406-0.381,1.781,0.03,2.271c0.408,0.486,1.511,1.123,2.455,0.389c2.629-2.688,4.035-6.203,4.319-8.281"/>
	<path fill="#4E6772" d="M349.921,72.186l6.078,23.111l-4.04,12.959c-0.477,1.359-2.853,0.074-4.594-0.623l4.466-12.965
		l-6.312-19.854C345.921,72.012,347.548,69.553,349.921,72.186z"/>
</g>
<g>
	<g>
		<path fill="#644A25" d="M299.331,34.36c0,0,15.066,42.332-8.914,54.634c0,0,5.421-4.17,8.55-12.723
			c0,0-5.214,11.262-14.389,13.139h-8.133c0,0,9.801-8.133,11.052-29.615C287.497,59.795,299.748,64.18,299.331,34.36z"/>
		<path fill="#553D1E" d="M295.273,54.613c0,0,2.606,28.985-15.537,33.469l-4.482-18.143
			C275.254,69.939,291.104,52.735,295.273,54.613z"/>
		<path fill="#644A25" d="M253.064,34.905c0,0-14.599,43.587,9.385,55.89c0,0-5.422-4.174-8.549-12.723
			c0,0,5.214,11.26,14.389,13.139h8.133c0,0-9.802-8.133-11.053-29.613C265.369,61.598,252.646,64.727,253.064,34.905z"/>
		<path fill="#553D1E" d="M258.593,54.613c0,0-2.606,28.985,15.534,33.469l4.486-18.143
			C278.613,69.939,262.764,52.735,258.593,54.613z"/>
		<path fill="#FFFFFF" d="M281.139,101.4c-3.879-15.111,4.303-25.076-0.834-27.144c-3.996-1.605-19.76-1.672-20.621,1.08
			c-1.66,3.285,2.565,17.07,0.746,23.867c0,0-1.5,5.241-1.141,8.92c0,0,17.402,1.112,22.768,0L281.139,101.4z"/>
		<path fill="#0071BC" d="M263.15,73.889l4.27,12.216l0.305,5.861l0.527,0.023c-0.014-1.867-0.027-3.846-0.041-5.715l6.908-12.885
			C274.548,72.75,267.639,71.895,263.15,73.889z"/>
		<polygon fill="#FFCBA5" points="264.295,74.652 267.208,78.471 267.982,83.068 268.827,78.336 273.32,74.4 270.509,73.93 
			269.955,70.547 266.506,70.598 266.287,73.992 		"/>
		<path fill="#4D4D4D" d="M275.398,139.773c-0.688,0.367-3.494,1.242-4.002,1.836c-0.508,0.588,0.248,1.588,0.951,1.707
			c0.7,0.113,2.354-1.056,3.262-1.025c0.908,0.029,1.681,1.219,2.184,1.203c0.501-0.02,0.621-0.859,0.829-1.303
			c0.207-0.447,0.567-0.961,0.413-1.363c-0.154-0.404-0.529-0.973-1.342-1.055H275.398z"/>
		<path fill="#4D4D4D" d="M264.971,138.34c-0.507,0.363-3.926,1.875-4.561,2.508c-0.635,0.631-0.041,1.291,0.758,1.283
			c0.796-0.004,3.139-1.246,4.03-1.32c0.897-0.074,1.012,1.029,1.333,0.873c0.32-0.16,0.67-1.264,0.6-1.815
			c-0.068-0.562-0.654-1.272-1.017-1.525L264.971,138.34z"/>
		<path fill="#FFCBA5" d="M247.042,54.895c-0.46,7.158,1.892,12.068,8.75,15.611c13.907,4.469,26.521,0.162,31.776-2.688
			c8.244-5.152,10.072-19.787,7.246-30.441c-11.672-4.363-19.301-11.407-35.021-13.087c-7.83,2.976-11.356,10.231-13.187,17.65
			C245.438,47.014,246.969,50.846,247.042,54.895z"/>
		<path fill="#FFCBA5" d="M256.16,60.011c0.99-1.042,1.533-4.145,1.979-3.222c0.438,1.628,4.031,2.151,2.567,3.747L256.16,60.011z"
			/>
		<circle fill="#DEAD8D" cx="251.854" cy="57.523" r="0.104"/>
		<path fill="#DEAD8D" d="M252.41,58.431c0.013-0.13,0.127-0.228,0.264-0.214c0.135,0.011,0.23,0.13,0.217,0.264
			c-0.01,0.132-0.129,0.23-0.264,0.218C252.494,58.688,252.396,58.567,252.41,58.431z"/>
		<path fill="#DEAD8D" d="M249.236,59.934c0.011-0.132,0.127-0.23,0.265-0.216c0.131,0.012,0.229,0.13,0.215,0.264
			c-0.012,0.132-0.13,0.23-0.263,0.218C249.32,60.186,249.223,60.068,249.236,59.934z"/>
		
			<ellipse transform="matrix(-0.0976 0.9952 -0.9952 -0.0976 336.8755 -184.4048)" fill="#DEAD8D" cx="252.038" cy="60.52" rx="0.155" ry="0.138"/>
		<circle fill="#DEAD8D" cx="264.218" cy="60.196" r="0.104"/>
		<circle fill="#DEAD8D" cx="264.766" cy="59.14" r="0.242"/>
		<path fill="#DEAD8D" d="M267.409,61.729c-0.128,0.041-0.265-0.033-0.304-0.162c-0.037-0.125,0.037-0.26,0.162-0.299
			c0.131-0.041,0.265,0.031,0.301,0.162C267.607,61.557,267.535,61.691,267.409,61.729z"/>
		
			<ellipse transform="matrix(0.9589 -0.2836 0.2836 0.9589 -5.7489 78.1098)" fill="#DEAD8D" cx="266.886" cy="58.909" rx="0.156" ry="0.138"/>
		<path fill="#F3D7E6" d="M268.885,55.62c-0.146-0.073-0.541,0.478-0.469,0.675c0.07,0.198,0.823,0.621,0.9,0.514
			C268.953,56.402,268.947,56.096,268.885,55.62z"/>
		<path opacity="0.102" fill="#FFFFFF" enable-background="new    " d="M274.307,57.337c0.088-0.93,0.928-1.612,1.866-1.521
			c0.942,0.091,1.63,0.921,1.543,1.853c-0.092,0.932-0.928,1.61-1.87,1.521C274.907,59.097,274.216,58.267,274.307,57.337z"/>
		<path fill="#F2A37D" d="M256.073,60.122c-0.546,0.105,0.896,1.062,1.686,1.138c0.792,0.078,3.034-0.145,3.054-0.678
			C259.027,60.181,256.215,59.756,256.073,60.122z"/>
		<path fill="#644A25" d="M269.866,48.583c2.28-1.606,11.188,0.954,14.659,0.356C282.965,48.636,268.42,44.623,269.866,48.583z"/>
		<path fill="#FFBF92" d="M269.312,57.094c3.724,4.396,9.387,3.604,11.435,2.494C278.434,59.872,273.49,60.086,269.312,57.094z"/>
		<path fill="#F3D7E6" d="M255.427,54.083c0.115-0.043,0.314,0.518,0.23,0.687c-0.085,0.168-0.691,0.43-0.731,0.32
			C255.251,54.781,255.307,54.504,255.427,54.083z"/>
		
			<ellipse transform="matrix(-0.0966 0.9953 -0.9953 -0.0966 344.9639 -193.4152)" opacity="0.2" fill="#FFFFFF" enable-background="new    " cx="260.26" cy="59.848" rx="0.364" ry="0.553"/>
		<path fill="#644A25" d="M255.062,48.022c-1.148-1.644-7.699,0.423-9.881-0.305C246.297,47.497,256.951,44.283,255.062,48.022z"/>
		<path fill="#E3A6A4" d="M257.081,64.203c2.694,1.053,5.487,0.561,6.974,0.1C262.688,65.91,259.354,66.627,257.081,64.203z"/>
		<path fill="#FFBF92" d="M247.068,55.623c3.334,1.407,5.18,0.841,7.423,0.139C253.893,56.816,249.867,58.165,247.068,55.623z"/>
		<path opacity="0.102" enable-background="new    " d="M246.128,44.56c1.563-2.875,2.501-5.163,5.726-7.605
			c-2.136,1.618,8.715,11.123,28.894,8.315c3.176-0.441,10.239,15.276,10.239,15.276l1.43-2.485l-4.129-9.983L271.91,36.689
			l-20.618-2.64l-5.114,7.799L246.128,44.56z"/>
		<path fill="#EC803A" d="M294.404,53.01"/>
		<path fill="#644A25" d="M283.818,45.697c-4.989-2.558-23.99,3.012-30.633-8.748c-1.72-3.044-6.703,6.978-7.047,9.554
			c-3.132-9.121,1.678-24.267,14.916-27.663c8.055-6.117,31.123-2.461,38.275,15.519c3.389,18.81,3.021,19.094,0.841,28.447
			l-7.911,13.76c0,0,1.879-10.943,1.469-14.083"/>
		<path fill="#8C6239" d="M278.831,43.081c-8.476,1.561-20.822,0.888-24.058-9.408C258.762,42.628,270.975,43.754,278.831,43.081z"
			/>
		<path fill="#E3A6A4" d="M268.867,55.397c2.324-2.954,6.507-4.615,10.712-5.406C279.365,49.557,271.984,48.709,268.867,55.397z"/>
		<path fill="#E3A6A4" d="M255.495,53.86c-1.371-2.589-3.993-4.752-7.011-3.761C251.225,50.341,254.09,51.682,255.495,53.86z"/>
		<g>
			<g>
				<g>
					<path fill="#231F20" d="M280.04,53.149c0.431-1.917,2.635-2.859,3.153-3.03c0.025,0.516,0.068,0.745,0.062,1.182l1.526-0.582
						c0.052,1.114-0.031,1.346-0.08,1.793l1.479-0.443c-0.076,1.821-0.886,3.899-2.101,4.47c0.688-0.546-1.515-2.742-1.847-3.85
						C281.895,52.101,280.875,51.271,280.04,53.149z"/>
					<path fill="#231F20" d="M281.586,54.044c0.965-1.708-0.036-3.885-0.307-4.36c-0.369,0.365-0.516,0.705-0.84,0.834l-0.744-1.457
						c-0.232,0.634-0.508,1.015-0.943,1.469l-0.475-1.339c-0.146,0.53-1.412,1.396-0.895,2.637c-0.14-0.866,1.891,1.005,2.879,0.405
						C280.912,52.026,282.225,52.094,281.586,54.044z"/>
				</g>
				<path fill="#231F20" d="M277.917,59.456c2.55,0.685,11.239-4.204,5.474-7.899c0,0-10.396-5.004-14.783,4.554
					C268.607,56.111,277.82,59.492,277.917,59.456z"/>
				<path fill="#FFFFFF" d="M268.607,56.111c3.795-6.609,15.533-6.118,15.609-1.389C282.645,60.92,273.498,60.727,268.607,56.111z"
					/>
				<g>
					<g>
						<defs>
							<path id="SVGID_9_" d="M268.607,56.111c3.795-6.609,15.533-6.118,15.609-1.389C282.645,60.92,273.498,60.727,268.607,56.111z
								"/>
						</defs>
						<clipPath id="SVGID_10_">
							<use xlink:href="#SVGID_9_"  overflow="visible"/>
						</clipPath>
						<g clip-path="url(#SVGID_10_)">
							<path fill="#29ABE2" d="M272.6,58.924c-1.055-1.164-0.971-2.96,0.184-4.013c1.148-1.06,2.933-0.98,3.984,0.175
								c1.057,1.16,0.971,2.956-0.183,4.011c-0.138,0.127-0.281,0.241-0.446,0.339L272.6,58.924z"/>
							<path opacity="0.102" fill="#FFFFFF" enable-background="new    " d="M272.596,56.689c0.074-1.214,1.11-2.137,2.313-2.062
								c1.196,0.07,2.108,1.114,2.034,2.326c-0.073,1.216-1.108,2.135-2.305,2.064C273.438,58.942,272.521,57.901,272.596,56.689z"
								/>
							<path opacity="0.102" fill="#FFFFFF" enable-background="new    " d="M274.343,57.305c0.05-0.846,0.781-1.487,1.622-1.437
								c0.848,0.055,1.492,0.777,1.439,1.624c-0.049,0.848-0.779,1.494-1.625,1.444C274.938,58.883,274.291,58.153,274.343,57.305z"
								/>
							<path opacity="0.2" fill="#FFFFFF" enable-background="new    " d="M274.74,55.852c0.033-0.552,0.514-0.978,1.076-0.941
								c0.566,0.034,0.992,0.511,0.961,1.064c-0.035,0.555-0.518,0.975-1.084,0.941C275.131,56.88,274.704,56.405,274.74,55.852z"/>
							<path d="M273.316,57.337c0.041-0.648,0.597-1.139,1.24-1.101c0.648,0.039,1.143,0.596,1.103,1.242
								c-0.041,0.65-0.595,1.144-1.246,1.103C273.77,58.54,273.275,57.985,273.316,57.337z"/>
							<path opacity="0.6" fill="#FFFFFF" enable-background="new    " d="M274.176,56.991c0.02-0.323,0.307-0.566,0.639-0.545
								c0.332,0.018,0.586,0.298,0.566,0.618c-0.021,0.328-0.305,0.568-0.64,0.55C274.409,57.594,274.154,57.316,274.176,56.991z"/>
						</g>
					</g>
				</g>
			</g>
			<g>
				<g>
					<path fill="#231F20" d="M249.338,52.139c0.021-1.311-1.263-2.274-1.574-2.468c-0.099,0.332-0.162,0.474-0.227,0.763
						l-0.904-0.622c-0.208,0.719-0.191,0.88-0.229,1.183l-0.895-0.523c-0.236,1.197-0.039,2.678,0.662,3.242
						c-0.357-0.464,1.42-1.546,1.809-2.217C248.296,51.166,249.088,50.786,249.338,52.139z"/>
					<path fill="#231F20" d="M248.191,52.482c-0.359-1.264,0.635-2.525,0.887-2.793c0.179,0.298,0.221,0.541,0.413,0.677
						l0.716-0.832c0.05,0.449,0.17,0.739,0.384,1.103l0.517-0.796c0.015,0.368,0.703,1.132,0.17,1.857
						c0.228-0.541-1.393,0.359-1.94-0.189C248.948,51.275,248.083,51.109,248.191,52.482z"/>
				</g>
				<path fill="#231F20" d="M247.406,50.364c0,0,7.716-0.925,8.512,5.552l-0.574,0.527l-6.201,0.121
					C249.143,56.564,242.811,53.242,247.406,50.364z"/>
				<path fill="#FFFFFF" d="M255.918,55.916c-2.702,3.131-10.718,0.555-8.99-3.934C248.124,49.446,255.189,51.898,255.918,55.916z"
					/>
				<g>
					<g>
						<defs>
							<path id="SVGID_11_" d="M255.918,55.916c-2.702,3.131-10.718,0.555-8.99-3.934C248.124,49.446,255.189,51.898,255.918,55.916
								z"/>
						</defs>
						<clipPath id="SVGID_12_">
							<use xlink:href="#SVGID_11_"  overflow="visible"/>
						</clipPath>
						<g clip-path="url(#SVGID_12_)">
							<path fill="#29ABE2" d="M250.07,57.278c-0.893-1.028-0.787-2.594,0.236-3.499c1.023-0.905,2.577-0.805,3.477,0.225
								c0.828,0.953,0.805,2.385-0.051,3.322L250.07,57.278z"/>
							<path opacity="0.102" fill="#FFFFFF" enable-background="new    " d="M249.984,54.893c0.143-0.8,0.914-1.337,1.729-1.191
								c0.812,0.144,1.356,0.914,1.216,1.714c-0.144,0.803-0.921,1.337-1.731,1.194C250.381,56.464,249.843,55.698,249.984,54.893z"
								/>
							<path opacity="0.102" fill="#FFFFFF" enable-background="new    " d="M251.116,55.422c0.102-0.568,0.646-0.946,1.211-0.846
								c0.569,0.1,0.942,0.644,0.845,1.212c-0.102,0.562-0.643,0.946-1.211,0.846C251.395,56.532,251.018,55.984,251.116,55.422z"/>
							<path opacity="0.2" fill="#FFFFFF" enable-background="new    " d="M252.374,54.643c0.062-0.361,0.414-0.596,0.788-0.53
								c0.367,0.066,0.619,0.409,0.556,0.769c-0.062,0.361-0.418,0.603-0.788,0.534C252.559,55.352,252.309,55.002,252.374,54.643z"
								/>
							<path d="M251.012,55.575c0.098-0.534,0.609-0.891,1.146-0.796c0.533,0.096,0.887,0.603,0.794,1.139
								c-0.099,0.542-0.603,0.896-1.14,0.8C251.275,56.623,250.916,56.114,251.012,55.575z"/>
							<path opacity="0.6" fill="#FFFFFF" enable-background="new    " d="M251.889,55.657c0.053-0.291,0.322-0.484,0.611-0.434
								c0.288,0.052,0.482,0.33,0.432,0.621c-0.05,0.289-0.326,0.475-0.617,0.423C252.025,56.216,251.835,55.945,251.889,55.657z"/>
						</g>
					</g>
				</g>
			</g>
			<path fill="#231F20" d="M278.038,59.449"/>
		</g>
		<path fill="#FFCBA5" d="M234.654,80.123c0.562,0.521,0.883,1.047,1.152,1.162c0.541,0.232,2.531-1.527,3.364-2.275
			c0.271-1.396,0.04-0.678,0.118-1.982c0,0,0.001-1.731-0.971-1.041c-0.297,0.296-0.032,0.789-0.032,0.789
			c-0.438-0.012-1.29-1.692-2.571-1.673c-3.085,0.041-2.514,0.236-2.711,1.757c-0.148,1.154,0.186,1.418,0.376,1.798
			C233.527,79.158,234.092,79.604,234.654,80.123"/>
		<path fill="#F2F2F2" d="M259.389,79.91c-2.771,2.195-9.32,10.865-12.703,9.662l-12-9.234l4.523-1.465c0,0,4.625,5.932,7.954,6.949
			c2.31,0.699,10.306-9.039,12.521-10.484"/>
		<g>
			<path fill="#FFCBA5" d="M292.872,51.173l-0.681,11.632c0.772,0.156,6.644-5.741,5.921-9.521
				C297.63,50.757,295.361,48.928,292.872,51.173z"/>
			<path opacity="0.502" fill="#DEAD8D" enable-background="new    " d="M293.021,51.971c1.549-1.364,3.336-0.894,3.858,0.17
				c0.565,1.021-0.013,2.694-0.31,3.188s-1.055-0.591-1.473-0.232c-0.414,0.362-0.621,2.772-1.022,2.395
				C293.768,55.8,293.33,53.661,293.021,51.971z"/>
		</g>
		<path fill="#745630" d="M300.651,45.489c0,0,5.732,23.146-4.276,35.14C296.375,80.629,303.36,72.391,300.651,45.489z"/>
		<path fill="#0071BC" d="M267.38,116.061l8.646,24.109l2.064,0.064c0.133-1.646,4.502-29.855,3.532-33.992
			c0,0-14.644,1.943-22.501,0.664c0,0-0.788,1.719,6.229,31.84h0.969l2.402-18.945"/>
		<path opacity="0.102" enable-background="new    " d="M275.908,106.867l0.519,32.977l1.705,0.037
			c2.228-11.209,4.325-31.529,3.49-33.639"/>
		<path fill="#535352" d="M258.948,106.967c5.018,2.939,17.78,4.982,22.979,0.219l-0.305-2.59c0,0-9.433,6.068-22.293-0.231"/>
		<circle fill="#404041" cx="260.496" cy="106.119" r="0.388"/>
		<circle fill="#404041" cx="263.354" cy="107.438" r="0.388"/>
		<circle fill="#404041" cx="261.883" cy="106.819" r="0.388"/>
		<g>
			<path fill="#404041" d="M264.723,107.918c-0.08,0.924,0.455,1.732,1.197,1.801l2.629,0.232c0.743,0.066,1.414-0.631,1.494-1.561
				c0.086-0.927-0.449-1.734-1.193-1.802l-2.627-0.233C265.479,106.289,264.809,106.986,264.723,107.918z M265.913,108.021
				c0.046-0.515,0.416-0.902,0.828-0.863l1.456,0.129c0.41,0.039,0.705,0.482,0.662,0.998c-0.047,0.514-0.42,0.9-0.83,0.865
				l-1.454-0.131C266.163,108.98,265.864,108.535,265.913,108.021z"/>
			<path fill="#404041" d="M267.035,108.182c-0.01,0.125,0.083,0.236,0.209,0.244l1.521,0.129c0.123,0.01,0.233-0.086,0.243-0.211
				l0,0c0.013-0.125-0.083-0.236-0.206-0.242l-1.521-0.127C267.156,107.963,267.047,108.059,267.035,108.182L267.035,108.182z"/>
		</g>
	</g>
</g>
<path fill-rule="evenodd" clip-rule="evenodd" fill="#FFCBA6" d="M272.71,96.484c-0.162-0.82,0.268-1.908,1.087-2.85
	c0.02-0.941,0.038-2.428-0.457-2.644s-2.651-0.578-3.547-0.207c-0.382,0.087-0.992,0.795-1.603,1.606
	c-0.133,0.476,0.276,1.399,0.801,2.073c0.296,0.51,0.64,0.251,1.088,0.57s1.059,1.148,1.602,1.347L272.71,96.484z"/>
<path fill-rule="evenodd" clip-rule="evenodd" fill="#FFFFFF" d="M281.779,75.676c2.102,3.043,8.549,17.363,7.062,20.808
	c-1.486,3.445-13.426,0.631-15.98-0.141l0.651-4.494c2.248,0.609,10.891,3.637,11.742,1.265s-5.274-13.086-6.633-15.496
	C278.077,74.434,280.909,73.383,281.779,75.676z"/>
</svg>
